<svg xmlns="http://www.w3.org/2000/svg" width="836" height="1254" viewBox="0 0 836 1254">
<g>
<path d="M 214.00 684.93 C204.60,689.16 190.33,685.93 183.71,678.07 L 181.01 674.86 L 178.05 676.97 C164.57,686.56 147.42,685.11 137.20,673.49 L 133.33 669.10 L 128.51 670.55 C116.04,674.30 103.64,670.07 96.49,659.63 L 93.16 654.76 L 85.83 654.61 C79.75,654.48 77.57,653.95 73.08,651.48 C66.59,647.92 62.50,642.61 60.20,634.78 C58.95,630.54 58.03,629.00 56.72,629.00 C53.52,629.00 45.46,624.25 41.83,620.23 C36.39,614.21 34.65,608.59 35.21,598.88 C35.62,591.77 35.38,590.09 33.32,585.82 C26.19,571.03 26.41,549.77 33.86,534.63 C40.61,520.93 55.40,511.00 69.08,511.00 C82.27,511.00 89.86,519.29 88.41,532.10 C87.75,537.93 83.46,546.00 81.02,546.00 C80.49,546.00 79.36,547.33 78.53,548.95 C74.61,556.51 78.46,565.84 90.30,577.47 C101.27,588.25 115.00,595.34 133.47,599.76 C142.20,601.85 165.44,602.08 175.50,600.18 C184.14,598.54 207.00,591.93 207.00,591.07 C207.00,590.72 205.76,589.91 204.25,589.26 C202.74,588.60 200.74,587.51 199.80,586.82 C198.39,585.79 197.37,585.98 193.84,587.97 C187.86,591.33 179.33,591.21 172.35,587.68 C167.60,585.27 162.00,580.00 162.00,577.94 C162.00,577.43 159.47,577.29 156.25,577.63 C146.20,578.67 138.50,575.30 132.29,567.16 C130.48,564.79 128.72,561.08 128.37,558.92 C127.83,555.52 127.40,555.00 125.12,554.99 C120.86,554.97 112.78,550.62 108.79,546.20 C104.70,541.66 101.66,533.14 102.14,527.55 C102.40,524.56 101.83,523.61 97.60,519.88 C88.68,512.02 85.95,499.35 91.06,489.46 L 93.62 484.50 L 90.81 479.14 C85.36,468.73 87.48,456.31 96.04,448.58 C99.53,445.43 99.86,444.75 98.98,442.45 C96.60,436.18 99.09,426.23 104.29,421.23 C106.06,419.53 109.53,417.10 112.00,415.82 C116.09,413.70 116.63,412.98 117.90,407.96 C119.27,402.58 118.94,397.03 117.09,394.12 C116.39,393.00 115.52,393.27 112.60,395.49 C102.01,403.57 84.11,396.06 81.15,382.29 C79.18,373.08 82.08,364.04 89.58,356.02 C97.74,347.30 110.44,344.27 124.00,347.82 C148.86,354.34 164.60,371.29 168.26,395.49 C169.76,405.46 167.98,418.51 162.80,435.50 C158.56,449.40 158.53,449.61 158.51,465.05 L 158.50 480.60 L 162.27 488.24 C166.51,496.82 171.84,502.15 181.48,507.49 C188.21,511.22 199.65,515.00 204.19,515.00 C207.04,515.00 206.83,514.68 199.03,507.35 C192.11,500.84 190.24,498.33 186.51,490.60 C181.26,479.71 179.56,471.32 180.51,461.00 C182.26,442.02 194.17,427.15 211.33,422.51 C227.66,418.09 246.49,427.76 248.57,441.63 C250.43,454.02 244.59,461.97 233.01,462.81 C229.16,463.08 227.00,463.68 227.00,464.47 C227.00,467.17 232.95,473.66 237.88,476.34 C247.77,481.72 261.81,479.76 268.24,472.12 C274.23,465.01 273.33,455.54 264.08,428.16 C254.81,400.75 253.25,395.11 251.51,382.86 C247.72,356.23 251.86,327.32 263.10,301.77 C271.58,282.49 281.48,268.50 297.64,252.95 C328.21,223.51 365.68,209.76 415.50,209.70 C484.65,209.61 538.03,241.39 563.56,297.86 C573.96,320.86 577.48,338.33 576.77,363.29 C576.12,386.04 573.16,397.71 558.01,437.38 C554.72,446.00 553.74,450.05 553.30,456.88 C552.60,467.86 553.97,471.46 560.48,475.78 C565.83,479.32 571.60,480.50 579.93,479.74 C587.17,479.08 592.80,476.22 597.39,470.85 C601.95,465.53 602.14,463.00 597.97,463.00 C593.52,463.00 588.77,460.71 585.73,457.09 C576.97,446.68 581.43,431.55 595.44,424.18 C599.83,421.87 601.69,421.52 609.50,421.52 C617.32,421.52 619.25,421.88 624.19,424.30 C642.02,433.03 651.13,451.78 648.20,473.71 C646.58,485.84 642.21,494.67 633.09,504.27 C629.17,508.39 624.41,512.83 622.49,514.13 C620.58,515.43 619.01,516.76 619.01,517.08 C619.00,517.93 630.63,516.23 636.50,514.53 C648.35,511.10 662.06,499.83 666.95,489.50 C670.62,481.75 672.01,474.87 671.96,464.70 C671.92,455.13 670.64,448.32 665.55,430.50 C662.58,420.09 661.73,415.17 661.28,405.80 C660.78,395.12 660.96,393.39 663.33,385.76 C671.00,361.19 695.04,342.86 717.84,344.21 C727.07,344.75 733.12,347.22 739.38,353.00 C746.37,359.44 749.25,365.11 749.76,373.46 C750.15,379.75 749.88,381.08 747.30,385.98 C743.88,392.47 737.50,396.96 730.60,397.74 C724.79,398.40 721.88,397.61 717.99,394.34 C715.40,392.16 714.66,391.93 713.93,393.09 C712.13,395.93 711.78,401.27 713.03,407.12 C714.24,412.83 714.52,413.23 718.96,415.48 C728.82,420.48 733.82,429.38 732.60,439.77 C732.00,444.85 732.10,445.15 735.42,448.06 C743.91,455.52 745.87,468.09 740.24,479.00 L 737.11 485.07 L 739.19 488.60 C741.76,492.95 742.70,503.73 741.06,509.81 C740.29,512.64 738.19,515.88 734.95,519.25 C730.64,523.72 730.00,524.92 730.00,528.53 C730.00,534.23 727.69,541.40 724.52,545.56 C721.61,549.38 712.67,554.98 709.46,554.99 C707.90,555.00 707.14,556.01 706.28,559.25 C704.68,565.24 699.90,571.39 694.32,574.66 C690.24,577.05 688.51,577.44 682.29,577.39 C676.23,577.33 674.94,577.61 674.48,579.07 C674.17,580.03 671.96,582.63 669.56,584.84 C661.26,592.49 649.48,593.53 640.46,587.41 L 636.83 584.94 L 633.48 587.88 C631.64,589.50 628.53,591.40 626.57,592.11 L 623.02 593.40 L 627.76 595.24 C630.37,596.25 638.12,598.49 645.00,600.21 C656.49,603.10 658.79,603.34 673.50,603.29 C687.93,603.24 690.63,602.94 701.07,600.23 C714.54,596.74 725.64,591.86 734.46,585.57 C749.62,574.75 759.98,557.55 755.95,549.86 C755.27,548.56 753.00,545.61 750.89,543.31 C746.38,538.36 745.62,535.91 746.19,528.06 C746.71,520.84 749.69,516.51 756.47,513.12 C766.49,508.12 784.13,512.66 792.77,522.47 C806.50,538.08 809.92,564.12 800.99,585.19 C799.52,588.64 799.00,592.13 799.00,598.50 C799.00,605.67 798.57,608.03 796.44,612.53 C793.34,619.09 786.13,625.71 780.43,627.23 C776.45,628.29 776.20,628.60 774.49,634.42 C770.86,646.76 757.34,656.21 745.77,654.50 C741.66,653.89 741.45,653.99 740.06,657.18 C737.87,662.21 730.05,669.26 724.43,671.25 C718.34,673.42 713.73,673.47 707.74,671.43 L 703.13 669.85 L 699.38 674.00 C691.91,682.27 683.65,684.51 673.64,680.98 L 667.22 678.71 L 664.21 680.85 C662.56,682.02 658.37,683.72 654.89,684.61 C647.31,686.55 640.63,685.47 634.54,681.33 C630.83,678.81 630.61,678.78 628.10,680.42 C617.48,687.37 608.83,688.16 598.60,683.12 C595.01,681.36 591.15,678.74 590.02,677.30 L 587.97 674.69 L 582.30 677.56 C574.65,681.42 566.54,681.95 558.90,679.07 C553.46,677.03 546.39,671.47 544.28,667.59 C543.29,665.77 543.07,665.76 539.10,667.34 C532.69,669.91 525.53,669.48 518.43,666.13 C512.31,663.23 506.44,657.49 505.39,653.37 C504.87,651.35 504.39,651.26 496.67,651.74 C489.58,652.18 487.86,651.94 483.61,649.95 C480.91,648.68 477.15,646.08 475.24,644.17 C471.81,640.74 468.07,633.91 468.02,631.00 C468.00,629.87 466.65,629.47 462.50,629.37 C448.66,629.04 437.51,618.09 436.25,603.57 C435.73,597.53 435.68,597.46 427.06,588.50 C422.30,583.55 417.54,578.04 416.49,576.25 C415.43,574.46 414.23,573.00 413.82,573.00 C413.41,573.00 411.19,575.78 408.88,579.17 C406.58,582.57 401.39,588.81 397.35,593.03 C391.11,599.56 390.00,601.25 390.00,604.18 C390.00,612.85 383.89,622.64 375.34,627.65 C372.10,629.55 368.96,630.41 364.06,630.76 L 357.26 631.25 L 354.94 636.87 C349.26,650.59 333.41,658.54 321.58,653.60 C318.38,652.26 318.18,652.30 317.12,654.64 C315.01,659.27 307.01,666.75 301.75,669.01 C297.51,670.84 295.32,671.15 289.54,670.76 C285.67,670.49 280.89,669.49 278.93,668.54 L 275.36 666.80 L 269.43 672.72 C258.51,683.63 245.47,685.12 232.57,676.94 L 227.71 673.86 L 223.11 678.38 C220.57,680.86 216.48,683.81 214.00,684.93 ZM 599.50 659.47 C605.00,660.19 618.52,660.83 629.54,660.89 C669.12,661.11 699.18,654.99 727.50,640.94 C749.42,630.06 764.64,617.61 778.37,599.33 C786.13,588.99 789.69,581.96 791.52,573.33 C795.31,555.45 791.72,539.40 781.96,530.58 C771.38,521.02 759.05,520.58 758.79,529.75 C758.71,532.35 759.58,533.81 763.24,537.24 C766.95,540.72 768.01,542.53 769.02,547.12 C774.07,570.02 750.58,597.57 716.00,609.32 C711.88,610.72 703.33,612.85 697.00,614.06 C687.11,615.94 683.33,616.17 670.00,615.69 C647.15,614.88 630.77,610.69 608.50,599.97 C581.94,587.19 559.25,568.18 544.07,546.02 C533.03,529.91 525.01,510.11 528.03,506.46 C530.92,502.98 534.79,505.82 541.35,516.24 C546.23,523.99 558.69,536.86 568.38,544.16 C581.38,553.96 602.91,563.53 617.75,566.12 C627.15,567.75 646.77,566.71 656.50,564.05 C671.55,559.94 687.29,550.04 698.88,537.39 C710.56,524.64 716.22,513.84 720.05,496.96 C721.78,489.35 722.08,485.64 721.62,478.00 C720.68,462.70 717.67,452.42 705.20,421.93 C698.06,404.47 697.54,397.59 702.56,387.30 C706.07,380.10 709.99,377.00 715.55,377.00 C719.50,377.00 720.12,377.33 721.61,380.25 C723.68,384.28 724.69,384.97 728.58,384.98 C734.91,385.02 738.60,376.76 735.53,369.43 C731.19,359.02 720.87,354.39 708.87,357.45 C696.07,360.72 683.47,371.42 677.63,383.99 C674.98,389.70 674.57,391.85 674.21,401.50 C673.79,413.06 674.84,419.01 680.49,437.07 C686.18,455.30 686.14,478.04 680.37,492.63 C678.07,498.45 676.27,500.88 668.58,508.50 C655.17,521.79 646.29,526.39 627.80,529.60 C611.72,532.39 592.30,529.71 578.63,522.82 C572.08,519.51 566.00,515.26 566.00,513.99 C566.00,513.56 571.51,513.45 578.25,513.73 C597.64,514.56 608.06,510.95 620.24,499.19 C628.58,491.15 632.44,485.26 634.45,477.53 C639.82,456.90 629.89,436.70 612.85,433.61 C607.24,432.59 601.13,434.40 597.40,438.18 C590.47,445.19 592.54,451.13 601.62,450.27 C605.56,449.89 607.03,450.22 609.23,451.96 C614.54,456.15 614.85,466.65 609.89,474.67 C606.87,479.57 598.15,487.01 592.24,489.73 C574.67,497.83 549.06,489.18 541.99,472.75 C539.98,468.09 539.80,466.39 540.26,457.01 C540.81,446.04 541.36,444.02 549.05,424.94 C554.21,412.13 557.54,401.73 560.74,388.50 C563.12,378.62 563.39,375.62 563.38,359.00 C563.36,338.95 562.21,331.86 555.89,313.18 C548.55,291.45 529.61,265.36 511.50,252.03 C491.81,237.54 466.41,227.69 439.00,223.93 C427.50,222.35 403.61,222.33 392.00,223.89 C373.89,226.32 352.53,232.70 337.95,240.03 C298.72,259.74 271.38,298.63 264.59,344.36 C260.79,369.96 263.50,388.18 276.82,426.50 C283.66,446.19 285.44,454.55 284.78,463.83 C283.93,475.71 278.80,482.37 265.72,488.56 C258.28,492.09 257.60,492.23 249.72,491.76 C239.33,491.15 232.04,488.38 225.31,482.50 C217.95,476.05 214.62,468.92 215.20,460.85 C215.60,455.42 216.04,454.36 218.97,451.74 C222.35,448.72 224.79,448.49 231.67,450.54 C233.30,451.03 234.24,450.56 235.51,448.62 C237.09,446.21 237.09,445.84 235.35,442.34 C232.33,436.27 229.00,434.50 220.67,434.52 C214.66,434.53 212.65,435.00 208.25,437.43 C189.35,447.84 187.82,476.79 205.14,496.43 C214.60,507.16 227.85,513.02 244.76,513.94 C250.41,514.25 255.14,514.95 255.26,515.50 C255.68,517.27 236.87,525.92 229.18,527.50 C213.23,530.77 192.67,528.33 178.28,521.45 C163.31,514.30 149.28,496.79 145.92,481.06 C145.19,477.66 144.95,470.71 145.27,462.56 C145.73,450.82 146.25,447.88 150.43,433.50 C159.29,403.03 157.51,387.77 143.34,372.92 C130.27,359.22 110.29,354.99 99.91,363.73 C91.09,371.15 92.45,386.00 101.94,386.00 C104.39,386.00 105.46,385.23 107.49,382.02 C111.68,375.38 117.87,375.67 124.14,382.81 C134.07,394.12 133.60,403.64 121.71,432.63 C109.87,461.46 107.60,479.00 112.96,500.18 C116.54,514.33 123.63,525.78 136.58,538.29 C150.66,551.89 168.85,561.22 187.70,564.51 C211.57,568.67 231.37,564.06 251.85,549.59 C262.26,542.23 276.56,527.34 283.36,516.78 C289.11,507.84 292.84,504.34 295.49,505.36 C297.30,506.05 297.49,511.68 295.89,517.50 C294.28,523.36 286.61,538.31 280.44,547.61 C264.19,572.10 228.65,597.82 196.50,608.36 C171.46,616.56 141.53,616.35 116.50,607.79 C105.25,603.95 101.35,602.01 92.27,595.76 C77.77,585.77 67.02,571.88 64.05,559.30 C62.32,551.97 64.42,545.23 70.99,537.02 C76.47,530.16 77.19,526.95 73.78,524.56 C66.61,519.53 51.33,527.50 45.27,539.44 C33.16,563.26 42.16,590.60 70.87,617.17 C100.43,644.55 152.44,660.57 205.50,658.66 C251.32,657.01 290.51,647.26 328.50,628.06 C367.15,608.53 391.51,585.67 407.96,553.50 C410.13,549.24 410.94,548.50 413.40,548.50 C415.98,548.50 416.77,549.36 420.71,556.50 C427.00,567.90 437.29,581.00 448.67,592.07 C465.01,607.98 481.33,619.25 506.50,632.03 C535.56,646.78 562.07,654.60 599.50,659.47 ZM 671.50 937.01 C666.55,937.54 661.15,937.91 659.50,937.84 C609.86,935.75 574.24,907.53 561.87,860.50 C559.72,852.35 559.50,849.47 559.53,830.00 C559.56,809.36 559.68,808.14 562.34,799.50 C565.63,788.86 572.30,774.41 577.66,766.30 C582.86,758.45 594.15,746.71 601.65,741.35 C609.68,735.63 622.77,729.63 633.19,726.90 C646.19,723.50 665.54,723.13 680.11,726.00 C698.75,729.68 709.24,734.26 721.40,744.05 C738.14,757.52 749.74,776.11 756.63,800.50 C759.31,809.99 759.45,811.54 759.45,831.00 C759.45,850.24 759.29,852.08 756.76,861.00 C751.72,878.78 746.52,889.19 736.12,902.27 C720.79,921.57 697.11,934.30 671.50,937.01 ZM 204.78 934.39 C189.29,938.88 166.39,938.57 149.56,933.63 C121.40,925.37 100.85,907.92 88.56,881.85 C79.91,863.49 76.05,840.60 78.04,819.54 C79.23,806.98 79.95,803.44 83.45,792.73 C88.46,777.41 95.55,765.64 107.00,753.62 C120.20,739.77 134.71,731.31 153.00,726.83 C166.54,723.51 191.28,723.53 204.50,726.87 C222.60,731.45 237.95,740.61 250.73,754.49 C281.52,787.90 287.70,840.75 265.90,884.25 C254.19,907.61 230.70,926.88 204.78,934.39 ZM 375.36 932.62 C373.00,933.61 367.27,934.00 355.28,934.00 C334.10,934.00 332.43,933.38 329.79,924.50 C326.50,913.43 319.25,886.66 314.50,868.00 C311.90,857.83 308.22,843.65 306.32,836.50 C304.41,829.35 300.89,815.85 298.50,806.50 C291.23,778.14 288.07,766.22 283.42,749.71 C278.85,733.47 278.74,731.08 282.55,729.62 C283.44,729.28 293.15,729.00 304.13,729.00 C304.69,729.00 305.24,729.00 305.78,729.00 C318.92,729.00 324.17,728.99 326.80,731.62 C328.65,733.47 329.21,736.62 330.31,742.00 C332.23,751.35 332.78,753.80 342.99,798.00 C346.86,814.78 350.88,831.88 351.90,836.00 C352.93,840.12 354.34,846.31 355.02,849.75 C355.71,853.19 356.55,856.00 356.89,856.00 C357.22,856.00 358.72,852.28 360.20,847.75 C362.75,839.96 375.37,796.96 377.00,790.50 C377.41,788.85 380.46,777.83 383.76,766.00 C387.06,754.17 390.31,742.14 390.98,739.26 C391.83,735.59 393.09,733.26 395.17,731.51 C398.11,729.04 398.41,729.00 415.94,729.00 C432.25,729.00 433.94,729.17 436.29,731.01 C438.96,733.11 440.56,737.38 445.51,755.50 C447.02,761.00 448.83,767.53 449.55,770.00 C450.26,772.47 453.18,783.05 456.03,793.50 C458.88,803.95 462.02,815.20 463.01,818.50 C464.00,821.80 466.04,828.78 467.53,834.00 C469.02,839.22 471.21,846.58 472.40,850.34 L 474.56 857.19 L 481.32 829.84 C489.71,795.86 495.92,770.12 499.49,754.50 C503.89,735.21 504.86,732.21 507.24,730.55 C509.06,729.27 513.17,729.00 531.02,729.00 C546.47,729.00 552.94,729.34 553.80,730.20 C555.54,731.94 555.28,736.76 553.08,743.56 C552.02,746.83 549.74,754.67 548.02,761.00 C546.29,767.33 544.05,775.20 543.04,778.50 C542.03,781.80 539.09,792.15 536.51,801.50 C533.92,810.85 531.21,820.53 530.48,823.00 C529.75,825.47 527.51,833.58 525.50,841.00 C523.49,848.42 521.26,856.53 520.53,859.00 C519.81,861.47 518.27,867.10 517.11,871.50 C514.10,882.94 505.15,915.31 502.83,923.16 C499.75,933.58 500.05,933.45 477.65,933.77 C463.65,933.96 457.83,933.69 456.00,932.76 C452.99,931.22 450.76,926.87 448.19,917.50 C447.14,913.65 443.26,900.15 439.59,887.50 C435.91,874.85 430.23,854.83 426.97,843.00 C419.20,814.84 416.79,806.68 415.93,805.66 C415.54,805.19 414.76,806.32 414.20,808.16 C412.36,814.23 408.13,829.10 399.03,861.50 C394.09,879.10 389.14,896.65 388.03,900.50 C386.92,904.35 384.84,911.55 383.41,916.50 C379.47,930.15 379.00,931.10 375.36,932.62 ZM 683.83 335.59 C680.19,337.47 678.10,337.36 674.50,335.12 C672.85,334.10 658.86,320.48 643.41,304.88 C617.36,278.56 615.04,275.92 611.41,268.55 C607.58,260.76 607.50,260.39 607.51,249.55 C607.51,239.50 607.77,237.94 610.39,232.27 C613.71,225.04 620.17,218.52 628.12,214.34 C633.19,211.67 634.22,211.51 646.00,211.50 C657.58,211.50 658.94,211.70 664.43,214.28 C667.69,215.80 672.27,218.62 674.60,220.53 C676.93,222.44 679.21,224.00 679.67,223.99 C680.13,223.98 682.38,222.49 684.68,220.66 C686.97,218.83 691.70,216.03 695.18,214.42 C701.06,211.71 702.34,211.50 713.50,211.51 C724.68,211.51 725.86,211.71 730.79,214.29 C746.18,222.38 754.02,238.52 751.12,256.11 C748.99,269.00 746.45,272.42 715.03,304.82 C699.37,320.97 685.33,334.81 683.83,335.59 ZM 167.63 895.48 C171.35,896.42 176.25,896.80 181.00,896.52 C203.96,895.18 221.41,879.50 228.18,854.14 C229.81,848.02 230.22,843.41 230.22,831.00 C230.23,817.09 229.96,814.58 227.56,806.54 C219.38,779.10 201.96,764.00 178.50,764.00 C164.66,764.00 153.04,769.04 143.48,779.17 C132.93,790.36 127.92,802.69 126.09,822.05 C123.78,846.47 130.02,867.96 143.30,881.32 C150.18,888.24 158.75,893.23 167.63,895.48 ZM 650.71 895.86 C678.63,901.21 704.36,881.05 710.43,849.07 C714.56,827.28 710.75,802.20 701.01,787.02 C697.09,780.91 687.58,771.85 682.24,769.12 C663.95,759.79 639.96,763.73 625.50,778.45 C612.26,791.93 606.01,812.21 607.30,837.50 C608.86,868.23 625.88,891.10 650.71,895.86 ZM 652.36 293.79 L 679.50 321.07 L 705.59 294.79 C727.05,273.16 732.19,267.44 734.59,262.50 C740.72,249.87 737.42,235.69 726.64,228.32 C722.10,225.22 721.24,225.00 713.52,225.00 C702.78,225.00 698.28,226.99 688.47,236.09 C679.44,244.46 679.32,244.46 669.84,235.37 C661.18,227.07 656.70,225.05 646.87,225.02 C634.99,224.99 628.12,228.88 623.31,238.37 C621.28,242.37 620.74,244.89 620.78,249.99 C620.89,261.68 622.11,263.36 652.36,293.79 ZM 340.77 411.41 C333.46,414.97 327.74,415.48 321.17,413.15 C302.63,406.56 296.27,380.32 308.77,362.05 C317.25,349.66 334.40,347.39 345.57,357.19 C361.64,371.31 358.87,402.57 340.77,411.41 ZM 505.67 413.50 C499.28,415.40 497.72,415.36 491.03,413.05 C483.53,410.46 475.81,402.47 473.59,395.00 C467.41,374.20 478.76,352.92 496.90,351.28 C504.95,350.55 510.55,352.70 516.01,358.63 C522.86,366.06 524.50,370.76 524.50,383.00 C524.49,391.92 524.13,394.30 522.11,398.79 C519.09,405.48 512.34,411.52 505.67,413.50 ZM 424.77 439.47 C407.50,444.61 387.18,435.19 385.30,421.17 C384.83,417.71 385.09,416.98 387.33,415.52 C390.86,413.21 393.62,414.34 396.04,419.07 C397.14,421.23 399.91,424.24 402.20,425.75 C405.81,428.14 407.34,428.50 413.93,428.50 C422.90,428.50 426.89,426.62 431.50,420.23 C436.60,413.16 442.25,413.36 442.80,420.63 C443.33,427.72 434.99,436.44 424.77,439.47 ZM 311.08 320.37 C306.68,325.14 301.00,323.20 301.00,316.93 C301.00,313.29 308.73,306.45 314.94,304.61 C325.93,301.35 334.26,303.05 334.81,308.68 C335.23,312.97 332.16,315.00 325.25,315.00 C319.00,315.00 314.43,316.73 311.08,320.37 ZM 526.00 322.00 C523.27,324.73 521.37,324.51 518.19,321.12 C514.37,317.02 510.44,315.35 503.13,314.72 C496.39,314.14 495.60,313.74 494.59,310.39 C493.51,306.79 496.88,303.81 502.67,303.26 C512.31,302.33 522.96,307.16 526.54,314.07 C528.50,317.87 528.38,319.62 526.00,322.00 ZM 335.22 375.44 C340.42,379.09 346.00,376.22 346.00,369.90 C346.00,367.12 345.41,365.70 343.78,364.56 C340.80,362.47 338.78,362.60 335.63,365.07 C332.18,367.79 331.97,373.17 335.22,375.44 ZM 503.45 374.55 C508.18,379.27 515.00,376.65 515.00,370.11 C515.00,366.36 512.25,364.00 507.90,364.00 C501.41,364.00 498.89,369.98 503.45,374.55 ZM 287.41 660.06 C292.53,661.28 293.86,661.10 298.91,658.55 C301.96,657.00 304.55,654.74 305.91,652.43 C307.83,649.17 307.88,648.84 306.29,649.51 C305.30,649.93 299.37,651.94 293.10,653.98 C281.58,657.73 280.86,658.49 287.41,660.06 ZM 151.10 670.96 C153.52,672.06 156.95,672.97 158.73,672.98 C162.15,673.00 170.00,670.28 170.00,669.07 C170.00,668.11 145.69,664.05 144.82,664.86 C143.59,666.00 146.59,668.92 151.10,670.96 ZM 146.45 566.59 C149.88,568.09 151.50,568.24 154.75,567.37 C158.47,566.37 157.33,564.68 150.44,561.03 C146.85,559.12 143.18,556.75 142.30,555.78 C140.02,553.26 138.00,553.56 138.00,556.42 C138.00,559.49 142.46,564.86 146.45,566.59 ZM 198.60 675.53 C203.14,677.16 206.95,676.64 212.43,673.65 C219.62,669.71 218.32,669.03 204.82,669.68 C198.04,670.01 192.30,670.45 192.06,670.66 C191.16,671.45 194.83,674.18 198.60,675.53 ZM 177.42 579.03 C181.20,580.56 186.42,580.04 190.00,577.78 C193.43,575.61 193.45,575.56 191.00,575.23 C189.62,575.04 184.81,573.97 180.30,572.84 C175.79,571.72 171.58,570.97 170.94,571.19 C169.45,571.68 174.57,577.88 177.42,579.03 ZM 486.46 640.16 C489.65,642.14 497.07,642.36 497.67,640.50 C497.84,639.95 494.95,637.82 491.24,635.77 C487.53,633.72 483.04,631.09 481.25,629.92 C478.02,627.82 478.00,627.82 478.00,629.83 C478.00,632.30 482.35,637.62 486.46,640.16 ZM 241.25 669.78 C244.44,671.32 252.49,671.24 256.28,669.64 C259.52,668.27 263.71,664.38 262.87,663.53 C262.62,663.29 258.83,663.73 254.46,664.52 C250.08,665.30 244.81,666.21 242.75,666.52 C238.47,667.17 238.00,668.21 241.25,669.78 ZM 325.46 642.93 C326.67,644.90 334.49,644.15 338.09,641.72 C340.98,639.77 346.47,632.14 345.60,631.27 C345.37,631.04 326.41,640.61 325.15,641.59 C324.96,641.74 325.10,642.35 325.46,642.93 ZM 110.37 659.11 C112.79,660.60 114.98,660.98 120.00,660.77 C123.57,660.62 126.42,660.08 126.32,659.56 C126.17,658.81 115.19,654.42 105.75,651.34 C101.87,650.07 105.43,656.06 110.37,659.11 ZM 613.00 582.28 C616.94,583.76 622.94,582.96 625.69,580.58 L 628.50 578.17 L 626.00 577.64 C621.39,576.67 606.00,576.21 606.00,577.04 C606.00,577.94 610.59,581.37 613.00,582.28 ZM 525.50 658.07 C529.59,659.06 530.00,659.03 534.00,657.54 C536.29,656.68 536.98,656.05 536.00,655.72 C520.71,650.50 515.69,648.98 515.25,649.41 C514.41,650.26 517.80,654.82 520.25,656.14 C521.49,656.80 523.85,657.67 525.50,658.07 ZM 645.94 579.15 C647.47,580.39 649.85,581.00 653.15,581.00 C657.50,581.00 658.57,580.54 662.28,577.08 C664.60,574.92 666.18,572.85 665.81,572.47 C665.43,572.10 662.29,572.73 658.81,573.87 C655.34,575.01 650.51,576.25 648.08,576.63 L 643.66 577.31 ZM 81.48 644.07 C83.14,644.47 84.58,644.84 84.67,644.90 C85.21,645.23 88.00,643.66 88.00,643.03 C88.00,642.14 72.30,632.00 70.93,632.00 C69.65,632.00 69.75,632.67 71.59,636.54 C73.35,640.26 76.92,642.98 81.48,644.07 ZM 211.69 581.96 C215.04,582.94 218.45,582.35 222.42,580.12 C228.13,576.91 226.86,576.00 216.69,576.00 C209.41,576.00 207.09,576.33 206.67,577.43 C206.00,579.15 207.89,580.85 211.69,581.96 ZM 120.50 543.05 C122.76,543.98 126.00,544.25 126.00,543.51 C126.00,543.23 123.71,540.20 120.90,536.76 C118.10,533.31 115.33,529.49 114.74,528.25 C113.26,525.12 112.00,525.44 112.00,528.93 C112.00,534.68 115.89,541.14 120.50,543.05 ZM 746.04 643.25 C746.02,643.66 747.70,644.00 749.77,644.00 C754.50,644.00 759.90,640.45 762.49,635.65 C764.45,632.01 763.96,629.79 761.59,631.54 C760.87,632.07 757.09,634.75 753.19,637.50 C749.28,640.25 746.07,642.84 746.04,643.25 ZM 560.50 668.42 C565.29,670.92 579.42,670.08 576.79,667.46 C575.73,666.40 554.95,662.28 554.48,663.04 C553.92,663.94 556.72,666.45 560.50,668.42 ZM 711.09 661.13 C715.48,662.35 719.49,662.02 722.98,660.15 C726.71,658.15 730.78,653.44 729.70,652.37 C729.34,652.01 726.22,652.93 722.77,654.42 C719.32,655.91 714.74,657.88 712.59,658.79 C708.87,660.37 708.80,660.49 711.09,661.13 ZM 455.10 616.92 C456.97,618.06 459.85,618.98 461.50,618.96 L 464.50 618.94 L 461.89 616.72 C453.14,609.28 447.68,605.00 446.94,605.00 C445.77,605.00 447.71,610.05 449.89,612.67 C450.88,613.87 453.22,615.78 455.10,616.92 ZM 680.01 566.25 C680.00,566.66 681.81,567.00 684.01,567.00 C687.16,567.00 688.79,566.30 691.53,563.75 C693.46,561.96 695.45,559.04 695.95,557.25 C696.99,553.55 696.13,553.10 693.52,555.98 C692.54,557.06 689.10,559.65 685.88,561.73 C682.65,563.80 680.01,565.84 680.01,566.25 ZM 603.25 674.07 C606.38,675.52 608.65,675.88 611.88,675.44 C617.13,674.72 619.00,674.07 619.00,672.95 C619.00,672.14 616.49,671.70 604.75,670.46 C597.73,669.72 597.11,671.22 603.25,674.07 ZM 101.99 510.49 C104.32,512.97 106.01,513.71 105.99,512.25 C105.98,511.84 104.90,508.14 103.59,504.04 C100.52,494.41 98.58,493.45 99.18,501.86 C99.52,506.51 100.19,508.57 101.99,510.49 ZM 710.34 540.05 C706.97,543.78 706.90,544.00 709.04,544.00 C712.24,544.00 718.75,536.87 719.57,532.46 C720.51,527.45 719.71,527.33 716.60,532.03 C715.12,534.27 712.30,537.87 710.34,540.05 ZM 363.17 620.10 C362.54,621.79 366.31,621.01 370.42,618.60 C372.76,617.23 375.51,614.43 376.82,612.10 C378.09,609.84 378.88,608.00 378.58,608.00 C377.69,608.00 363.53,619.11 363.17,620.10 ZM 642.00 673.55 C643.38,674.31 646.21,674.95 648.30,674.96 C652.40,675.00 658.40,672.46 657.53,671.05 C657.01,670.21 647.04,670.59 642.00,671.64 L 639.50 672.16 ZM 677.00 670.83 C680.44,672.27 682.52,672.23 686.28,670.65 C690.04,669.08 693.14,665.97 690.87,666.04 C690.12,666.07 686.12,666.92 682.00,667.93 C675.17,669.62 674.72,669.88 677.00,670.83 ZM 98.61 472.42 C99.80,475.52 101.00,473.93 101.01,469.25 C101.01,466.64 101.49,462.77 102.08,460.66 C103.48,455.61 102.61,454.95 100.06,459.14 C98.06,462.42 97.33,469.09 98.61,472.42 ZM 54.50 618.04 C58.43,619.68 58.19,618.92 52.80,612.81 C46.47,605.63 44.44,604.38 46.06,608.66 C47.33,612.03 51.69,616.87 54.50,618.04 ZM 726.48 511.50 C726.00,512.94 726.68,512.59 728.91,510.23 C731.59,507.40 732.00,506.24 732.00,501.48 C732.00,498.47 731.66,496.00 731.25,496.00 C730.84,496.01 729.74,499.04 728.82,502.75 C727.90,506.46 726.84,510.40 726.48,511.50 ZM 731.68 472.00 C732.64,474.62 734.26,468.20 733.57,464.52 C732.83,460.58 729.09,455.37 729.03,458.20 C729.00,460.11 730.84,469.69 731.68,472.00 ZM 780.00 615.18 C780.00,616.99 782.02,615.80 784.93,612.27 C787.88,608.69 788.86,606.00 787.21,606.00 C786.28,606.00 780.00,614.00 780.00,615.18 Z" fill="rgb(5,27,31)"/>
<path d="M 158.73 336.40 C127.04,344.65 94.19,326.98 83.28,295.81 C79.87,286.05 79.01,268.82 81.44,258.50 C83.91,247.98 89.49,237.58 96.85,229.77 C104.14,222.04 111.22,217.44 122.00,213.43 C128.74,210.91 130.81,210.62 142.50,210.57 C152.68,210.51 156.69,210.90 161.00,212.36 C180.75,219.05 196.05,234.59 202.56,254.57 C205.04,262.18 205.47,265.05 205.44,274.00 C205.38,290.57 200.87,303.58 191.04,315.55 C182.91,325.46 170.83,333.25 158.73,336.40 ZM 148.00 280.00 L 148.00 294.00 L 163.88 294.00 L 164.49 289.25 C164.83,286.64 165.32,283.49 165.57,282.25 C166.03,280.05 165.84,280.00 157.02,280.00 ZM 148.00 255.00 L 148.00 269.00 L 165.00 269.00 L 165.00 265.12 C165.00,262.99 164.72,259.84 164.38,258.12 L 163.75 255.00 L 148.00 255.00 ZM 121.53 289.75 L 122.18 294.00 L 137.00 294.00 L 137.00 280.00 L 119.84 280.00 L 120.37 282.75 C120.66,284.26 121.18,287.41 121.53,289.75 ZM 175.83 262.00 L 176.16 269.00 L 184.58 269.00 L 184.93 269.00 C189.55,269.00 191.84,269.00 192.65,267.91 C193.44,266.83 192.81,264.71 191.56,260.50 L 191.46 260.18 L 189.92 255.00 L 182.71 255.00 L 175.50 255.00 ZM 92.54 267.25 C92.23,268.81 93.12,269.00 100.59,269.00 C107.91,269.00 109.01,268.77 109.07,267.25 C109.11,266.29 109.48,263.14 109.89,260.25 L 110.64 255.00 L 95.20 255.00 L 94.04 260.25 C93.41,263.14 92.73,266.29 92.54,267.25 ZM 121.01 265.75 L 121.00 269.00 L 137.00 269.00 L 137.00 255.00 L 122.26 255.00 L 121.64 258.75 C121.30,260.81 121.02,263.96 121.01,265.75 ZM 95.05 290.20 L 96.08 294.00 L 103.04 294.00 C103.46,294.00 103.85,294.00 104.22,294.00 C107.15,294.01 108.69,294.02 109.42,293.25 C110.23,292.39 110.00,290.55 109.52,286.66 C109.47,286.21 109.41,285.75 109.35,285.25 L 108.72 280.00 L 92.75 280.00 L 93.39 283.20 C93.74,284.95 94.49,288.10 95.05,290.20 ZM 175.68 289.25 L 175.25 294.00 L 182.15 294.00 C189.87,294.00 190.17,293.70 191.94,284.25 L 192.74 280.00 L 184.89 280.00 C184.46,280.00 184.05,280.00 183.66,280.00 C180.21,279.99 178.43,279.98 177.43,280.86 C176.23,281.91 176.14,284.22 175.68,289.25 ZM 148.00 234.00 L 148.00 245.00 L 154.57 245.00 C160.91,245.00 161.11,244.92 160.47,242.75 C158.20,235.05 151.17,223.00 148.95,223.00 C148.41,223.00 148.00,227.73 148.00,234.00 ZM 148.00 314.04 C148.00,323.69 148.07,324.03 149.96,323.02 C153.68,321.03 158.09,313.98 160.45,306.25 C161.11,304.08 160.91,304.00 154.57,304.00 L 148.00 304.00 ZM 125.00 243.93 C125.00,244.57 127.41,245.00 131.00,245.00 L 137.00 245.00 L 137.00 222.63 L 134.03 225.48 C131.40,227.99 125.00,241.08 125.00,243.93 ZM 132.67 321.18 C134.73,323.28 136.54,325.00 136.70,325.00 C136.87,325.00 137.00,320.27 137.00,314.50 L 137.00 304.00 L 131.00 304.00 C126.35,304.00 125.00,304.34 125.00,305.49 C125.00,309.00 129.23,317.65 132.67,321.18 ZM 101.00 244.43 C101.00,244.74 103.62,245.00 106.82,245.00 L 112.65 245.00 L 115.70 237.00 C117.38,232.60 118.43,229.00 118.04,229.00 C115.25,229.00 101.00,241.91 101.00,244.43 ZM 171.97 243.25 C172.00,244.72 172.96,245.00 178.00,245.00 C181.30,245.00 184.00,244.74 184.00,244.42 C184.00,242.09 169.16,228.00 166.71,228.00 C166.42,228.00 167.48,231.04 169.07,234.75 C170.65,238.46 171.96,242.29 171.97,243.25 ZM 167.98 316.25 C166.99,318.31 166.41,320.00 166.69,320.00 C168.68,320.00 184.00,306.53 184.00,304.78 C184.00,304.35 181.37,304.00 178.16,304.00 L 172.32 304.00 L 171.05 308.25 C170.36,310.59 168.98,314.19 167.98,316.25 ZM 112.45 316.09 C115.23,318.22 117.77,319.97 118.10,319.98 C118.43,319.99 117.31,316.41 115.60,312.03 L 112.50 304.05 L 107.25 304.03 C104.36,304.01 102.00,304.26 102.00,304.57 C102.00,306.08 107.95,312.63 112.45,316.09 Z" fill="rgb(75,138,137)"/>
<path d="M 599.50 659.47 C562.07,654.60 535.56,646.78 506.50,632.03 C481.33,619.25 465.01,607.98 448.67,592.07 C437.29,581.00 427.00,567.90 420.71,556.50 C416.77,549.36 415.98,548.50 413.40,548.50 C410.94,548.50 410.13,549.24 407.96,553.50 C391.51,585.67 367.15,608.53 328.50,628.06 C290.51,647.26 251.32,657.01 205.50,658.66 C152.44,660.57 100.43,644.55 70.87,617.17 C42.16,590.60 33.16,563.26 45.27,539.44 C51.33,527.50 66.61,519.53 73.78,524.56 C77.19,526.95 76.47,530.16 70.99,537.02 C64.42,545.23 62.32,551.97 64.05,559.30 C67.02,571.88 77.77,585.77 92.27,595.76 C101.35,602.01 105.25,603.95 116.50,607.79 C141.53,616.35 171.46,616.56 196.50,608.36 C228.65,597.82 264.19,572.10 280.44,547.61 C286.61,538.31 294.28,523.36 295.89,517.50 C297.49,511.68 297.30,506.05 295.49,505.36 C292.84,504.34 289.11,507.84 283.36,516.78 C276.56,527.34 262.26,542.23 251.85,549.59 C231.37,564.06 211.57,568.67 187.70,564.51 C168.85,561.22 150.66,551.89 136.58,538.29 C123.63,525.78 116.54,514.33 112.96,500.18 C107.60,479.00 109.87,461.46 121.71,432.63 C133.60,403.64 134.07,394.12 124.14,382.81 C117.87,375.67 111.68,375.38 107.49,382.02 C105.46,385.23 104.39,386.00 101.94,386.00 C92.45,386.00 91.09,371.15 99.91,363.73 C110.29,354.99 130.27,359.22 143.34,372.92 C157.51,387.77 159.29,403.03 150.43,433.50 C146.25,447.88 145.73,450.82 145.27,462.56 C144.95,470.71 145.19,477.66 145.92,481.06 C149.28,496.79 163.31,514.30 178.28,521.45 C192.67,528.33 213.23,530.77 229.18,527.50 C236.87,525.92 255.68,517.27 255.26,515.50 C255.14,514.95 250.41,514.25 244.76,513.94 C227.85,513.02 214.60,507.16 205.14,496.43 C187.82,476.79 189.35,447.84 208.25,437.43 C212.65,435.00 214.66,434.53 220.67,434.52 C229.00,434.50 232.33,436.27 235.35,442.34 C237.09,445.84 237.09,446.21 235.51,448.62 C234.24,450.56 233.30,451.03 231.67,450.54 C224.79,448.49 222.35,448.72 218.97,451.74 C216.04,454.36 215.60,455.42 215.20,460.85 C214.62,468.92 217.95,476.05 225.31,482.50 C232.04,488.38 239.33,491.15 249.72,491.76 C257.60,492.23 258.28,492.09 265.72,488.56 C278.80,482.37 283.93,475.71 284.78,463.83 C285.44,454.55 283.66,446.19 276.82,426.50 C263.50,388.18 260.79,369.96 264.59,344.36 C271.38,298.63 298.72,259.74 337.95,240.03 C352.53,232.70 373.89,226.32 392.00,223.89 C403.61,222.33 427.50,222.35 439.00,223.93 C466.41,227.69 491.81,237.54 511.50,252.03 C529.61,265.36 548.55,291.45 555.89,313.18 C562.21,331.86 563.36,338.95 563.38,359.00 C563.39,375.62 563.12,378.62 560.74,388.50 C557.54,401.73 554.21,412.13 549.05,424.94 C541.36,444.02 540.81,446.04 540.26,457.01 C539.80,466.39 539.98,468.09 541.99,472.75 C549.06,489.18 574.67,497.83 592.24,489.73 C598.15,487.01 606.87,479.57 609.89,474.67 C614.85,466.65 614.54,456.15 609.23,451.96 C607.03,450.22 605.56,449.89 601.62,450.27 C592.54,451.13 590.47,445.19 597.40,438.18 C601.13,434.40 607.24,432.59 612.85,433.61 C629.89,436.70 639.82,456.90 634.45,477.53 C632.44,485.26 628.58,491.15 620.24,499.19 C608.06,510.95 597.64,514.56 578.25,513.73 C571.51,513.45 566.00,513.56 566.00,513.99 C566.00,515.26 572.08,519.51 578.63,522.82 C592.30,529.71 611.72,532.39 627.80,529.60 C646.29,526.39 655.17,521.79 668.58,508.50 C676.27,500.88 678.07,498.45 680.37,492.63 C686.14,478.04 686.18,455.30 680.49,437.07 C674.84,419.01 673.79,413.06 674.21,401.50 C674.57,391.85 674.98,389.70 677.63,383.99 C683.47,371.42 696.07,360.72 708.87,357.45 C720.87,354.39 731.19,359.02 735.53,369.43 C738.60,376.76 734.91,385.02 728.58,384.98 C724.69,384.97 723.68,384.28 721.61,380.25 C720.12,377.33 719.50,377.00 715.55,377.00 C709.99,377.00 706.07,380.10 702.56,387.30 C697.54,397.59 698.06,404.47 705.20,421.93 C717.67,452.42 720.68,462.70 721.62,478.00 C722.08,485.64 721.78,489.35 720.05,496.96 C716.22,513.84 710.56,524.64 698.88,537.39 C687.29,550.04 671.55,559.94 656.50,564.05 C646.77,566.71 627.15,567.75 617.75,566.12 C602.91,563.53 581.38,553.96 568.38,544.16 C558.69,536.86 546.23,523.99 541.35,516.24 C534.79,505.82 530.92,502.98 528.03,506.46 C525.01,510.11 533.03,529.91 544.07,546.02 C559.25,568.18 581.94,587.19 608.50,599.97 C630.77,610.69 647.15,614.88 670.00,615.69 C683.33,616.17 687.11,615.94 697.00,614.06 C703.33,612.85 711.88,610.72 716.00,609.32 C750.58,597.57 774.07,570.02 769.02,547.12 C768.01,542.53 766.95,540.72 763.24,537.24 C759.58,533.81 758.71,532.35 758.79,529.75 C759.05,520.58 771.38,521.02 781.96,530.58 C791.72,539.40 795.31,555.45 791.52,573.33 C789.69,581.96 786.13,588.99 778.37,599.33 C764.64,617.61 749.42,630.06 727.50,640.94 C699.18,654.99 669.12,661.11 629.54,660.89 C618.52,660.83 605.00,660.19 599.50,659.47 ZM 652.36 293.79 C622.11,263.36 620.89,261.68 620.78,249.99 C620.74,244.89 621.28,242.37 623.31,238.37 C628.12,228.88 634.99,224.99 646.87,225.02 C656.70,225.05 661.18,227.07 669.84,235.37 C679.32,244.46 679.44,244.46 688.47,236.09 C698.28,226.99 702.78,225.00 713.52,225.00 C721.24,225.00 722.10,225.22 726.64,228.32 C737.42,235.69 740.72,249.87 734.59,262.50 C732.19,267.44 727.05,273.16 705.59,294.79 L 679.50 321.07 ZM 340.77 411.41 C358.87,402.57 361.64,371.31 345.57,357.19 C334.40,347.39 317.25,349.66 308.77,362.05 C296.27,380.32 302.63,406.56 321.17,413.15 C327.74,415.48 333.46,414.97 340.77,411.41 ZM 505.67 413.50 C512.34,411.52 519.09,405.48 522.11,398.79 C524.13,394.30 524.49,391.92 524.50,383.00 C524.50,370.76 522.86,366.06 516.01,358.63 C510.55,352.70 504.95,350.55 496.90,351.28 C478.76,352.92 467.41,374.20 473.59,395.00 C475.81,402.47 483.53,410.46 491.03,413.05 C497.72,415.36 499.28,415.40 505.67,413.50 ZM 424.77 439.47 C434.99,436.44 443.33,427.72 442.80,420.63 C442.25,413.36 436.60,413.16 431.50,420.23 C426.89,426.62 422.90,428.50 413.93,428.50 C407.34,428.50 405.81,428.14 402.20,425.75 C399.91,424.24 397.14,421.23 396.04,419.07 C393.62,414.34 390.86,413.21 387.33,415.52 C385.09,416.98 384.83,417.71 385.30,421.17 C387.18,435.19 407.50,444.61 424.77,439.47 ZM 311.08 320.37 C314.43,316.73 319.00,315.00 325.25,315.00 C332.16,315.00 335.23,312.97 334.81,308.68 C334.26,303.05 325.93,301.35 314.94,304.61 C308.73,306.45 301.00,313.29 301.00,316.93 C301.00,323.20 306.68,325.14 311.08,320.37 ZM 526.00 322.00 C528.38,319.62 528.50,317.87 526.54,314.07 C522.96,307.16 512.31,302.33 502.67,303.26 C496.88,303.81 493.51,306.79 494.59,310.39 C495.60,313.74 496.39,314.14 503.13,314.72 C510.44,315.35 514.37,317.02 518.19,321.12 C521.37,324.51 523.27,324.73 526.00,322.00 ZM 287.41 660.06 C280.86,658.49 281.58,657.73 293.10,653.98 C299.37,651.94 305.30,649.93 306.29,649.51 C307.88,648.84 307.83,649.17 305.91,652.43 C304.55,654.74 301.96,657.00 298.91,658.55 C293.86,661.10 292.53,661.28 287.41,660.06 ZM 151.10 670.96 C146.59,668.92 143.59,666.00 144.82,664.86 C145.69,664.05 170.00,668.11 170.00,669.07 C170.00,670.28 162.15,673.00 158.73,672.98 C156.95,672.97 153.52,672.06 151.10,670.96 ZM 146.45 566.59 C142.46,564.86 138.00,559.49 138.00,556.42 C138.00,553.56 140.02,553.26 142.30,555.78 C143.18,556.75 146.85,559.12 150.44,561.03 C157.33,564.68 158.47,566.37 154.75,567.37 C151.50,568.24 149.88,568.09 146.45,566.59 ZM 198.60 675.53 C194.83,674.18 191.16,671.45 192.06,670.66 C192.30,670.45 198.04,670.01 204.82,669.68 C218.32,669.03 219.62,669.71 212.43,673.65 C206.95,676.64 203.14,677.16 198.60,675.53 ZM 177.42 579.03 C174.57,577.88 169.45,571.68 170.94,571.19 C171.58,570.97 175.79,571.72 180.30,572.84 C184.81,573.97 189.62,575.04 191.00,575.23 C193.45,575.56 193.43,575.61 190.00,577.78 C186.42,580.04 181.20,580.56 177.42,579.03 ZM 486.46 640.16 C482.35,637.62 478.00,632.30 478.00,629.83 C478.00,627.82 478.02,627.82 481.25,629.92 C483.04,631.09 487.53,633.72 491.24,635.77 C494.95,637.82 497.84,639.95 497.67,640.50 C497.07,642.36 489.65,642.14 486.46,640.16 ZM 241.25 669.78 C238.00,668.21 238.47,667.17 242.75,666.52 C244.81,666.21 250.08,665.30 254.46,664.52 C258.83,663.73 262.62,663.29 262.87,663.53 C263.71,664.38 259.52,668.27 256.28,669.64 C252.49,671.24 244.44,671.32 241.25,669.78 ZM 325.46 642.93 C325.10,642.35 324.96,641.74 325.15,641.59 C326.41,640.61 345.37,631.04 345.60,631.27 C346.47,632.14 340.98,639.77 338.09,641.72 C334.49,644.15 326.67,644.90 325.46,642.93 ZM 110.37 659.11 C105.43,656.06 101.87,650.07 105.75,651.34 C115.19,654.42 126.17,658.81 126.32,659.56 C126.42,660.08 123.57,660.62 120.00,660.77 C114.98,660.98 112.79,660.60 110.37,659.11 ZM 613.00 582.28 C610.59,581.37 606.00,577.94 606.00,577.04 C606.00,576.21 621.39,576.67 626.00,577.64 L 628.50 578.17 L 625.69 580.58 C622.94,582.96 616.94,583.76 613.00,582.28 ZM 525.50 658.07 C523.85,657.67 521.49,656.80 520.25,656.14 C517.80,654.82 514.41,650.26 515.25,649.41 C515.69,648.98 520.71,650.50 536.00,655.72 C536.98,656.05 536.29,656.68 534.00,657.54 C530.00,659.03 529.59,659.06 525.50,658.07 ZM 645.94 579.15 L 643.66 577.31 L 648.08 576.63 C650.51,576.25 655.34,575.01 658.81,573.87 C662.29,572.73 665.43,572.10 665.81,572.47 C666.18,572.85 664.60,574.92 662.28,577.08 C658.57,580.54 657.50,581.00 653.15,581.00 C649.85,581.00 647.47,580.39 645.94,579.15 ZM 81.48 644.07 C76.92,642.98 73.35,640.26 71.59,636.54 C69.75,632.67 69.65,632.00 70.93,632.00 C72.30,632.00 88.00,642.14 88.00,643.03 C88.00,643.66 85.21,645.23 84.67,644.90 C84.58,644.84 83.14,644.47 81.48,644.07 ZM 211.69 581.96 C207.89,580.85 206.00,579.15 206.67,577.43 C207.09,576.33 209.41,576.00 216.69,576.00 C226.86,576.00 228.13,576.91 222.42,580.12 C218.45,582.35 215.04,582.94 211.69,581.96 ZM 120.50 543.05 C115.89,541.14 112.00,534.68 112.00,528.93 C112.00,525.44 113.26,525.12 114.74,528.25 C115.33,529.49 118.10,533.31 120.90,536.76 C123.71,540.20 126.00,543.23 126.00,543.51 C126.00,544.25 122.76,543.98 120.50,543.05 ZM 746.04 643.25 C746.07,642.84 749.28,640.25 753.19,637.50 C757.09,634.75 760.87,632.07 761.59,631.54 C763.96,629.79 764.45,632.01 762.49,635.65 C759.90,640.45 754.50,644.00 749.77,644.00 C747.70,644.00 746.02,643.66 746.04,643.25 ZM 560.50 668.42 C556.72,666.45 553.92,663.94 554.48,663.04 C554.95,662.28 575.73,666.40 576.79,667.46 C579.42,670.08 565.29,670.92 560.50,668.42 ZM 711.09 661.13 C708.80,660.49 708.87,660.37 712.59,658.79 C714.74,657.88 719.32,655.91 722.77,654.42 C726.22,652.93 729.34,652.01 729.70,652.37 C730.78,653.44 726.71,658.15 722.98,660.15 C719.49,662.02 715.48,662.35 711.09,661.13 ZM 455.10 616.92 C453.22,615.78 450.88,613.87 449.89,612.67 C447.71,610.05 445.77,605.00 446.94,605.00 C447.68,605.00 453.14,609.28 461.89,616.72 L 464.50 618.94 L 461.50 618.96 C459.85,618.98 456.97,618.06 455.10,616.92 ZM 680.01 566.25 C680.01,565.84 682.65,563.80 685.88,561.73 C689.10,559.65 692.54,557.06 693.52,555.98 C696.13,553.10 696.99,553.55 695.95,557.25 C695.45,559.04 693.46,561.96 691.53,563.75 C688.79,566.30 687.16,567.00 684.01,567.00 C681.81,567.00 680.00,566.66 680.01,566.25 ZM 603.25 674.07 C597.11,671.22 597.73,669.72 604.75,670.46 C616.49,671.70 619.00,672.14 619.00,672.95 C619.00,674.07 617.13,674.72 611.88,675.44 C608.65,675.88 606.38,675.52 603.25,674.07 ZM 101.99 510.49 C100.19,508.57 99.52,506.51 99.18,501.86 C98.58,493.45 100.52,494.41 103.59,504.04 C104.90,508.14 105.98,511.84 105.99,512.25 C106.01,513.71 104.32,512.97 101.99,510.49 ZM 710.34 540.05 C712.30,537.87 715.12,534.27 716.60,532.03 C719.71,527.33 720.51,527.45 719.57,532.46 C718.75,536.87 712.24,544.00 709.04,544.00 C706.90,544.00 706.97,543.78 710.34,540.05 ZM 363.17 620.10 C363.53,619.11 377.69,608.00 378.58,608.00 C378.88,608.00 378.09,609.84 376.82,612.10 C375.51,614.43 372.76,617.23 370.42,618.60 C366.31,621.01 362.54,621.79 363.17,620.10 ZM 642.00 673.55 L 639.50 672.16 L 642.00 671.64 C647.04,670.59 657.01,670.21 657.53,671.05 C658.40,672.46 652.40,675.00 648.30,674.96 C646.21,674.95 643.38,674.31 642.00,673.55 ZM 677.00 670.83 C674.72,669.88 675.17,669.62 682.00,667.93 C686.12,666.92 690.12,666.07 690.87,666.04 C693.14,665.97 690.04,669.08 686.28,670.65 C682.52,672.23 680.44,672.27 677.00,670.83 ZM 98.61 472.42 C97.33,469.09 98.06,462.42 100.06,459.14 C102.61,454.95 103.48,455.61 102.08,460.66 C101.49,462.77 101.01,466.64 101.01,469.25 C101.00,473.93 99.80,475.52 98.61,472.42 ZM 54.50 618.04 C51.69,616.87 47.33,612.03 46.06,608.66 C44.44,604.38 46.47,605.63 52.80,612.81 C58.19,618.92 58.43,619.68 54.50,618.04 ZM 726.48 511.50 C726.84,510.40 727.90,506.46 728.82,502.75 C729.74,499.04 730.84,496.01 731.25,496.00 C731.66,496.00 732.00,498.47 732.00,501.48 C732.00,506.24 731.59,507.40 728.91,510.23 C726.68,512.59 726.00,512.94 726.48,511.50 ZM 731.68 472.00 C730.84,469.69 729.00,460.11 729.03,458.20 C729.09,455.37 732.83,460.58 733.57,464.52 C734.26,468.20 732.64,474.62 731.68,472.00 ZM 780.00 615.18 C780.00,614.00 786.28,606.00 787.21,606.00 C788.86,606.00 787.88,608.69 784.93,612.27 C782.02,615.80 780.00,616.99 780.00,615.18 Z" fill="rgb(237,185,31)"/>
<path d="M 0.00 627.00 L 0.00 0.00 L 418.00 0.00 L 836.00 0.00 L 836.00 627.00 L 836.00 1254.00 L 418.00 1254.00 L 0.00 1254.00 L 0.00 627.00 ZM 204.78 934.39 C230.70,926.88 254.19,907.61 265.90,884.25 C287.70,840.75 281.52,787.90 250.73,754.49 C237.95,740.61 222.60,731.45 204.50,726.87 C191.28,723.53 166.54,723.51 153.00,726.83 C134.71,731.31 120.20,739.77 107.00,753.62 C95.55,765.64 88.46,777.41 83.45,792.73 C79.95,803.44 79.23,806.98 78.04,819.54 C76.05,840.60 79.91,863.49 88.56,881.85 C100.85,907.92 121.40,925.37 149.56,933.63 C166.39,938.57 189.29,938.88 204.78,934.39 ZM 671.50 937.01 C697.11,934.30 720.79,921.57 736.12,902.27 C746.52,889.19 751.72,878.78 756.76,861.00 C759.29,852.08 759.45,850.24 759.45,831.00 C759.45,811.54 759.31,809.99 756.63,800.50 C749.74,776.11 738.14,757.52 721.40,744.05 C709.24,734.26 698.75,729.68 680.11,726.00 C665.54,723.13 646.19,723.50 633.19,726.90 C622.77,729.63 609.68,735.63 601.65,741.35 C594.15,746.71 582.86,758.45 577.66,766.30 C572.30,774.41 565.63,788.86 562.34,799.50 C559.68,808.14 559.56,809.36 559.53,830.00 C559.50,849.47 559.72,852.35 561.87,860.50 C574.24,907.53 609.86,935.75 659.50,937.84 C661.15,937.91 666.55,937.54 671.50,937.01 ZM 375.36 932.62 C379.00,931.10 379.47,930.15 383.41,916.50 C384.84,911.55 386.92,904.35 388.03,900.50 C389.14,896.65 394.09,879.10 399.03,861.50 C408.13,829.10 412.36,814.23 414.20,808.16 C414.76,806.32 415.54,805.19 415.93,805.66 C416.79,806.68 419.20,814.84 426.97,843.00 C430.23,854.83 435.91,874.85 439.59,887.50 C443.26,900.15 447.14,913.65 448.19,917.50 C450.76,926.87 452.99,931.22 456.00,932.76 C457.83,933.69 463.65,933.96 477.65,933.77 C500.05,933.45 499.75,933.58 502.83,923.16 C505.15,915.31 514.10,882.94 517.11,871.50 C518.27,867.10 519.81,861.47 520.53,859.00 C521.26,856.53 523.49,848.42 525.50,841.00 C527.51,833.58 529.75,825.47 530.48,823.00 C531.21,820.53 533.92,810.85 536.51,801.50 C539.09,792.15 542.03,781.80 543.04,778.50 C544.05,775.20 546.29,767.33 548.02,761.00 C549.74,754.67 552.02,746.83 553.08,743.56 C555.28,736.76 555.54,731.94 553.80,730.20 C552.94,729.34 546.47,729.00 531.02,729.00 C513.17,729.00 509.06,729.27 507.24,730.55 C504.86,732.21 503.89,735.21 499.49,754.50 C495.92,770.12 489.71,795.86 481.32,829.84 L 474.56 857.19 L 472.40 850.34 C471.21,846.58 469.02,839.22 467.53,834.00 C466.04,828.78 464.00,821.80 463.01,818.50 C462.02,815.20 458.88,803.95 456.03,793.50 C453.18,783.05 450.26,772.47 449.55,770.00 C448.83,767.53 447.02,761.00 445.51,755.50 C440.56,737.38 438.96,733.11 436.29,731.01 C433.94,729.17 432.25,729.00 415.94,729.00 C398.41,729.00 398.11,729.04 395.17,731.51 C393.09,733.26 391.83,735.59 390.98,739.26 C390.31,742.14 387.06,754.17 383.76,766.00 C380.46,777.83 377.41,788.85 377.00,790.50 C375.37,796.96 362.75,839.96 360.20,847.75 C358.72,852.28 357.22,856.00 356.89,856.00 C356.55,856.00 355.71,853.19 355.02,849.75 C354.34,846.31 352.93,840.12 351.90,836.00 C350.88,831.88 346.86,814.78 342.99,798.00 C332.78,753.80 332.23,751.35 330.31,742.00 C327.58,728.68 328.22,729.00 304.13,729.00 C293.15,729.00 283.44,729.28 282.55,729.62 C278.74,731.08 278.85,733.47 283.42,749.71 C288.07,766.22 291.23,778.14 298.50,806.50 C300.89,815.85 304.41,829.35 306.32,836.50 C308.22,843.65 311.90,857.83 314.50,868.00 C319.25,886.66 326.50,913.43 329.79,924.50 C332.43,933.38 334.10,934.00 355.28,934.00 C367.27,934.00 373.00,933.61 375.36,932.62 ZM 214.00 684.93 C216.48,683.81 220.57,680.86 223.11,678.38 L 227.71 673.86 L 232.57 676.94 C245.47,685.12 258.51,683.63 269.43,672.72 L 275.36 666.80 L 278.93 668.54 C280.89,669.49 285.67,670.49 289.54,670.76 C295.32,671.15 297.51,670.84 301.75,669.01 C307.01,666.75 315.01,659.27 317.12,654.64 C318.18,652.30 318.38,652.26 321.58,653.60 C333.41,658.54 349.26,650.59 354.94,636.87 L 357.26 631.25 L 364.06 630.76 C368.96,630.41 372.10,629.55 375.34,627.65 C383.89,622.64 390.00,612.85 390.00,604.18 C390.00,601.25 391.11,599.56 397.35,593.03 C401.39,588.81 406.58,582.57 408.88,579.17 C411.19,575.78 413.41,573.00 413.82,573.00 C414.23,573.00 415.43,574.46 416.49,576.25 C417.54,578.04 422.30,583.55 427.06,588.50 C435.68,597.46 435.73,597.53 436.25,603.57 C437.51,618.09 448.66,629.04 462.50,629.37 C466.65,629.47 468.00,629.87 468.02,631.00 C468.07,633.91 471.81,640.74 475.24,644.17 C477.15,646.08 480.91,648.68 483.61,649.95 C487.86,651.94 489.58,652.18 496.67,651.74 C504.39,651.26 504.87,651.35 505.39,653.37 C506.44,657.49 512.31,663.23 518.43,666.13 C525.53,669.48 532.69,669.91 539.10,667.34 C543.07,665.76 543.29,665.77 544.28,667.59 C546.39,671.47 553.46,677.03 558.90,679.07 C566.54,681.95 574.65,681.42 582.30,677.56 L 587.97 674.69 L 590.02 677.30 C591.15,678.74 595.01,681.36 598.60,683.12 C608.83,688.16 617.48,687.37 628.10,680.42 C630.61,678.78 630.83,678.81 634.54,681.33 C640.63,685.47 647.31,686.55 654.89,684.61 C658.37,683.72 662.56,682.02 664.21,680.85 L 667.22 678.71 L 673.64 680.98 C683.65,684.51 691.91,682.27 699.38,674.00 L 703.13 669.85 L 707.74 671.43 C713.73,673.47 718.34,673.42 724.43,671.25 C730.05,669.26 737.87,662.21 740.06,657.18 C741.45,653.99 741.66,653.89 745.77,654.50 C757.34,656.21 770.86,646.76 774.49,634.42 C776.20,628.60 776.45,628.29 780.43,627.23 C786.13,625.71 793.34,619.09 796.44,612.53 C798.57,608.03 799.00,605.67 799.00,598.50 C799.00,592.13 799.52,588.64 800.99,585.19 C809.92,564.12 806.50,538.08 792.77,522.47 C784.13,512.66 766.49,508.12 756.47,513.12 C749.69,516.51 746.71,520.84 746.19,528.06 C745.62,535.91 746.38,538.36 750.89,543.31 C753.00,545.61 755.27,548.56 755.95,549.86 C759.98,557.55 749.62,574.75 734.46,585.57 C725.64,591.86 714.54,596.74 701.07,600.23 C690.63,602.94 687.93,603.24 673.50,603.29 C658.79,603.34 656.49,603.10 645.00,600.21 C638.12,598.49 630.37,596.25 627.76,595.24 L 623.02 593.40 L 626.57 592.11 C628.53,591.40 631.64,589.50 633.48,587.88 L 636.83 584.94 L 640.46 587.41 C649.48,593.53 661.26,592.49 669.56,584.84 C671.96,582.63 674.17,580.03 674.48,579.07 C674.94,577.61 676.23,577.33 682.29,577.39 C688.51,577.44 690.24,577.05 694.32,574.66 C699.90,571.39 704.68,565.24 706.28,559.25 C707.14,556.01 707.90,555.00 709.46,554.99 C712.67,554.98 721.61,549.38 724.52,545.56 C727.69,541.40 730.00,534.23 730.00,528.53 C730.00,524.92 730.64,523.72 734.95,519.25 C738.19,515.88 740.29,512.64 741.06,509.81 C742.70,503.73 741.76,492.95 739.19,488.60 L 737.11 485.07 L 740.24 479.00 C745.87,468.09 743.91,455.52 735.42,448.06 C732.10,445.15 732.00,444.85 732.60,439.77 C733.82,429.38 728.82,420.48 718.96,415.48 C714.52,413.23 714.24,412.83 713.03,407.12 C711.78,401.27 712.13,395.93 713.93,393.09 C714.66,391.93 715.40,392.16 717.99,394.34 C721.88,397.61 724.79,398.40 730.60,397.74 C737.50,396.96 743.88,392.47 747.30,385.98 C749.88,381.08 750.15,379.75 749.76,373.46 C749.25,365.11 746.37,359.44 739.38,353.00 C733.12,347.22 727.07,344.75 717.84,344.21 C695.04,342.86 671.00,361.19 663.33,385.76 C660.96,393.39 660.78,395.12 661.28,405.80 C661.73,415.17 662.58,420.09 665.55,430.50 C670.64,448.32 671.92,455.13 671.96,464.70 C672.01,474.87 670.62,481.75 666.95,489.50 C662.06,499.83 648.35,511.10 636.50,514.53 C630.63,516.23 619.00,517.93 619.01,517.08 C619.01,516.76 620.58,515.43 622.49,514.13 C624.41,512.83 629.17,508.39 633.09,504.27 C642.21,494.67 646.58,485.84 648.20,473.71 C651.13,451.78 642.02,433.03 624.19,424.30 C619.25,421.88 617.32,421.52 609.50,421.52 C601.69,421.52 599.83,421.87 595.44,424.18 C581.43,431.55 576.97,446.68 585.73,457.09 C588.77,460.71 593.52,463.00 597.97,463.00 C602.14,463.00 601.95,465.53 597.39,470.85 C592.80,476.22 587.17,479.08 579.93,479.74 C571.60,480.50 565.83,479.32 560.48,475.78 C553.97,471.46 552.60,467.86 553.30,456.88 C553.74,450.05 554.72,446.00 558.01,437.38 C573.16,397.71 576.12,386.04 576.77,363.29 C577.48,338.33 573.96,320.86 563.56,297.86 C538.03,241.39 484.65,209.61 415.50,209.70 C365.68,209.76 328.21,223.51 297.64,252.95 C281.48,268.50 271.58,282.49 263.10,301.77 C251.86,327.32 247.72,356.23 251.51,382.86 C253.25,395.11 254.81,400.75 264.08,428.16 C273.33,455.54 274.23,465.01 268.24,472.12 C261.81,479.76 247.77,481.72 237.88,476.34 C232.95,473.66 227.00,467.17 227.00,464.47 C227.00,463.68 229.16,463.08 233.01,462.81 C244.59,461.97 250.43,454.02 248.57,441.63 C246.49,427.76 227.66,418.09 211.33,422.51 C194.17,427.15 182.26,442.02 180.51,461.00 C179.56,471.32 181.26,479.71 186.51,490.60 C190.24,498.33 192.11,500.84 199.03,507.35 C206.83,514.68 207.04,515.00 204.19,515.00 C199.65,515.00 188.21,511.22 181.48,507.49 C171.84,502.15 166.51,496.82 162.27,488.24 L 158.50 480.60 L 158.51 465.05 C158.53,449.61 158.56,449.40 162.80,435.50 C167.98,418.51 169.76,405.46 168.26,395.49 C164.60,371.29 148.86,354.34 124.00,347.82 C110.44,344.27 97.74,347.30 89.58,356.02 C82.08,364.04 79.18,373.08 81.15,382.29 C84.11,396.06 102.01,403.57 112.60,395.49 C115.52,393.27 116.39,393.00 117.09,394.12 C118.94,397.03 119.27,402.58 117.90,407.96 C116.63,412.98 116.09,413.70 112.00,415.82 C109.53,417.10 106.06,419.53 104.29,421.23 C99.09,426.23 96.60,436.18 98.98,442.45 C99.86,444.75 99.53,445.43 96.04,448.58 C87.48,456.31 85.36,468.73 90.81,479.14 L 93.62 484.50 L 91.06 489.46 C85.95,499.35 88.68,512.02 97.60,519.88 C101.83,523.61 102.40,524.56 102.14,527.55 C101.66,533.14 104.70,541.66 108.79,546.20 C112.78,550.62 120.86,554.97 125.12,554.99 C127.40,555.00 127.83,555.52 128.37,558.92 C128.72,561.08 130.48,564.79 132.29,567.16 C138.50,575.30 146.20,578.67 156.25,577.63 C159.47,577.29 162.00,577.43 162.00,577.94 C162.00,580.00 167.60,585.27 172.35,587.68 C179.33,591.21 187.86,591.33 193.84,587.97 C197.37,585.98 198.39,585.79 199.80,586.82 C200.74,587.51 202.74,588.60 204.25,589.26 C205.76,589.91 207.00,590.72 207.00,591.07 C207.00,591.93 184.14,598.54 175.50,600.18 C165.44,602.08 142.20,601.85 133.47,599.76 C115.00,595.34 101.27,588.25 90.30,577.47 C78.46,565.84 74.61,556.51 78.53,548.95 C79.36,547.33 80.49,546.00 81.02,546.00 C83.46,546.00 87.75,537.93 88.41,532.10 C89.86,519.29 82.27,511.00 69.08,511.00 C55.40,511.00 40.61,520.93 33.86,534.63 C26.41,549.77 26.19,571.03 33.32,585.82 C35.38,590.09 35.62,591.77 35.21,598.88 C34.65,608.59 36.39,614.21 41.83,620.23 C45.46,624.25 53.52,629.00 56.72,629.00 C58.03,629.00 58.95,630.54 60.20,634.78 C62.50,642.61 66.59,647.92 73.08,651.48 C77.57,653.95 79.75,654.48 85.83,654.61 L 93.16 654.76 L 96.49 659.63 C103.64,670.07 116.04,674.30 128.51,670.55 L 133.33 669.10 L 137.20 673.49 C147.42,685.11 164.57,686.56 178.05,676.97 L 181.01 674.86 L 183.71 678.07 C190.33,685.93 204.60,689.16 214.00,684.93 ZM 158.73 336.40 C170.83,333.25 182.91,325.46 191.04,315.55 C200.87,303.58 205.38,290.57 205.44,274.00 C205.47,265.05 205.04,262.18 202.56,254.57 C196.05,234.59 180.75,219.05 161.00,212.36 C156.69,210.90 152.68,210.51 142.50,210.57 C130.81,210.62 128.74,210.91 122.00,213.43 C111.22,217.44 104.14,222.04 96.85,229.77 C89.49,237.58 83.91,247.98 81.44,258.50 C79.01,268.82 79.87,286.05 83.28,295.81 C94.19,326.98 127.04,344.65 158.73,336.40 ZM 683.83 335.59 C685.33,334.81 699.37,320.97 715.03,304.82 C746.45,272.42 748.99,269.00 751.12,256.11 C754.02,238.52 746.18,222.38 730.79,214.29 C725.86,211.71 724.68,211.51 713.50,211.51 C702.34,211.50 701.06,211.71 695.18,214.42 C691.70,216.03 686.97,218.83 684.68,220.66 C682.38,222.49 680.13,223.98 679.67,223.99 C679.21,224.00 676.93,222.44 674.60,220.53 C672.27,218.62 667.69,215.80 664.43,214.28 C658.94,211.70 657.58,211.50 646.00,211.50 C634.22,211.51 633.19,211.67 628.12,214.34 C620.17,218.52 613.71,225.04 610.39,232.27 C607.77,237.94 607.51,239.50 607.51,249.55 C607.50,260.39 607.58,260.76 611.41,268.55 C615.04,275.92 617.36,278.56 643.41,304.88 C658.86,320.48 672.85,334.10 674.50,335.12 C678.10,337.36 680.19,337.47 683.83,335.59 ZM 167.63 895.48 C158.75,893.23 150.18,888.24 143.30,881.32 C130.02,867.96 123.78,846.47 126.09,822.05 C127.92,802.69 132.93,790.36 143.48,779.17 C153.04,769.04 164.66,764.00 178.50,764.00 C201.96,764.00 219.38,779.10 227.56,806.54 C229.96,814.58 230.23,817.09 230.22,831.00 C230.22,843.41 229.81,848.02 228.18,854.14 C221.41,879.50 203.96,895.18 181.00,896.52 C176.25,896.80 171.35,896.42 167.63,895.48 ZM 650.71 895.86 C625.88,891.10 608.86,868.23 607.30,837.50 C606.01,812.21 612.26,791.93 625.50,778.45 C639.96,763.73 663.95,759.79 682.24,769.12 C687.58,771.85 697.09,780.91 701.01,787.02 C710.75,802.20 714.56,827.28 710.43,849.07 C704.36,881.05 678.63,901.21 650.71,895.86 ZM 335.22 375.44 C331.97,373.17 332.18,367.79 335.63,365.07 C338.78,362.60 340.80,362.47 343.78,364.56 C345.41,365.70 346.00,367.12 346.00,369.90 C346.00,376.22 340.42,379.09 335.22,375.44 ZM 503.45 374.55 C498.89,369.98 501.41,364.00 507.90,364.00 C512.25,364.00 515.00,366.36 515.00,370.11 C515.00,376.65 508.18,379.27 503.45,374.55 ZM 132.67 321.18 C129.23,317.65 125.00,309.00 125.00,305.49 C125.00,304.34 126.35,304.00 131.00,304.00 L 137.00 304.00 L 137.00 314.50 C137.00,320.27 136.87,325.00 136.70,325.00 C136.54,325.00 134.73,323.28 132.67,321.18 ZM 148.00 314.04 L 148.00 304.00 L 154.57 304.00 C160.91,304.00 161.11,304.08 160.45,306.25 C158.09,313.98 153.68,321.03 149.96,323.02 C148.07,324.03 148.00,323.69 148.00,314.04 ZM 112.45 316.09 C107.95,312.63 102.00,306.08 102.00,304.57 C102.00,304.26 104.36,304.01 107.25,304.03 L 112.50 304.05 L 115.60 312.03 C117.31,316.41 118.43,319.99 118.10,319.98 C117.77,319.97 115.23,318.22 112.45,316.09 ZM 167.98 316.25 C168.98,314.19 170.36,310.59 171.05,308.25 L 172.32 304.00 L 178.16 304.00 C181.37,304.00 184.00,304.35 184.00,304.78 C184.00,306.53 168.68,320.00 166.69,320.00 C166.41,320.00 166.99,318.31 167.98,316.25 ZM 95.05 290.20 C94.49,288.10 93.74,284.95 93.39,283.20 L 92.75 280.00 L 100.74 280.00 L 108.72 280.00 L 109.35 285.25 C110.47,294.52 110.84,294.00 103.04,294.00 L 96.08 294.00 L 95.05 290.20 ZM 121.53 289.75 C121.18,287.41 120.66,284.26 120.37,282.75 L 119.84 280.00 L 128.42 280.00 L 137.00 280.00 L 137.00 287.00 L 137.00 294.00 L 129.59 294.00 L 122.18 294.00 L 121.53 289.75 ZM 148.00 287.00 L 148.00 280.00 L 157.02 280.00 C165.84,280.00 166.03,280.05 165.57,282.25 C165.32,283.49 164.83,286.64 164.49,289.25 L 163.88 294.00 L 155.94 294.00 L 148.00 294.00 L 148.00 287.00 ZM 175.68 289.25 C176.58,279.50 176.08,280.00 184.89,280.00 L 192.74 280.00 L 191.94 284.25 C190.17,293.70 189.87,294.00 182.15,294.00 L 175.25 294.00 L 175.68 289.25 ZM 92.54 267.25 C92.73,266.29 93.41,263.14 94.04,260.25 L 95.20 255.00 L 102.92 255.00 L 110.64 255.00 L 109.89 260.25 C109.48,263.14 109.11,266.29 109.07,267.25 C109.01,268.77 107.91,269.00 100.59,269.00 C93.12,269.00 92.23,268.81 92.54,267.25 ZM 121.01 265.75 C121.02,263.96 121.30,260.81 121.64,258.75 L 122.26 255.00 L 129.63 255.00 L 137.00 255.00 L 137.00 262.00 L 137.00 269.00 L 129.00 269.00 L 121.00 269.00 L 121.01 265.75 ZM 148.00 262.00 L 148.00 255.00 L 155.88 255.00 L 163.75 255.00 L 164.38 258.12 C164.72,259.84 165.00,262.99 165.00,265.12 L 165.00 269.00 L 156.50 269.00 L 148.00 269.00 L 148.00 262.00 ZM 175.83 262.00 L 175.50 255.00 L 182.71 255.00 L 189.92 255.00 L 191.46 260.18 C194.11,269.11 194.20,269.00 184.58,269.00 L 176.16 269.00 L 175.83 262.00 ZM 101.00 244.43 C101.00,241.91 115.25,229.00 118.04,229.00 C118.43,229.00 117.38,232.60 115.70,237.00 L 112.65 245.00 L 106.82 245.00 C103.62,245.00 101.00,244.74 101.00,244.43 ZM 125.00 243.93 C125.00,241.08 131.40,227.99 134.03,225.48 L 137.00 222.63 L 137.00 233.81 L 137.00 245.00 L 131.00 245.00 C127.41,245.00 125.00,244.57 125.00,243.93 ZM 148.00 234.00 C148.00,227.73 148.41,223.00 148.95,223.00 C151.17,223.00 158.20,235.05 160.47,242.75 C161.11,244.92 160.91,245.00 154.57,245.00 L 148.00 245.00 L 148.00 234.00 ZM 171.97 243.25 C171.96,242.29 170.65,238.46 169.07,234.75 C167.48,231.04 166.42,228.00 166.71,228.00 C169.16,228.00 184.00,242.09 184.00,244.42 C184.00,244.74 181.30,245.00 178.00,245.00 C172.96,245.00 172.00,244.72 171.97,243.25 Z" fill="rgb(254,242,228)"/>
</g>
</svg>