<svg xmlns="http://www.w3.org/2000/svg" width="836" height="1254" viewBox="0 0 836 1254">
<g>
<path d="M 609.50 671.46 C606.24,672.31 602.89,672.99 602.04,672.97 C598.74,672.92 587.07,668.29 583.65,665.68 C580.35,663.16 579.85,663.05 577.77,664.37 C576.52,665.16 572.95,666.37 569.83,667.05 C560.55,669.07 550.51,665.63 543.70,658.09 L 540.03 654.03 L 535.04 655.18 C523.74,657.79 508.66,650.23 505.62,640.44 C505.05,638.59 504.37,638.42 499.09,638.80 C495.22,639.08 491.47,638.65 488.18,637.56 C480.13,634.89 470.00,624.69 470.00,619.26 C470.00,617.63 469.12,617.14 465.25,616.62 C451.45,614.76 441.54,604.85 439.49,590.87 C438.97,587.33 438.21,585.92 436.30,584.89 C432.08,582.64 424.07,573.08 420.57,566.13 L 417.25 559.56 L 414.10 565.81 C412.36,569.24 407.88,575.30 404.14,579.28 C398.00,585.81 397.18,587.17 395.66,593.47 C393.72,601.46 390.19,607.12 384.59,611.18 C380.57,614.09 372.44,617.00 368.32,617.00 C366.90,617.00 366.00,617.60 366.00,618.54 C366.00,621.47 362.15,627.61 357.78,631.64 C351.85,637.11 345.68,639.36 338.16,638.82 C332.29,638.39 332.23,638.42 330.41,641.81 C328.11,646.06 321.85,651.16 316.23,653.34 C311.51,655.17 303.49,655.52 299.64,654.05 C297.47,653.23 296.82,653.54 294.51,656.57 C293.06,658.47 289.54,661.37 286.69,663.01 C282.30,665.52 280.42,665.98 274.53,665.99 C270.45,666.00 265.78,665.32 263.25,664.35 C259.10,662.77 258.86,662.78 256.72,664.74 C251.42,669.60 245.92,671.48 237.00,671.48 C228.19,671.48 224.15,670.19 219.38,665.83 C217.27,663.90 217.22,663.91 213.49,666.44 C208.25,670.00 202.62,671.30 194.90,670.76 C187.52,670.23 179.48,666.55 175.55,661.88 L 173.27 659.17 L 168.14 661.71 C160.79,665.35 152.22,665.32 144.71,661.65 C139.60,659.15 134.58,654.64 132.24,650.46 C131.42,649.00 130.62,648.93 125.90,649.89 C114.11,652.30 99.61,644.43 96.07,633.72 C95.02,630.52 94.56,630.23 89.85,629.67 C78.18,628.29 66.68,618.57 63.97,607.82 C62.90,603.54 62.34,602.91 57.44,600.52 C51.21,597.46 47.69,593.64 44.09,586.00 C41.76,581.05 41.49,579.24 41.39,568.00 C41.33,561.04 40.71,553.51 39.98,551.00 C39.24,548.45 38.66,541.31 38.65,534.50 C38.62,524.59 39.02,521.28 40.93,515.50 C45.66,501.19 55.13,488.88 65.77,483.20 C76.04,477.73 84.34,477.73 90.57,483.20 C98.65,490.29 99.22,497.76 92.52,508.89 C85.55,520.49 85.18,530.53 91.27,543.35 C99.67,561.03 117.30,574.97 140.52,582.29 C169.12,591.31 205.85,586.53 232.50,570.33 C232.89,570.09 233.26,569.86 233.61,569.65 C237.83,567.09 239.10,566.32 239.00,565.80 C238.95,565.54 238.54,565.34 237.99,565.00 C237.06,564.42 236.00,564.58 235.02,565.43 C231.94,568.13 224.73,571.13 219.96,571.69 C213.50,572.46 206.82,570.51 201.21,566.22 L 196.71 562.79 L 191.74 564.40 C178.46,568.68 164.53,563.29 158.35,551.46 L 155.50 546.00 L 150.37 546.00 C143.85,546.00 139.00,543.96 133.55,538.94 C128.67,534.44 125.45,527.84 124.45,520.31 C123.82,515.56 123.49,515.07 119.79,513.40 C109.31,508.68 103.69,491.34 108.43,478.38 L 110.30 473.26 L 107.75 469.88 C100.32,460.04 102.05,443.49 111.45,434.50 C114.95,431.16 115.52,430.09 114.92,428.00 C111.30,415.43 119.14,399.30 131.42,394.04 C135.47,392.30 135.88,391.77 136.90,387.03 C138.45,379.82 138.27,372.42 136.46,368.92 L 134.92 365.95 L 131.68 370.22 C129.90,372.58 126.88,375.29 124.97,376.25 C117.71,379.91 107.65,377.43 102.70,370.76 C89.73,353.30 104.81,326.59 130.28,321.89 C145.03,319.18 159.20,324.11 171.17,336.13 C188.64,353.67 192.35,381.35 181.47,413.00 C172.59,438.83 170.94,452.12 175.00,465.27 C178.61,476.97 189.96,488.74 200.82,492.07 C205.97,493.65 220.71,494.33 225.50,493.22 L 229.50 492.29 L 225.00 490.27 C211.96,484.42 200.67,471.53 196.08,457.25 C194.10,451.10 193.83,448.51 194.16,438.80 C194.50,428.66 194.85,426.82 197.66,420.88 C202.82,409.91 211.93,401.44 221.75,398.46 C228.48,396.42 239.56,396.62 244.50,398.87 C253.90,403.15 260.22,412.19 260.36,421.53 C260.53,433.37 249.22,441.49 239.57,436.46 C235.43,434.30 234.00,435.22 234.00,440.02 C234.00,449.99 242.38,457.00 254.30,457.00 C259.25,457.00 261.82,456.41 265.60,454.42 C277.60,448.11 283.03,438.77 281.00,427.95 C279.56,420.28 277.25,413.56 273.43,405.92 C258.70,376.43 253.48,351.89 255.94,323.68 C257.75,302.77 261.85,287.44 270.12,270.63 C290.60,228.98 329.18,199.50 377.50,188.59 C433.94,175.85 496.86,191.59 534.21,227.79 C562.82,255.52 577.70,288.52 579.69,328.64 C580.93,353.70 575.92,373.89 560.17,407.15 C557.40,413.01 554.63,419.65 554.03,421.90 C552.56,427.37 552.52,436.03 553.96,440.38 C555.53,445.13 564.68,453.36 570.64,455.39 C580.75,458.84 591.94,456.71 596.90,450.40 C601.19,444.94 602.17,433.86 598.21,435.54 C592.06,438.16 589.43,438.70 586.70,437.92 C572.54,433.85 570.05,416.86 581.88,405.02 C587.57,399.34 593.76,397.00 603.14,397.00 C615.86,397.00 626.70,403.44 633.71,415.14 C641.80,428.67 642.28,448.87 634.88,464.65 C630.68,473.61 619.21,485.18 610.17,489.60 L 603.83 492.69 L 611.60 494.02 C626.39,496.55 639.51,492.39 649.38,482.04 C659.45,471.48 662.58,461.78 661.66,444.00 C661.07,432.60 659.23,424.53 654.14,411.00 C651.46,403.89 649.00,389.53 649.01,381.12 C649.02,365.11 656.38,347.15 668.01,334.71 C680.01,321.87 693.37,316.19 709.06,317.27 C722.96,318.22 734.04,325.38 739.97,337.26 C746.22,349.76 742.48,365.01 731.80,370.59 C727.05,373.07 719.03,372.40 713.82,369.10 C711.30,367.50 708.93,365.70 708.56,365.10 C706.26,361.38 702.00,368.48 702.02,376.00 C702.03,383.79 702.71,385.49 706.53,387.31 C718.96,393.24 726.51,407.79 724.00,420.99 C723.01,426.20 723.08,426.48 725.88,429.44 C734.96,439.01 736.70,457.26 729.36,465.98 C726.70,469.15 726.70,469.43 729.39,476.50 C732.60,484.92 730.38,497.88 724.39,505.74 C722.91,507.68 719.75,510.44 717.38,511.88 C713.55,514.20 713.06,514.92 713.03,518.21 C712.98,524.68 709.39,532.36 704.13,537.29 C697.81,543.19 693.91,545.11 686.91,545.74 C681.87,546.20 681.08,546.56 680.55,548.66 C679.88,551.34 674.12,558.07 669.97,561.02 C668.47,562.09 664.65,563.64 661.47,564.47 C656.31,565.81 654.98,565.81 649.13,564.45 C642.81,562.98 642.48,563.00 640.04,565.00 C635.43,568.75 628.62,571.37 622.35,571.80 C615.47,572.27 610.85,571.07 605.45,567.40 C603.01,565.74 601.12,565.15 599.72,565.59 C597.66,566.24 597.66,566.28 599.56,567.75 C603.72,570.95 623.96,580.00 632.50,582.48 C668.05,592.80 707.68,584.72 730.54,562.50 C742.83,550.55 749.03,538.46 749.24,526.00 C749.37,518.68 747.30,513.02 742.16,506.64 C734.60,497.27 738.11,484.80 749.55,480.43 C760.10,476.40 776.08,483.44 785.84,496.43 C796.28,510.32 800.11,529.22 796.39,548.50 C795.54,552.90 794.49,562.35 794.06,569.50 C793.47,579.24 792.75,583.69 791.18,587.23 C788.40,593.52 781.27,600.54 776.09,602.09 C773.00,603.02 772.00,603.83 772.00,605.41 C772.00,608.99 766.44,619.45 763.01,622.34 C757.96,626.59 752.26,629.12 746.37,629.73 C742.70,630.10 741.00,630.72 741.00,631.68 C741.00,634.72 736.74,641.18 732.90,643.96 C726.68,648.46 719.96,650.33 712.67,649.58 L 706.50 648.94 L 704.30 652.38 C697.80,662.54 683.25,666.75 670.86,662.04 L 665.70 660.08 L 660.82 664.47 C650.65,673.61 637.43,674.68 625.72,667.32 L 621.95 664.94 L 618.68 667.43 C616.89,668.80 612.76,670.61 609.50,671.46 ZM 203.74 644.99 C217.81,646.26 243.60,645.33 256.52,643.10 C326.57,630.98 391.92,586.41 412.15,536.94 C415.40,528.99 417.58,526.60 418.68,529.77 C425.45,549.28 435.20,564.17 451.43,579.79 C485.50,612.58 532.29,635.54 581.50,643.64 C596.98,646.18 635.08,646.20 650.00,643.67 C681.84,638.27 714.91,626.14 736.14,612.06 C760.57,595.85 777.40,574.39 783.07,552.21 C785.80,541.54 785.73,525.11 782.92,516.76 C778.47,503.54 765.87,491.00 757.04,491.00 C750.04,491.00 749.41,494.05 754.51,503.32 C767.36,526.70 762.56,547.83 739.15,570.78 C726.88,582.82 712.42,590.60 692.00,596.14 C684.41,598.20 681.35,598.44 663.50,598.40 C640.89,598.34 634.41,597.13 613.91,589.11 C579.94,575.83 547.69,546.29 531.13,513.30 C527.44,505.95 523.00,491.20 523.00,486.31 C523.00,480.93 525.66,482.39 532.43,491.51 C540.14,501.90 553.62,515.15 563.15,521.72 C570.96,527.09 582.86,533.40 591.96,536.99 C607.41,543.07 631.10,545.13 645.50,541.63 C661.86,537.66 681.65,524.67 691.64,511.36 C702.90,496.35 707.93,481.88 708.74,462.17 C709.52,443.17 706.65,429.37 696.91,405.19 C691.04,390.61 689.03,382.76 689.01,374.21 C688.99,364.57 693.98,356.14 702.21,351.91 C709.02,348.40 713.46,349.60 717.53,356.04 C719.54,359.23 720.61,360.00 723.06,360.00 C727.77,360.00 731.00,356.14 731.00,350.51 C731.00,338.50 719.99,329.07 705.93,329.02 C694.25,328.98 686.03,332.88 676.82,342.83 C665.88,354.64 660.19,370.85 661.34,386.92 C661.96,395.68 662.99,400.08 669.50,422.00 C672.59,432.39 673.30,436.53 673.73,446.50 C674.05,453.95 673.80,460.67 673.06,464.22 C669.21,482.76 651.32,500.49 632.00,504.92 C626.29,506.23 609.83,506.30 603.21,505.04 C589.60,502.46 573.56,494.09 562.53,483.82 C547.07,469.42 539.00,452.51 539.00,434.50 C539.00,423.75 540.58,418.23 548.57,401.00 C563.02,369.86 566.60,354.80 565.72,329.04 C565.01,308.47 561.74,294.67 552.99,275.32 C547.19,262.52 533.89,244.60 522.24,233.92 C506.20,219.21 479.24,206.25 453.95,201.08 C407.83,191.65 361.49,199.53 326.85,222.69 C298.14,241.88 278.96,271.51 270.96,309.00 C269.14,317.54 268.72,322.68 268.72,336.50 C268.73,360.47 270.69,368.48 284.09,399.18 C294.75,423.60 296.66,433.33 293.46,446.91 C289.01,465.78 273.60,484.48 253.27,495.67 C220.83,513.52 186.75,507.60 168.89,481.00 C164.12,473.90 161.92,466.48 161.29,455.45 C160.55,442.33 162.05,432.44 167.53,414.46 C169.95,406.50 172.68,396.05 173.59,391.24 C179.31,360.92 164.24,335.38 139.39,333.27 C131.40,332.59 124.59,334.85 118.54,340.18 C113.09,344.97 110.00,350.52 110.00,355.51 C110.00,362.79 114.97,367.69 119.77,365.12 C120.84,364.55 122.68,361.85 123.85,359.12 C125.59,355.08 126.65,353.94 129.56,352.98 C141.58,349.01 152.18,362.05 150.67,378.95 C149.83,388.48 147.78,395.29 139.51,416.04 C128.19,444.46 125.84,459.97 129.90,479.50 C136.47,511.07 160.71,533.93 195.15,541.02 C209.64,544.01 219.17,544.39 232.00,542.50 C245.42,540.53 251.75,538.56 265.69,531.99 C278.78,525.81 283.48,522.53 294.60,511.79 C299.60,506.96 304.03,503.00 304.43,503.00 C305.78,503.00 303.78,509.43 300.25,516.50 C289.91,537.16 275.58,553.95 254.00,570.69 C240.00,581.55 220.98,590.58 201.50,595.63 C191.22,598.29 189.22,598.48 171.00,598.47 C153.50,598.46 150.63,598.22 143.00,596.07 C122.84,590.40 107.93,582.02 94.95,569.05 C85.43,559.54 81.39,553.20 77.57,541.82 C73.02,528.24 74.66,513.23 81.96,501.72 C86.57,494.45 85.70,491.00 79.26,491.00 C69.85,491.00 59.19,501.60 53.23,516.88 C50.97,522.69 50.65,524.97 50.66,535.50 C50.66,546.10 50.98,548.42 53.45,555.33 C67.35,594.31 102.09,621.37 158.19,636.91 C170.52,640.32 189.67,643.72 203.74,644.99 ZM 676.85 916.03 C668.65,918.13 645.13,919.57 639.00,918.35 C597.17,910.03 568.99,884.16 558.25,844.21 C555.95,835.62 555.64,832.54 555.57,817.50 C555.51,803.08 555.84,799.12 557.75,791.37 C562.95,770.29 569.68,757.66 583.41,743.20 C595.25,730.74 608.58,722.58 625.71,717.31 C633.97,714.77 635.64,714.61 653.50,714.64 C671.11,714.66 673.09,714.85 680.50,717.23 C692.17,720.98 697.52,723.49 706.49,729.47 C726.55,742.83 741.28,764.84 747.67,791.00 C750.50,802.60 750.28,830.36 747.26,842.50 C738.03,879.59 711.68,907.11 676.85,916.03 ZM 208.72 915.62 C201.40,917.66 196.71,918.26 186.00,918.52 C178.57,918.70 171.38,918.63 170.00,918.36 C145.34,913.56 129.67,905.81 115.22,891.30 C100.42,876.42 90.10,855.91 87.06,835.31 C85.53,824.90 85.75,804.51 87.51,795.25 C92.72,767.81 108.18,743.59 129.43,729.56 C138.58,723.53 144.05,720.93 155.50,717.22 C163.01,714.78 164.69,714.62 183.00,714.64 C201.16,714.66 203.06,714.84 210.62,717.24 C236.74,725.53 256.35,742.47 268.92,767.61 C283.51,796.77 283.65,835.52 269.28,864.50 C256.21,890.85 235.80,908.08 208.72,915.62 ZM 381.39 913.11 C378.92,915.43 378.32,915.51 360.67,915.72 C350.68,915.84 341.60,915.55 340.50,915.09 C336.67,913.46 334.95,910.24 331.57,898.40 C329.70,891.86 325.16,876.15 321.49,863.50 C317.82,850.85 314.18,838.25 313.41,835.50 C312.65,832.75 311.12,827.35 310.01,823.50 C308.91,819.65 307.14,813.35 306.09,809.50 C302.48,796.39 299.21,784.52 296.01,773.00 C294.26,766.67 291.98,758.35 290.95,754.50 C289.91,750.65 288.14,744.12 287.01,740.00 C286.66,738.75 286.33,737.57 286.02,736.45 C283.56,727.64 282.27,723.02 284.02,720.60 C285.95,717.95 291.55,717.96 303.33,717.99 C304.68,718.00 306.11,718.00 307.63,718.00 C328.66,718.00 328.97,718.03 330.37,720.25 C331.15,721.49 333.20,728.35 334.93,735.50 C345.36,778.55 360.67,837.12 361.51,837.14 C362.38,837.16 368.74,816.79 385.60,760.00 C396.81,722.28 396.99,721.71 398.75,719.75 C400.13,718.20 402.44,718.00 418.60,718.00 C420.48,718.00 422.19,717.98 423.75,717.97 C431.01,717.90 434.85,717.86 437.36,719.67 C440.72,722.08 441.72,727.76 445.37,741.00 C449.29,755.22 456.69,782.24 459.61,793.00 C461.03,798.22 462.99,805.42 463.97,809.00 C464.95,812.58 466.76,819.33 467.99,824.00 C471.30,836.65 471.54,837.35 472.65,837.72 C473.68,838.06 474.97,833.80 481.39,809.00 C483.31,801.58 486.30,790.10 488.04,783.50 C489.78,776.90 494.01,760.36 497.45,746.74 C501.28,731.57 504.40,721.22 505.51,719.99 C507.20,718.12 508.60,718.00 528.49,718.00 L 549.68 718.00 L 550.81 720.49 C551.73,722.50 551.48,724.76 549.53,732.24 C545.83,746.39 520.55,834.41 506.95,880.50 C504.68,888.20 501.79,898.04 500.53,902.36 C499.08,907.33 497.27,911.19 495.60,912.86 C492.97,915.49 492.88,915.50 475.22,915.81 C458.03,916.11 457.37,916.05 453.99,913.79 C449.74,910.94 450.27,912.46 435.40,860.50 C429.10,838.50 423.32,818.47 422.55,816.00 C421.78,813.53 420.41,808.85 419.51,805.62 C418.60,802.37 417.49,800.13 417.03,800.62 C416.20,801.50 410.29,820.22 406.02,835.50 C401.98,849.99 393.89,877.64 386.98,900.61 C384.91,907.47 383.12,911.48 381.39,913.11 ZM 690.80 285.13 C677.17,297.94 677.08,298.00 672.30,298.00 C669.33,297.99 666.36,297.27 664.50,296.11 C662.85,295.07 650.16,282.81 636.30,268.86 C607.13,239.49 605.90,237.68 605.21,223.00 C604.88,216.09 605.21,213.45 606.94,208.86 C612.93,192.96 625.55,184.48 643.00,184.64 C652.89,184.72 657.19,186.30 666.64,193.29 L 672.77 197.83 L 675.98 194.52 C677.75,192.70 682.40,189.73 686.32,187.92 C692.71,184.98 694.38,184.64 702.49,184.64 C713.42,184.64 719.92,187.16 727.17,194.22 C739.93,206.65 742.42,225.14 733.40,240.60 C730.18,246.13 711.23,265.94 690.80,285.13 ZM 646.50 877.02 C655.04,878.82 669.15,875.68 677.99,870.01 C688.36,863.35 696.80,851.17 700.54,837.47 C703.09,828.12 703.57,810.16 701.55,800.00 C696.73,775.82 680.09,757.84 659.87,754.98 C624.69,750.01 597.55,783.91 603.00,826.01 C606.60,853.87 621.93,871.84 646.50,877.02 ZM 175.00 876.43 C183.71,878.32 184.49,878.30 193.34,876.04 C202.88,873.60 208.91,870.15 216.07,863.04 C233.86,845.37 238.36,809.19 225.99,783.42 C215.90,762.42 197.60,751.94 176.28,754.96 C155.67,757.88 139.25,775.53 134.41,799.94 C132.27,810.74 132.93,828.45 135.84,838.20 C141.91,858.62 155.94,872.31 175.00,876.43 ZM 646.40 260.66 C659.11,273.52 670.25,284.04 671.16,284.03 C673.18,283.99 697.33,261.33 710.60,247.00 C721.55,235.18 724.98,229.09 724.98,221.50 C724.98,215.83 721.65,207.77 717.88,204.31 C714.00,200.75 706.93,198.05 701.41,198.02 C694.66,197.99 685.16,202.68 680.73,208.22 C672.89,218.04 671.42,218.73 667.74,214.30 C656.29,200.51 651.46,197.58 641.19,198.16 C632.54,198.65 625.83,202.51 621.50,209.50 C618.97,213.59 618.50,215.35 618.50,220.92 C618.50,231.64 620.35,234.27 646.40,260.66 ZM 347.67 389.50 C338.77,392.15 329.38,390.89 323.06,386.21 C319.08,383.26 314.18,376.34 312.79,371.71 C312.10,369.39 311.53,363.67 311.54,359.00 C311.55,348.57 314.12,341.36 320.03,335.21 C326.02,328.97 330.58,327.00 338.99,327.00 C350.30,327.00 359.17,332.65 364.81,343.45 C367.16,347.96 367.45,349.63 367.47,359.00 C367.50,368.51 367.24,369.98 364.80,374.62 C361.25,381.36 354.05,387.61 347.67,389.50 ZM 508.49 387.55 C496.57,393.38 485.16,391.33 476.35,381.77 C470.20,375.10 468.67,370.05 469.23,358.30 C469.76,347.01 471.74,341.50 477.61,335.01 C483.15,328.87 487.52,327.00 496.26,327.00 C502.65,327.00 504.19,327.37 508.05,329.87 C514.43,333.99 518.49,338.64 521.70,345.50 C525.37,353.37 525.69,365.88 522.38,373.05 C519.36,379.61 514.64,384.54 508.49,387.55 ZM 232.00 479.06 C239.66,481.40 252.27,479.29 261.19,474.17 C266.74,470.98 276.16,462.07 272.50,463.47 C263.09,467.05 259.27,468.00 254.22,468.00 C236.43,468.00 222.00,455.01 222.00,439.00 C222.00,433.44 224.84,426.31 228.17,423.51 C231.86,420.41 235.89,420.30 240.88,423.17 C245.38,425.76 248.00,425.12 248.00,421.44 C248.00,414.52 240.84,408.75 231.63,408.24 C226.27,407.95 224.85,408.29 220.31,410.94 C205.77,419.44 200.98,441.14 209.70,459.00 C214.33,468.48 223.07,476.34 232.00,479.06 ZM 581.25 478.54 C583.59,479.27 588.65,479.89 592.50,479.92 C611.79,480.08 628.00,462.06 628.00,440.45 C628.00,423.21 616.06,407.95 602.64,408.02 C592.35,408.08 582.50,417.46 585.95,423.91 C587.35,426.52 589.02,426.54 594.00,424.00 C601.42,420.21 606.73,421.99 610.09,429.38 C614.38,438.84 611.35,451.98 603.23,459.10 C594.01,467.19 577.84,470.34 567.21,466.11 C560.21,463.32 560.03,463.40 564.05,467.56 C568.51,472.15 575.88,476.86 581.25,478.54 ZM 429.67 416.03 C424.02,418.53 416.17,419.30 410.41,417.92 C404.34,416.47 396.02,411.08 392.29,406.17 C388.00,400.53 387.25,397.48 389.54,394.96 C392.41,391.78 395.37,392.53 399.39,397.43 C404.30,403.42 412.48,407.43 418.43,406.76 C425.19,406.00 431.83,402.30 435.31,397.36 C438.74,392.50 440.96,391.37 443.96,392.98 C446.40,394.28 446.68,398.80 444.58,402.80 C442.29,407.16 434.88,413.74 429.67,416.03 ZM 318.14 302.89 C313.60,306.48 310.53,306.85 308.99,303.99 C307.51,301.21 310.13,295.90 314.71,292.41 C324.71,284.78 342.00,283.56 342.00,290.48 C342.00,293.39 338.59,296.00 334.79,296.00 C330.70,296.00 322.61,299.35 318.14,302.89 ZM 525.43 304.43 C523.08,306.77 520.70,306.35 517.50,303.00 C514.41,299.77 505.62,296.00 501.18,296.00 C495.61,296.00 491.88,290.52 495.20,287.20 C496.66,285.74 505.15,285.64 510.11,287.01 C515.01,288.37 521.41,292.81 524.47,296.96 C527.41,300.95 527.58,302.27 525.43,304.43 ZM 328.50 352.85 C331.33,354.39 331.80,354.30 334.55,351.55 C339.59,346.51 336.20,338.12 329.65,339.41 C325.93,340.14 324.00,342.39 324.00,346.00 C324.00,348.92 325.50,351.21 328.50,352.85 ZM 485.02 352.70 C487.97,354.17 490.63,352.81 493.00,348.64 C494.33,346.29 494.33,345.71 493.00,343.35 C492.17,341.89 490.74,340.22 489.80,339.64 C487.35,338.11 482.88,339.95 481.03,343.26 C479.66,345.72 479.66,346.28 481.03,348.74 C481.87,350.24 483.67,352.02 485.02,352.70 ZM 124.50 505.05 C128.72,506.78 128.73,506.76 125.51,499.85 C124.14,496.91 122.26,491.01 121.34,486.75 C120.41,482.49 119.36,479.00 118.99,479.00 C117.63,479.00 116.00,484.23 116.00,488.58 C116.00,495.77 119.80,503.13 124.50,505.05 ZM 635.21 661.49 C639.20,663.23 641.34,663.31 646.30,661.93 C650.34,660.81 656.96,655.63 655.82,654.48 C655.44,654.11 652.83,654.30 650.02,654.90 C647.20,655.51 642.04,656.00 638.53,656.00 C630.43,656.00 628.49,656.63 630.49,658.63 C631.27,659.42 633.40,660.71 635.21,661.49 ZM 228.81 660.97 C232.95,663.15 238.46,663.53 242.68,661.93 C245.63,660.82 250.00,657.20 250.00,655.88 C250.00,655.46 245.16,655.34 239.25,655.62 C222.56,656.41 221.35,657.02 228.81,660.97 ZM 149.50 653.60 C151.15,654.33 153.95,654.94 155.73,654.96 C158.91,655.00 167.48,652.15 166.66,651.33 C166.43,651.10 161.35,649.61 155.37,648.04 C149.39,646.46 143.71,644.86 142.75,644.48 C140.01,643.40 140.59,646.32 143.75,649.50 C145.26,651.03 147.85,652.87 149.50,653.60 ZM 710.00 502.62 C710.00,503.51 712.25,502.88 714.59,501.35 C720.19,497.68 723.68,483.93 720.10,479.62 C718.21,477.34 717.37,478.28 715.97,484.25 C715.29,487.14 713.67,492.37 712.37,495.87 C711.07,499.37 710.00,502.41 710.00,502.62 ZM 174.50 554.11 C178.98,556.18 183.57,556.49 187.50,555.00 C191.17,553.61 190.01,552.50 182.24,549.94 C178.53,548.72 173.83,546.89 171.79,545.86 C167.03,543.47 164.86,543.43 165.68,545.75 C166.75,548.78 170.35,552.20 174.50,554.11 ZM 684.73 535.39 C686.23,536.90 693.81,534.38 697.32,531.21 C700.36,528.46 703.14,522.11 702.81,518.68 L 702.50 515.50 L 699.53 519.00 C697.90,520.92 693.76,525.26 690.34,528.64 C686.92,532.02 684.39,535.06 684.73,535.39 ZM 190.59 660.52 C192.74,661.29 195.75,661.93 197.28,661.96 C200.65,662.01 206.04,659.87 207.76,657.79 C208.86,656.46 207.49,656.12 196.48,655.00 C189.59,654.30 183.65,654.02 183.28,654.39 C182.18,655.49 186.40,659.03 190.59,660.52 ZM 556.33 656.12 C561.36,658.47 568.55,658.18 572.69,655.46 L 575.50 653.62 L 563.18 651.22 C556.40,649.89 550.63,649.04 550.35,649.32 C549.14,650.52 552.49,654.32 556.33,656.12 ZM 676.18 653.86 C680.80,655.19 681.01,655.19 686.74,653.48 C689.99,652.52 692.79,650.85 694.42,648.91 C697.41,645.35 697.74,643.52 695.25,644.34 C694.29,644.65 689.03,646.20 683.56,647.77 C678.09,649.35 673.45,651.15 673.24,651.77 C673.03,652.40 674.36,653.34 676.18,653.86 ZM 594.58 660.73 C599.18,663.35 603.65,663.59 608.71,661.48 C618.29,657.47 616.31,656.04 601.17,656.02 C588.64,656.00 587.59,656.75 594.58,660.73 ZM 142.39 534.10 C145.41,535.94 153.01,536.76 152.99,535.25 C152.99,534.84 151.38,533.40 149.41,532.06 C147.44,530.72 143.40,526.94 140.44,523.67 C136.19,518.97 134.91,518.06 134.42,519.36 C132.91,523.28 136.98,530.79 142.39,534.10 ZM 611.25 559.88 C615.40,562.54 623.02,562.63 628.63,560.08 C635.78,556.83 635.01,556.00 624.81,555.99 C619.69,555.98 613.81,555.70 611.75,555.36 C606.88,554.55 606.62,556.92 611.25,559.88 ZM 115.28 463.63 L 117.50 466.46 L 118.13 457.48 C118.48,452.54 119.26,446.72 119.86,444.55 C121.30,439.34 120.46,438.81 116.97,442.71 C111.52,448.81 110.78,457.91 115.28,463.63 ZM 719.67 460.33 C720.78,461.45 721.04,461.16 723.11,456.49 C724.85,452.56 724.97,451.26 724.04,446.26 C723.35,442.51 722.13,439.67 720.52,438.07 C719.17,436.71 717.83,435.83 717.55,436.11 C717.27,436.39 717.48,439.30 718.02,442.56 C718.55,445.83 718.99,451.01 718.99,454.08 C719.00,457.15 719.30,459.97 719.67,460.33 ZM 268.25 655.88 C272.63,657.15 274.85,657.17 279.06,656.00 C282.67,655.00 288.88,649.54 287.72,648.39 C287.37,648.04 283.35,648.67 278.79,649.79 C274.23,650.91 269.26,652.09 267.75,652.43 C264.06,653.25 264.28,654.73 268.25,655.88 ZM 208.36 560.08 C212.41,562.55 219.25,562.52 224.75,560.03 C231.81,556.82 230.12,556.00 216.44,556.00 C203.18,556.00 202.35,556.42 208.36,560.08 ZM 303.08 644.91 C306.67,646.34 309.05,646.16 313.58,644.10 C319.12,641.59 324.29,635.00 320.72,635.00 C319.08,635.00 302.80,641.83 301.58,643.03 C301.03,643.58 301.62,644.32 303.08,644.91 ZM 337.11 628.09 C341.47,630.85 349.42,627.47 353.80,620.98 C355.81,618.00 355.92,617.45 354.55,617.17 C353.04,616.86 348.78,619.03 339.61,624.77 C336.63,626.63 336.04,627.41 337.11,628.09 ZM 522.50 644.59 C524.15,645.32 527.08,645.93 529.00,645.95 C532.55,645.97 536.34,644.22 534.50,643.40 C518.66,636.36 515.48,635.25 515.16,636.68 C514.72,638.62 518.67,642.89 522.50,644.59 ZM 651.69 555.30 C654.66,556.07 655.33,556.04 659.28,554.94 C663.47,553.78 670.00,548.57 670.00,546.40 C670.00,544.44 669.58,544.54 659.55,548.87 C650.47,552.78 648.43,554.45 651.69,555.30 ZM 115.74 639.56 C119.37,640.85 122.57,640.63 124.35,638.98 C124.82,638.55 121.27,636.35 116.47,634.10 C105.35,628.89 102.66,628.72 106.80,633.50 C109.53,636.66 111.70,638.13 115.74,639.56 ZM 488.14 626.84 C492.97,629.23 498.03,629.70 497.95,627.75 C497.89,626.10 481.85,616.75 480.83,617.77 C479.37,619.23 483.75,624.67 488.14,626.84 ZM 713.45 420.22 C714.12,420.68 714.61,419.31 714.81,416.35 C715.04,413.01 714.44,410.37 712.60,406.63 C710.11,401.56 706.00,397.57 706.00,400.22 C706.00,402.41 712.35,419.47 713.45,420.22 ZM 713.05 638.75 C712.98,640.49 719.42,640.35 722.93,638.54 C725.83,637.04 731.00,631.55 731.00,629.96 C731.00,628.58 713.11,637.34 713.05,638.75 ZM 370.00 606.33 C370.00,607.64 374.97,606.16 378.15,603.89 C381.82,601.28 385.22,596.40 384.82,594.33 C384.58,593.09 382.69,594.27 377.25,599.06 C373.26,602.57 370.00,605.84 370.00,606.33 ZM 123.48 422.93 C124.48,426.07 125.45,424.81 128.36,416.62 C131.81,406.89 131.64,405.68 127.48,410.40 C123.89,414.45 122.34,419.33 123.48,422.93 ZM 747.50 617.82 L 744.50 620.14 L 747.89 619.57 C752.99,618.70 757.83,615.25 760.05,610.90 C761.15,608.75 761.80,607.00 761.51,607.00 C761.21,607.00 758.62,608.91 755.74,611.25 C752.86,613.59 749.15,616.54 747.50,617.82 ZM 459.45 605.59 C462.26,606.82 466.00,607.44 466.00,606.68 C466.00,606.31 454.11,596.75 452.25,595.64 C451.47,595.17 451.00,595.44 451.00,596.36 C451.00,598.62 456.02,604.10 459.45,605.59 ZM 582.31 555.53 C583.85,556.89 586.10,557.99 587.31,557.99 C590.46,557.97 594.00,556.90 594.00,555.97 C594.00,555.08 585.19,552.98 581.70,553.03 C579.59,553.06 579.62,553.17 582.31,555.53 ZM 81.05 616.39 C83.58,618.52 89.00,620.05 89.00,618.65 C89.00,617.82 76.84,608.83 76.36,609.30 C75.49,610.18 77.77,613.63 81.05,616.39 ZM 244.67 556.33 C246.16,557.83 251.06,556.85 253.69,554.53 C256.86,551.74 256.22,551.54 249.05,553.08 C244.22,554.12 243.20,554.87 244.67,556.33 ZM 781.66 583.25 C782.37,584.41 783.98,582.14 783.95,580.00 C783.94,578.85 783.60,578.94 782.50,580.40 C781.71,581.44 781.33,582.73 781.66,583.25 Z" fill="rgb(5,35,44)"/>
<path d="M 184.21 306.33 C170.92,310.47 156.99,310.36 145.70,306.04 C132.97,301.17 118.50,288.80 113.10,278.18 C106.53,265.27 104.49,247.83 107.90,233.63 C112.38,214.89 122.08,202.39 138.20,194.59 C149.73,189.01 153.87,188.05 166.50,188.05 C178.69,188.05 183.07,189.00 192.84,193.76 C217.32,205.70 230.49,234.16 224.54,262.25 C220.23,282.55 204.15,300.13 184.21,306.33 ZM 171.00 230.00 L 171.00 245.00 L 190.00 245.00 L 189.99 239.75 C189.97,234.90 189.98,232.46 188.77,231.23 C187.54,230.00 185.07,230.00 180.08,230.00 ZM 142.36 243.49 C142.82,244.68 144.83,245.00 151.97,245.00 L 161.00 245.00 L 161.00 229.92 L 152.25 230.21 L 143.50 230.50 L 142.64 236.24 C142.16,239.39 142.04,242.66 142.36,243.49 ZM 171.00 254.00 L 171.00 268.00 L 179.44 268.00 C184.08,268.00 188.14,267.59 188.45,267.09 C188.76,266.58 189.30,263.43 189.65,260.09 L 190.28 254.00 ZM 143.57 265.75 C144.01,267.87 144.53,268.00 152.52,268.00 L 161.00 268.00 L 161.00 254.00 L 141.88 254.00 L 142.49 258.75 C142.83,261.36 143.32,264.51 143.57,265.75 ZM 198.64 241.25 L 199.26 245.00 L 215.28 245.00 L 214.64 238.85 C214.29,235.47 213.49,232.10 212.88,231.35 C212.13,230.46 209.44,230.00 204.88,230.00 L 198.00 230.00 L 198.01 233.75 C198.02,235.81 198.30,239.19 198.64,241.25 ZM 117.59 240.27 L 116.88 245.00 L 124.88 245.00 C129.28,245.00 133.10,244.65 133.36,244.22 C133.62,243.80 133.96,240.54 134.10,236.97 L 134.37 230.50 L 127.01 230.50 C126.70,230.50 126.41,230.50 126.13,230.50 C122.86,230.49 121.09,230.49 120.02,231.35 C118.67,232.42 118.40,234.84 117.59,240.27 ZM 197.66 262.25 L 197.14 268.00 L 211.92 268.00 L 213.46 262.82 L 213.52 262.62 C214.80,258.30 215.44,256.14 214.64,255.07 C213.84,254.00 211.61,254.00 207.17,254.00 L 206.97 254.00 C206.60,254.00 206.24,254.00 205.90,254.00 C202.09,253.99 200.21,253.99 199.20,254.92 C198.12,255.92 198.03,257.99 197.66,262.25 ZM 146.56 215.83 L 145.09 220.00 L 161.00 220.00 L 161.00 210.00 C161.00,204.50 160.73,200.00 160.40,200.00 C156.88,200.00 148.95,209.07 146.56,215.83 ZM 119.93 265.32 C120.90,267.88 121.28,268.00 127.98,268.00 L 135.02 268.00 L 134.43 262.25 C133.98,257.92 133.86,255.86 132.77,254.88 C131.78,253.99 129.98,253.99 126.41,254.00 C126.09,254.00 125.75,254.00 125.40,254.00 L 117.73 254.00 L 118.32 258.32 C118.65,260.70 119.37,263.85 119.93,265.32 ZM 171.00 210.00 L 171.00 220.00 L 179.00 220.00 C183.40,220.00 187.00,219.76 187.00,219.47 C187.00,217.44 181.08,207.76 177.69,204.25 C171.54,197.88 171.00,198.35 171.00,210.00 ZM 171.00 288.00 C171.00,293.50 171.42,298.00 171.92,298.00 C174.04,298.00 178.88,292.71 181.83,287.16 C186.50,278.40 186.33,278.00 178.00,278.00 L 171.00 278.00 ZM 155.71 294.75 C157.60,296.54 159.56,298.00 160.07,298.00 C160.58,298.00 161.00,293.50 161.00,288.00 L 161.00 278.00 L 154.00 278.00 C148.38,278.00 147.00,278.30 147.00,279.53 C147.00,282.33 152.22,291.45 155.71,294.75 ZM 189.72 292.38 C191.23,293.90 206.00,281.81 206.00,279.06 C206.00,278.44 203.71,278.00 200.47,278.00 C196.09,278.00 194.81,278.37 194.34,279.75 C194.02,280.71 192.72,283.83 191.47,286.67 C190.21,289.52 189.42,292.09 189.72,292.38 ZM 199.18 220.04 C202.13,220.53 204.29,220.55 207.46,220.13 C208.80,219.95 199.22,210.33 195.25,207.86 C193.46,206.75 191.57,205.98 191.05,206.17 C190.53,206.35 191.40,209.43 192.99,213.00 C195.55,218.80 196.22,219.56 199.18,220.04 ZM 125.00 219.19 C125.00,219.69 127.57,219.96 130.71,219.80 L 136.43 219.50 L 138.87 213.24 C140.22,209.80 141.06,206.73 140.75,206.41 C140.43,206.10 139.13,206.39 137.86,207.07 C134.92,208.65 125.00,218.00 125.00,219.19 ZM 135.18 288.05 C142.46,293.80 143.35,293.28 139.97,285.25 L 137.13 278.50 L 132.06 278.20 C129.28,278.03 127.00,278.27 127.00,278.73 C127.00,280.42 130.33,284.21 135.18,288.05 ZM 781.66 583.25 C781.33,582.73 781.71,581.44 782.50,580.40 C783.60,578.94 783.94,578.85 783.95,580.00 C783.98,582.14 782.37,584.41 781.66,583.25 ZM 747.50 617.82 C748.82,616.80 751.45,614.70 753.93,612.71 C750.84,615.28 748.00,617.83 748.00,618.20 C748.00,619.36 750.03,619.20 752.59,618.02 C751.10,618.76 749.50,619.30 747.89,619.57 L 744.50 620.14 ZM 581.12 553.05 C581.29,553.04 581.48,553.03 581.70,553.03 C585.19,552.98 594.00,555.08 594.00,555.97 C594.00,556.55 592.63,557.18 590.84,557.58 C591.14,557.41 591.38,557.19 591.55,556.91 C592.66,555.12 590.81,554.16 585.00,553.49 ZM 582.31 555.53 C581.17,554.53 580.50,553.93 580.28,553.58 L 582.31 555.43 C583.86,556.86 586.06,557.75 587.95,557.97 C587.73,557.98 587.52,557.98 587.31,557.99 C586.10,557.99 583.85,556.89 582.31,555.53 ZM 756.02 615.80 C757.36,614.52 758.92,612.57 760.09,610.83 L 760.05 610.90 C759.11,612.74 757.71,614.41 756.02,615.80 ZM 761.52 607.00 C761.46,607.01 761.35,607.05 761.22,607.13 C761.36,607.04 761.46,607.00 761.51,607.00 Z" fill="rgb(97,151,141)"/>
<path d="M 203.74 644.99 C189.67,643.72 170.52,640.32 158.19,636.91 C102.09,621.37 67.35,594.31 53.45,555.33 C50.98,548.42 50.66,546.10 50.66,535.50 C50.65,524.97 50.97,522.69 53.23,516.88 C59.19,501.60 69.85,491.00 79.26,491.00 C85.70,491.00 86.57,494.45 81.96,501.72 C74.66,513.23 73.02,528.24 77.57,541.82 C81.39,553.20 85.43,559.54 94.95,569.05 C107.93,582.02 122.84,590.40 143.00,596.07 C150.63,598.22 153.50,598.46 171.00,598.47 C189.22,598.48 191.22,598.29 201.50,595.63 C220.98,590.58 240.00,581.55 254.00,570.69 C275.58,553.95 289.91,537.16 300.25,516.50 C303.78,509.43 305.78,503.00 304.43,503.00 C304.03,503.00 299.60,506.96 294.60,511.79 C283.48,522.53 278.78,525.81 265.69,531.99 C251.75,538.56 245.42,540.53 232.00,542.50 C219.17,544.39 209.64,544.01 195.15,541.02 C160.71,533.93 136.47,511.07 129.90,479.50 C125.84,459.97 128.19,444.46 139.51,416.04 C147.78,395.29 149.83,388.48 150.67,378.95 C152.18,362.05 141.58,349.01 129.56,352.98 C126.65,353.94 125.59,355.08 123.85,359.12 C122.68,361.85 120.84,364.55 119.77,365.12 C114.97,367.69 110.00,362.79 110.00,355.51 C110.00,350.52 113.09,344.97 118.54,340.18 C124.59,334.85 131.40,332.59 139.39,333.27 C164.24,335.38 179.31,360.92 173.59,391.24 C172.68,396.05 169.95,406.50 167.53,414.46 C162.05,432.44 160.55,442.33 161.29,455.45 C161.92,466.48 164.12,473.90 168.89,481.00 C186.75,507.60 220.83,513.52 253.27,495.67 C273.60,484.48 289.01,465.78 293.46,446.91 C296.66,433.33 294.75,423.60 284.09,399.18 C270.69,368.48 268.73,360.47 268.72,336.50 C268.72,322.68 269.14,317.54 270.96,309.00 C278.96,271.51 298.14,241.88 326.85,222.69 C361.49,199.53 407.83,191.65 453.95,201.08 C479.24,206.25 506.20,219.21 522.24,233.92 C533.89,244.60 547.19,262.52 552.99,275.32 C561.74,294.67 565.01,308.47 565.72,329.04 C566.60,354.80 563.02,369.86 548.57,401.00 C540.58,418.23 539.00,423.75 539.00,434.50 C539.00,452.51 547.07,469.42 562.53,483.82 C573.56,494.09 589.60,502.46 603.21,505.04 C609.83,506.30 626.29,506.23 632.00,504.92 C651.32,500.49 669.21,482.76 673.06,464.22 C673.80,460.67 674.05,453.95 673.73,446.50 C673.30,436.53 672.59,432.39 669.50,422.00 C662.99,400.08 661.96,395.68 661.34,386.92 C660.19,370.85 665.88,354.64 676.82,342.83 C686.03,332.88 694.25,328.98 705.93,329.02 C719.99,329.07 731.00,338.50 731.00,350.51 C731.00,356.14 727.77,360.00 723.06,360.00 C720.61,360.00 719.54,359.23 717.53,356.04 C713.46,349.60 709.02,348.40 702.21,351.91 C693.98,356.14 688.99,364.57 689.01,374.21 C689.03,382.76 691.04,390.61 696.91,405.19 C706.65,429.37 709.52,443.17 708.74,462.17 C707.93,481.88 702.90,496.35 691.64,511.36 C681.65,524.67 661.86,537.66 645.50,541.63 C631.10,545.13 607.41,543.07 591.96,536.99 C582.86,533.40 570.96,527.09 563.15,521.72 C553.62,515.15 540.14,501.90 532.43,491.51 C525.66,482.39 523.00,480.93 523.00,486.31 C523.00,491.20 527.44,505.95 531.13,513.30 C547.69,546.29 579.94,575.83 613.91,589.11 C634.41,597.13 640.89,598.34 663.50,598.40 C681.35,598.44 684.41,598.20 692.00,596.14 C712.42,590.60 726.88,582.82 739.15,570.78 C762.56,547.83 767.36,526.70 754.51,503.32 C749.41,494.05 750.04,491.00 757.04,491.00 C765.87,491.00 778.47,503.54 782.92,516.76 C785.73,525.11 785.80,541.54 783.07,552.21 C777.40,574.39 760.57,595.85 736.14,612.06 C714.91,626.14 681.84,638.27 650.00,643.67 C635.08,646.20 596.98,646.18 581.50,643.64 C532.29,635.54 485.50,612.58 451.43,579.79 C435.20,564.17 425.45,549.28 418.68,529.77 C417.58,526.60 415.40,528.99 412.15,536.94 C391.92,586.41 326.57,630.98 256.52,643.10 C243.60,645.33 217.81,646.26 203.74,644.99 ZM 646.40 260.66 C620.35,234.27 618.50,231.64 618.50,220.92 C618.50,215.35 618.97,213.59 621.50,209.50 C625.83,202.51 632.54,198.65 641.19,198.16 C651.46,197.58 656.29,200.51 667.74,214.30 C671.42,218.73 672.89,218.04 680.73,208.22 C685.16,202.68 694.66,197.99 701.41,198.02 C706.93,198.05 714.00,200.75 717.88,204.31 C721.65,207.77 724.98,215.83 724.98,221.50 C724.98,229.09 721.55,235.18 710.60,247.00 C697.33,261.33 673.18,283.99 671.16,284.03 C670.25,284.04 659.11,273.52 646.40,260.66 ZM 347.67 389.50 C354.05,387.61 361.25,381.36 364.80,374.62 C367.24,369.98 367.50,368.51 367.47,359.00 C367.45,349.63 367.16,347.96 364.81,343.45 C359.17,332.65 350.30,327.00 338.99,327.00 C330.58,327.00 326.02,328.97 320.03,335.21 C314.12,341.36 311.55,348.57 311.54,359.00 C311.53,363.67 312.10,369.39 312.79,371.71 C314.18,376.34 319.08,383.26 323.06,386.21 C329.38,390.89 338.77,392.15 347.67,389.50 ZM 508.49 387.55 C514.64,384.54 519.36,379.61 522.38,373.05 C525.69,365.88 525.37,353.37 521.70,345.50 C518.49,338.64 514.43,333.99 508.05,329.87 C504.19,327.37 502.65,327.00 496.26,327.00 C487.52,327.00 483.15,328.87 477.61,335.01 C471.74,341.50 469.76,347.01 469.23,358.30 C468.67,370.05 470.20,375.10 476.35,381.77 C485.16,391.33 496.57,393.38 508.49,387.55 ZM 232.00 479.06 C223.07,476.34 214.33,468.48 209.70,459.00 C200.98,441.14 205.77,419.44 220.31,410.94 C224.85,408.29 226.27,407.95 231.63,408.24 C240.84,408.75 248.00,414.52 248.00,421.44 C248.00,425.12 245.38,425.76 240.88,423.17 C235.89,420.30 231.86,420.41 228.17,423.51 C224.84,426.31 222.00,433.44 222.00,439.00 C222.00,455.01 236.43,468.00 254.22,468.00 C259.27,468.00 263.09,467.05 272.50,463.47 C276.16,462.07 266.74,470.98 261.19,474.17 C252.27,479.29 239.66,481.40 232.00,479.06 ZM 581.25 478.54 C575.88,476.86 568.51,472.15 564.05,467.56 C560.03,463.40 560.21,463.32 567.21,466.11 C577.84,470.34 594.01,467.19 603.23,459.10 C611.35,451.98 614.38,438.84 610.09,429.38 C606.73,421.99 601.42,420.21 594.00,424.00 C589.02,426.54 587.35,426.52 585.95,423.91 C582.50,417.46 592.35,408.08 602.64,408.02 C616.06,407.95 628.00,423.21 628.00,440.45 C628.00,462.06 611.79,480.08 592.50,479.92 C588.65,479.89 583.59,479.27 581.25,478.54 ZM 429.67 416.03 C434.88,413.74 442.29,407.16 444.58,402.80 C446.68,398.80 446.40,394.28 443.96,392.98 C440.96,391.37 438.74,392.50 435.31,397.36 C431.83,402.30 425.19,406.00 418.43,406.76 C412.48,407.43 404.30,403.42 399.39,397.43 C395.37,392.53 392.41,391.78 389.54,394.96 C387.25,397.48 388.00,400.53 392.29,406.17 C396.02,411.08 404.34,416.47 410.41,417.92 C416.17,419.30 424.02,418.53 429.67,416.03 ZM 322.22 257.44 C326.68,260.56 331.92,258.88 338.14,252.33 C342.28,247.98 345.00,243.08 345.00,240.00 C345.00,238.85 343.86,236.77 342.47,235.38 C340.41,233.32 339.35,232.98 336.72,233.52 C325.23,235.89 315.16,252.50 322.22,257.44 ZM 318.14 302.89 C322.61,299.35 330.70,296.00 334.79,296.00 C338.59,296.00 342.00,293.39 342.00,290.48 C342.00,283.56 324.71,284.78 314.71,292.41 C310.13,295.90 307.51,301.21 308.99,303.99 C310.53,306.85 313.60,306.48 318.14,302.89 ZM 525.43 304.43 C527.58,302.27 527.41,300.95 524.47,296.96 C521.41,292.81 515.01,288.37 510.11,287.01 C505.15,285.64 496.66,285.74 495.20,287.20 C491.88,290.52 495.61,296.00 501.18,296.00 C505.62,296.00 514.41,299.77 517.50,303.00 C520.70,306.35 523.08,306.77 525.43,304.43 ZM 124.50 505.05 C119.80,503.13 116.00,495.77 116.00,488.58 C116.00,484.23 117.63,479.00 118.99,479.00 C119.36,479.00 120.41,482.49 121.34,486.75 C122.26,491.01 124.14,496.91 125.51,499.85 C128.73,506.76 128.72,506.78 124.50,505.05 ZM 635.21 661.49 C633.40,660.71 631.27,659.42 630.49,658.63 C628.49,656.63 630.43,656.00 638.53,656.00 C642.04,656.00 647.20,655.51 650.02,654.90 C652.83,654.30 655.44,654.11 655.82,654.48 C656.96,655.63 650.34,660.81 646.30,661.93 C641.34,663.31 639.20,663.23 635.21,661.49 ZM 228.81 660.97 C221.35,657.02 222.56,656.41 239.25,655.62 C245.16,655.34 250.00,655.46 250.00,655.88 C250.00,657.20 245.63,660.82 242.68,661.93 C238.46,663.53 232.95,663.15 228.81,660.97 ZM 149.50 653.60 C147.85,652.87 145.26,651.03 143.75,649.50 C140.59,646.32 140.01,643.40 142.75,644.48 C143.71,644.86 149.39,646.46 155.37,648.04 C161.35,649.61 166.43,651.10 166.66,651.33 C167.48,652.15 158.91,655.00 155.73,654.96 C153.95,654.94 151.15,654.33 149.50,653.60 ZM 710.00 502.62 C710.00,502.41 711.07,499.37 712.37,495.87 C713.67,492.37 715.29,487.14 715.97,484.25 C717.37,478.28 718.21,477.34 720.10,479.62 C723.68,483.93 720.19,497.68 714.59,501.35 C712.25,502.88 710.00,503.51 710.00,502.62 ZM 174.50 554.11 C170.35,552.20 166.75,548.78 165.68,545.75 C164.86,543.43 167.03,543.47 171.79,545.86 C173.83,546.89 178.53,548.72 182.24,549.94 C190.01,552.50 191.17,553.61 187.50,555.00 C183.57,556.49 178.98,556.18 174.50,554.11 ZM 684.73 535.39 C684.39,535.06 686.92,532.02 690.34,528.64 C693.76,525.26 697.90,520.92 699.53,519.00 L 702.50 515.50 L 702.81 518.68 C703.14,522.11 700.36,528.46 697.32,531.21 C693.81,534.38 686.23,536.90 684.73,535.39 ZM 190.59 660.52 C186.40,659.03 182.18,655.49 183.28,654.39 C183.65,654.02 189.59,654.30 196.48,655.00 C207.49,656.12 208.86,656.46 207.76,657.79 C206.04,659.87 200.65,662.01 197.28,661.96 C195.75,661.93 192.74,661.29 190.59,660.52 ZM 556.33 656.12 C552.49,654.32 549.14,650.52 550.35,649.32 C550.63,649.04 556.40,649.89 563.18,651.22 L 575.50 653.62 L 572.69 655.46 C568.55,658.18 561.36,658.47 556.33,656.12 ZM 676.18 653.86 C674.36,653.34 673.03,652.40 673.24,651.77 C673.45,651.15 678.09,649.35 683.56,647.77 C689.03,646.20 694.29,644.65 695.25,644.34 C697.74,643.52 697.41,645.35 694.42,648.91 C692.79,650.85 689.99,652.52 686.74,653.48 C681.01,655.19 680.80,655.19 676.18,653.86 ZM 594.58 660.73 C587.59,656.75 588.64,656.00 601.17,656.02 C616.31,656.04 618.29,657.47 608.71,661.48 C603.65,663.59 599.18,663.35 594.58,660.73 ZM 142.39 534.10 C136.98,530.79 132.91,523.28 134.42,519.36 C134.91,518.06 136.19,518.97 140.44,523.67 C143.40,526.94 147.44,530.72 149.41,532.06 C151.38,533.40 152.99,534.84 152.99,535.25 C153.01,536.76 145.41,535.94 142.39,534.10 ZM 611.25 559.88 C606.62,556.92 606.88,554.55 611.75,555.36 C613.81,555.70 619.69,555.98 624.81,555.99 C635.01,556.00 635.78,556.83 628.63,560.08 C623.02,562.63 615.40,562.54 611.25,559.88 ZM 115.28 463.63 C110.78,457.91 111.52,448.81 116.97,442.71 C120.46,438.81 121.30,439.34 119.86,444.55 C119.26,446.72 118.48,452.54 118.13,457.48 L 117.50 466.46 ZM 355.38 233.98 C356.83,235.43 360.63,235.24 363.87,233.57 C367.14,231.87 369.82,229.00 368.12,229.00 C367.51,229.00 367.00,228.09 367.00,226.97 C367.00,224.59 363.27,222.83 360.88,224.08 C359.99,224.55 358.96,224.62 358.58,224.25 C358.20,223.87 358.19,224.33 358.55,225.28 C359.04,226.55 358.69,227.00 357.22,227.00 C355.77,227.00 355.11,227.82 354.79,229.98 C354.55,231.61 354.81,233.41 355.38,233.98 ZM 719.67 460.33 C719.30,459.97 719.00,457.15 718.99,454.08 C718.99,451.01 718.55,445.83 718.02,442.56 C717.48,439.30 717.27,436.39 717.55,436.11 C717.83,435.83 719.17,436.71 720.52,438.07 C722.13,439.67 723.35,442.51 724.04,446.26 C724.97,451.26 724.85,452.56 723.11,456.49 C721.04,461.16 720.78,461.45 719.67,460.33 ZM 268.25 655.88 C264.28,654.73 264.06,653.25 267.75,652.43 C269.26,652.09 274.23,650.91 278.79,649.79 C283.35,648.67 287.37,648.04 287.72,648.39 C288.88,649.54 282.67,655.00 279.06,656.00 C274.85,657.17 272.63,657.15 268.25,655.88 ZM 208.36 560.08 C202.35,556.42 203.18,556.00 216.44,556.00 C230.12,556.00 231.81,556.82 224.75,560.03 C219.25,562.52 212.41,562.55 208.36,560.08 ZM 303.08 644.91 C301.62,644.32 301.03,643.58 301.58,643.03 C302.80,641.83 319.08,635.00 320.72,635.00 C324.29,635.00 319.12,641.59 313.58,644.10 C309.05,646.16 306.67,646.34 303.08,644.91 ZM 337.11 628.09 C336.04,627.41 336.63,626.63 339.61,624.77 C348.78,619.03 353.04,616.86 354.55,617.17 C355.92,617.45 355.81,618.00 353.80,620.98 C349.42,627.47 341.47,630.85 337.11,628.09 ZM 522.50 644.59 C518.67,642.89 514.72,638.62 515.16,636.68 C515.48,635.25 518.66,636.36 534.50,643.40 C536.34,644.22 532.55,645.97 529.00,645.95 C527.08,645.93 524.15,645.32 522.50,644.59 ZM 651.69 555.30 C648.43,554.45 650.47,552.78 659.55,548.87 C669.58,544.54 670.00,544.44 670.00,546.40 C670.00,548.57 663.47,553.78 659.28,554.94 C655.33,556.04 654.66,556.07 651.69,555.30 ZM 115.74 639.56 C111.70,638.13 109.53,636.66 106.80,633.50 C102.66,628.72 105.35,628.89 116.47,634.10 C121.27,636.35 124.82,638.55 124.35,638.98 C122.57,640.63 119.37,640.85 115.74,639.56 ZM 488.14 626.84 C483.75,624.67 479.37,619.23 480.83,617.77 C481.85,616.75 497.89,626.10 497.95,627.75 C498.03,629.70 492.97,629.23 488.14,626.84 ZM 713.45 420.22 C712.35,419.47 706.00,402.41 706.00,400.22 C706.00,397.57 710.11,401.56 712.60,406.63 C714.44,410.37 715.04,413.01 714.81,416.35 C714.61,419.31 714.12,420.68 713.45,420.22 ZM 713.05 638.75 C713.11,637.34 731.00,628.58 731.00,629.96 C731.00,631.55 725.83,637.04 722.93,638.54 C719.42,640.35 712.98,640.49 713.05,638.75 ZM 370.00 606.33 C370.00,605.84 373.26,602.57 377.25,599.06 C382.69,594.27 384.58,593.09 384.82,594.33 C385.22,596.40 381.82,601.28 378.15,603.89 C374.97,606.16 370.00,607.64 370.00,606.33 ZM 123.48 422.93 C122.34,419.33 123.89,414.45 127.48,410.40 C131.64,405.68 131.81,406.89 128.36,416.62 C125.45,424.81 124.48,426.07 123.48,422.93 ZM 459.45 605.59 C456.02,604.10 451.00,598.62 451.00,596.36 C451.00,595.44 451.47,595.17 452.25,595.64 C454.11,596.75 466.00,606.31 466.00,606.68 C466.00,607.44 462.26,606.82 459.45,605.59 ZM 761.52 607.00 C761.77,607.07 761.14,608.76 760.09,610.83 C758.92,612.57 757.36,614.52 756.02,615.80 C754.97,616.66 753.81,617.41 752.59,618.02 C750.03,619.20 748.00,619.36 748.00,618.20 C748.00,617.83 750.84,615.28 753.93,612.71 C754.55,612.21 755.16,611.72 755.74,611.25 C758.18,609.27 760.42,607.59 761.22,607.13 C761.35,607.05 761.46,607.01 761.52,607.00 ZM 81.05 616.39 C77.77,613.63 75.49,610.18 76.36,609.30 C76.84,608.83 89.00,617.82 89.00,618.65 C89.00,620.05 83.58,618.52 81.05,616.39 ZM 581.12 553.05 L 585.00 553.49 C590.81,554.16 592.66,555.12 591.55,556.91 C591.38,557.19 591.14,557.41 590.84,557.58 C589.94,557.78 588.94,557.92 587.95,557.97 C586.06,557.75 583.86,556.86 582.31,555.43 L 580.28 553.58 C580.03,553.18 580.33,553.08 581.12,553.05 ZM 244.67 556.33 C243.20,554.87 244.22,554.12 249.05,553.08 C256.22,551.54 256.86,551.74 253.69,554.53 C251.06,556.85 246.16,557.83 244.67,556.33 Z" fill="rgb(233,64,95)"/>
<path d="M 0.00 627.00 L 0.00 0.00 L 418.00 0.00 L 836.00 0.00 L 836.00 627.00 L 836.00 1254.00 L 418.00 1254.00 L 0.00 1254.00 L 0.00 627.00 ZM 208.72 915.62 C235.80,908.08 256.21,890.85 269.28,864.50 C283.65,835.52 283.51,796.77 268.92,767.61 C256.35,742.47 236.74,725.53 210.62,717.24 C203.06,714.84 201.16,714.66 183.00,714.64 C164.69,714.62 163.01,714.78 155.50,717.22 C144.05,720.93 138.58,723.53 129.43,729.56 C108.18,743.59 92.72,767.81 87.51,795.25 C85.75,804.51 85.53,824.90 87.06,835.31 C90.10,855.91 100.42,876.42 115.22,891.30 C129.67,905.81 145.34,913.56 170.00,918.36 C171.38,918.63 178.57,918.70 186.00,918.52 C196.71,918.26 201.40,917.66 208.72,915.62 ZM 676.85 916.03 C711.68,907.11 738.03,879.59 747.26,842.50 C750.28,830.36 750.50,802.60 747.67,791.00 C741.28,764.84 726.55,742.83 706.49,729.47 C697.52,723.49 692.17,720.98 680.50,717.23 C673.09,714.85 671.11,714.66 653.50,714.64 C635.64,714.61 633.97,714.77 625.71,717.31 C608.58,722.58 595.25,730.74 583.41,743.20 C569.68,757.66 562.95,770.29 557.75,791.37 C555.84,799.12 555.51,803.08 555.57,817.50 C555.64,832.54 555.95,835.62 558.25,844.21 C568.99,884.16 597.17,910.03 639.00,918.35 C645.13,919.57 668.65,918.13 676.85,916.03 ZM 381.39 913.11 C383.12,911.48 384.91,907.47 386.98,900.61 C393.89,877.64 401.98,849.99 406.02,835.50 C410.29,820.22 416.20,801.50 417.03,800.62 C417.49,800.13 418.60,802.37 419.51,805.62 C420.41,808.85 421.78,813.53 422.55,816.00 C423.32,818.47 429.10,838.50 435.40,860.50 C450.27,912.46 449.74,910.94 453.99,913.79 C457.37,916.05 458.03,916.11 475.22,915.81 C492.88,915.50 492.97,915.49 495.60,912.86 C497.27,911.19 499.08,907.33 500.53,902.36 C501.79,898.04 504.68,888.20 506.95,880.50 C520.55,834.41 545.83,746.39 549.53,732.24 C551.48,724.76 551.73,722.50 550.81,720.49 L 549.68 718.00 L 528.49 718.00 C508.60,718.00 507.20,718.12 505.51,719.99 C504.40,721.22 501.28,731.57 497.45,746.74 C494.01,760.36 489.78,776.90 488.04,783.50 C486.30,790.10 483.31,801.58 481.39,809.00 C474.97,833.80 473.68,838.06 472.65,837.72 C471.54,837.35 471.30,836.65 467.99,824.00 C466.76,819.33 464.95,812.58 463.97,809.00 C462.99,805.42 461.03,798.22 459.61,793.00 C456.69,782.24 449.29,755.22 445.37,741.00 C438.40,715.70 441.08,718.00 418.60,718.00 C402.44,718.00 400.13,718.20 398.75,719.75 C396.99,721.71 396.81,722.28 385.60,760.00 C368.74,816.79 362.38,837.16 361.51,837.14 C360.67,837.12 345.36,778.55 334.93,735.50 C333.20,728.35 331.15,721.49 330.37,720.25 C328.97,718.03 328.66,718.00 307.63,718.00 C279.35,718.00 280.59,716.68 287.01,740.00 C288.14,744.12 289.91,750.65 290.95,754.50 C291.98,758.35 294.26,766.67 296.01,773.00 C299.21,784.52 302.48,796.39 306.09,809.50 C307.14,813.35 308.91,819.65 310.01,823.50 C311.12,827.35 312.65,832.75 313.41,835.50 C314.18,838.25 317.82,850.85 321.49,863.50 C325.16,876.15 329.70,891.86 331.57,898.40 C334.95,910.24 336.67,913.46 340.50,915.09 C341.60,915.55 350.68,915.84 360.67,915.72 C378.32,915.51 378.92,915.43 381.39,913.11 ZM 609.50 671.46 C612.76,670.61 616.89,668.80 618.68,667.43 L 621.95 664.94 L 625.72 667.32 C637.43,674.68 650.65,673.61 660.82,664.47 L 665.70 660.08 L 670.86 662.04 C683.25,666.75 697.80,662.54 704.30,652.38 L 706.50 648.94 L 712.67 649.58 C719.96,650.33 726.68,648.46 732.90,643.96 C736.74,641.18 741.00,634.72 741.00,631.68 C741.00,630.72 742.70,630.10 746.37,629.73 C752.26,629.12 757.96,626.59 763.01,622.34 C766.44,619.45 772.00,608.99 772.00,605.41 C772.00,603.83 773.00,603.02 776.09,602.09 C781.27,600.54 788.40,593.52 791.18,587.23 C792.75,583.69 793.47,579.24 794.06,569.50 C794.49,562.35 795.54,552.90 796.39,548.50 C800.11,529.22 796.28,510.32 785.84,496.43 C776.08,483.44 760.10,476.40 749.55,480.43 C738.11,484.80 734.60,497.27 742.16,506.64 C747.30,513.02 749.37,518.68 749.24,526.00 C749.03,538.46 742.83,550.55 730.54,562.50 C707.68,584.72 668.05,592.80 632.50,582.48 C623.96,580.00 603.72,570.95 599.56,567.75 C597.66,566.28 597.66,566.24 599.72,565.59 C601.12,565.15 603.01,565.74 605.45,567.40 C610.85,571.07 615.47,572.27 622.35,571.80 C628.62,571.37 635.43,568.75 640.04,565.00 C642.48,563.00 642.81,562.98 649.13,564.45 C654.98,565.81 656.31,565.81 661.47,564.47 C664.65,563.64 668.47,562.09 669.97,561.02 C674.12,558.07 679.88,551.34 680.55,548.66 C681.08,546.56 681.87,546.20 686.91,545.74 C693.91,545.11 697.81,543.19 704.13,537.29 C709.39,532.36 712.98,524.68 713.03,518.21 C713.06,514.92 713.55,514.20 717.38,511.88 C719.75,510.44 722.91,507.68 724.39,505.74 C730.38,497.88 732.60,484.92 729.39,476.50 C726.70,469.43 726.70,469.15 729.36,465.98 C736.70,457.26 734.96,439.01 725.88,429.44 C723.08,426.48 723.01,426.20 724.00,420.99 C726.51,407.79 718.96,393.24 706.53,387.31 C702.71,385.49 702.03,383.79 702.02,376.00 C702.00,368.48 706.26,361.38 708.56,365.10 C708.93,365.70 711.30,367.50 713.82,369.10 C719.03,372.40 727.05,373.07 731.80,370.59 C742.48,365.01 746.22,349.76 739.97,337.26 C734.04,325.38 722.96,318.22 709.06,317.27 C693.37,316.19 680.01,321.87 668.01,334.71 C656.38,347.15 649.02,365.11 649.01,381.12 C649.00,389.53 651.46,403.89 654.14,411.00 C659.23,424.53 661.07,432.60 661.66,444.00 C662.58,461.78 659.45,471.48 649.38,482.04 C639.51,492.39 626.39,496.55 611.60,494.02 L 603.83 492.69 L 610.17 489.60 C619.21,485.18 630.68,473.61 634.88,464.65 C642.28,448.87 641.80,428.67 633.71,415.14 C626.70,403.44 615.86,397.00 603.14,397.00 C593.76,397.00 587.57,399.34 581.88,405.02 C570.05,416.86 572.54,433.85 586.70,437.92 C589.43,438.70 592.06,438.16 598.21,435.54 C602.17,433.86 601.19,444.94 596.90,450.40 C591.94,456.71 580.75,458.84 570.64,455.39 C564.68,453.36 555.53,445.13 553.96,440.38 C552.52,436.03 552.56,427.37 554.03,421.90 C554.63,419.65 557.40,413.01 560.17,407.15 C575.92,373.89 580.93,353.70 579.69,328.64 C577.70,288.52 562.82,255.52 534.21,227.79 C496.86,191.59 433.94,175.85 377.50,188.59 C329.18,199.50 290.60,228.98 270.12,270.63 C261.85,287.44 257.75,302.77 255.94,323.68 C253.48,351.89 258.70,376.43 273.43,405.92 C277.25,413.56 279.56,420.28 281.00,427.95 C283.03,438.77 277.60,448.11 265.60,454.42 C261.82,456.41 259.25,457.00 254.30,457.00 C242.38,457.00 234.00,449.99 234.00,440.02 C234.00,435.22 235.43,434.30 239.57,436.46 C249.22,441.49 260.53,433.37 260.36,421.53 C260.22,412.19 253.90,403.15 244.50,398.87 C239.56,396.62 228.48,396.42 221.75,398.46 C211.93,401.44 202.82,409.91 197.66,420.88 C194.85,426.82 194.50,428.66 194.16,438.80 C193.83,448.51 194.10,451.10 196.08,457.25 C200.67,471.53 211.96,484.42 225.00,490.27 L 229.50 492.29 L 225.50 493.22 C220.71,494.33 205.97,493.65 200.82,492.07 C189.96,488.74 178.61,476.97 175.00,465.27 C170.94,452.12 172.59,438.83 181.47,413.00 C192.35,381.35 188.64,353.67 171.17,336.13 C159.20,324.11 145.03,319.18 130.28,321.89 C104.81,326.59 89.73,353.30 102.70,370.76 C107.65,377.43 117.71,379.91 124.97,376.25 C126.88,375.29 129.90,372.58 131.68,370.22 L 134.92 365.95 L 136.46 368.92 C138.27,372.42 138.45,379.82 136.90,387.03 C135.88,391.77 135.47,392.30 131.42,394.04 C119.14,399.30 111.30,415.43 114.92,428.00 C115.52,430.09 114.95,431.16 111.45,434.50 C102.05,443.49 100.32,460.04 107.75,469.88 L 110.30 473.26 L 108.43 478.38 C103.69,491.34 109.31,508.68 119.79,513.40 C123.49,515.07 123.82,515.56 124.45,520.31 C125.45,527.84 128.67,534.44 133.55,538.94 C139.00,543.96 143.85,546.00 150.37,546.00 L 155.50 546.00 L 158.35 551.46 C164.53,563.29 178.46,568.68 191.74,564.40 L 196.71 562.79 L 201.21 566.22 C206.82,570.51 213.50,572.46 219.96,571.69 C224.73,571.13 231.94,568.13 235.02,565.43 C236.00,564.58 237.06,564.42 237.99,565.00 C239.71,566.06 240.03,565.75 232.50,570.33 C205.85,586.53 169.12,591.31 140.52,582.29 C117.30,574.97 99.67,561.03 91.27,543.35 C85.18,530.53 85.55,520.49 92.52,508.89 C99.22,497.76 98.65,490.29 90.57,483.20 C84.34,477.73 76.04,477.73 65.77,483.20 C55.13,488.88 45.66,501.19 40.93,515.50 C39.02,521.28 38.62,524.59 38.65,534.50 C38.66,541.31 39.24,548.45 39.98,551.00 C40.71,553.51 41.33,561.04 41.39,568.00 C41.49,579.24 41.76,581.05 44.09,586.00 C47.69,593.64 51.21,597.46 57.44,600.52 C62.34,602.91 62.90,603.54 63.97,607.82 C66.68,618.57 78.18,628.29 89.85,629.67 C94.56,630.23 95.02,630.52 96.07,633.72 C99.61,644.43 114.11,652.30 125.90,649.89 C130.62,648.93 131.42,649.00 132.24,650.46 C134.58,654.64 139.60,659.15 144.71,661.65 C152.22,665.32 160.79,665.35 168.14,661.71 L 173.27 659.17 L 175.55 661.88 C179.48,666.55 187.52,670.23 194.90,670.76 C202.62,671.30 208.25,670.00 213.49,666.44 C217.22,663.91 217.27,663.90 219.38,665.83 C224.15,670.19 228.19,671.48 237.00,671.48 C245.92,671.48 251.42,669.60 256.72,664.74 C258.86,662.78 259.10,662.77 263.25,664.35 C265.78,665.32 270.45,666.00 274.53,665.99 C280.42,665.98 282.30,665.52 286.69,663.01 C289.54,661.37 293.06,658.47 294.51,656.57 C296.82,653.54 297.47,653.23 299.64,654.05 C303.49,655.52 311.51,655.17 316.23,653.34 C321.85,651.16 328.11,646.06 330.41,641.81 C332.23,638.42 332.29,638.39 338.16,638.82 C345.68,639.36 351.85,637.11 357.78,631.64 C362.15,627.61 366.00,621.47 366.00,618.54 C366.00,617.60 366.90,617.00 368.32,617.00 C372.44,617.00 380.57,614.09 384.59,611.18 C390.19,607.12 393.72,601.46 395.66,593.47 C397.18,587.17 398.00,585.81 404.14,579.28 C407.88,575.30 412.36,569.24 414.10,565.81 L 417.25 559.56 L 420.57 566.13 C424.07,573.08 432.08,582.64 436.30,584.89 C438.21,585.92 438.97,587.33 439.49,590.87 C441.54,604.85 451.45,614.76 465.25,616.62 C469.12,617.14 470.00,617.63 470.00,619.26 C470.00,624.69 480.13,634.89 488.18,637.56 C491.47,638.65 495.22,639.08 499.09,638.80 C504.37,638.42 505.05,638.59 505.62,640.44 C508.66,650.23 523.74,657.79 535.04,655.18 L 540.03 654.03 L 543.70 658.09 C550.51,665.63 560.55,669.07 569.83,667.05 C572.95,666.37 576.52,665.16 577.77,664.37 C579.85,663.05 580.35,663.16 583.65,665.68 C587.07,668.29 598.74,672.92 602.04,672.97 C602.89,672.99 606.24,672.31 609.50,671.46 ZM 184.21 306.33 C204.15,300.13 220.23,282.55 224.54,262.25 C230.49,234.16 217.32,205.70 192.84,193.76 C183.07,189.00 178.69,188.05 166.50,188.05 C153.87,188.05 149.73,189.01 138.20,194.59 C122.08,202.39 112.38,214.89 107.90,233.63 C104.49,247.83 106.53,265.27 113.10,278.18 C118.50,288.80 132.97,301.17 145.70,306.04 C156.99,310.36 170.92,310.47 184.21,306.33 ZM 690.80 285.13 C711.23,265.94 730.18,246.13 733.40,240.60 C742.42,225.14 739.93,206.65 727.17,194.22 C719.92,187.16 713.42,184.64 702.49,184.64 C694.38,184.64 692.71,184.98 686.32,187.92 C682.40,189.73 677.75,192.70 675.98,194.52 L 672.77 197.83 L 666.64 193.29 C657.19,186.30 652.89,184.72 643.00,184.64 C625.55,184.48 612.93,192.96 606.94,208.86 C605.21,213.45 604.88,216.09 605.21,223.00 C605.90,237.68 607.13,239.49 636.30,268.86 C650.16,282.81 662.85,295.07 664.50,296.11 C666.36,297.27 669.33,297.99 672.30,298.00 C677.08,298.00 677.17,297.94 690.80,285.13 ZM 175.00 876.43 C155.94,872.31 141.91,858.62 135.84,838.20 C132.93,828.45 132.27,810.74 134.41,799.94 C139.25,775.53 155.67,757.88 176.28,754.96 C197.60,751.94 215.90,762.42 225.99,783.42 C238.36,809.19 233.86,845.37 216.07,863.04 C208.91,870.15 202.88,873.60 193.34,876.04 C184.49,878.30 183.71,878.32 175.00,876.43 ZM 646.50 877.02 C621.93,871.84 606.60,853.87 603.00,826.01 C597.55,783.91 624.69,750.01 659.87,754.98 C680.09,757.84 696.73,775.82 701.55,800.00 C703.57,810.16 703.09,828.12 700.54,837.47 C696.80,851.17 688.36,863.35 677.99,870.01 C669.15,875.68 655.04,878.82 646.50,877.02 ZM 328.50 352.85 C325.50,351.21 324.00,348.92 324.00,346.00 C324.00,342.39 325.93,340.14 329.65,339.41 C336.20,338.12 339.59,346.51 334.55,351.55 C331.80,354.30 331.33,354.39 328.50,352.85 ZM 485.02 352.70 C483.67,352.02 481.87,350.24 481.03,348.74 C479.66,346.28 479.66,345.72 481.03,343.26 C482.88,339.95 487.35,338.11 489.80,339.64 C490.74,340.22 492.17,341.89 493.00,343.35 C494.33,345.71 494.33,346.29 493.00,348.64 C490.63,352.81 487.97,354.17 485.02,352.70 ZM 322.22 257.44 C315.16,252.50 325.23,235.89 336.72,233.52 C339.35,232.98 340.41,233.32 342.47,235.38 C343.86,236.77 345.00,238.85 345.00,240.00 C345.00,243.08 342.28,247.98 338.14,252.33 C331.92,258.88 326.68,260.56 322.22,257.44 ZM 355.38 233.98 C354.81,233.41 354.55,231.61 354.79,229.98 C355.11,227.82 355.77,227.00 357.22,227.00 C358.69,227.00 359.04,226.55 358.55,225.28 C358.19,224.33 358.20,223.87 358.58,224.25 C358.96,224.62 359.99,224.55 360.88,224.08 C363.27,222.83 367.00,224.59 367.00,226.97 C367.00,228.09 367.51,229.00 368.12,229.00 C369.82,229.00 367.14,231.87 363.87,233.57 C360.63,235.24 356.83,235.43 355.38,233.98 ZM 155.71 294.75 C152.22,291.45 147.00,282.33 147.00,279.53 C147.00,278.30 148.38,278.00 154.00,278.00 L 161.00 278.00 L 161.00 288.00 C161.00,293.50 160.58,298.00 160.07,298.00 C159.56,298.00 157.60,296.54 155.71,294.75 ZM 171.00 288.00 L 171.00 278.00 L 178.00 278.00 C186.33,278.00 186.50,278.40 181.83,287.16 C178.88,292.71 174.04,298.00 171.92,298.00 C171.42,298.00 171.00,293.50 171.00,288.00 ZM 189.72 292.38 C189.42,292.09 190.21,289.52 191.47,286.67 C192.72,283.83 194.02,280.71 194.34,279.75 C194.81,278.37 196.09,278.00 200.47,278.00 C203.71,278.00 206.00,278.44 206.00,279.06 C206.00,281.81 191.23,293.90 189.72,292.38 ZM 135.18 288.05 C130.33,284.21 127.00,280.42 127.00,278.73 C127.00,278.27 129.28,278.03 132.06,278.20 L 137.13 278.50 L 139.97 285.25 C143.35,293.28 142.46,293.80 135.18,288.05 ZM 119.93 265.32 C119.37,263.85 118.65,260.70 118.32,258.32 L 117.73 254.00 L 125.40 254.00 C133.94,254.00 133.54,253.63 134.43,262.25 L 135.02 268.00 L 127.98 268.00 C121.28,268.00 120.90,267.88 119.93,265.32 ZM 143.57 265.75 C143.32,264.51 142.83,261.36 142.49,258.75 L 141.88 254.00 L 151.44 254.00 L 161.00 254.00 L 161.00 261.00 L 161.00 268.00 L 152.52 268.00 C144.53,268.00 144.01,267.87 143.57,265.75 ZM 171.00 261.00 L 171.00 254.00 L 180.64 254.00 L 190.28 254.00 L 189.65 260.09 C189.30,263.43 188.76,266.58 188.45,267.09 C188.14,267.59 184.08,268.00 179.44,268.00 L 171.00 268.00 L 171.00 261.00 ZM 197.66 262.25 C198.42,253.63 198.00,254.00 206.97,254.00 C216.15,254.00 216.10,253.93 213.46,262.82 L 211.92 268.00 L 204.53 268.00 L 197.14 268.00 L 197.66 262.25 ZM 117.59 240.27 C119.11,230.11 118.74,230.50 127.01,230.50 L 134.37 230.50 L 134.10 236.97 C133.96,240.54 133.62,243.80 133.36,244.22 C133.10,244.65 129.28,245.00 124.88,245.00 L 116.88 245.00 L 117.59 240.27 ZM 142.36 243.49 C142.04,242.66 142.16,239.39 142.64,236.24 L 143.50 230.50 L 152.25 230.21 L 161.00 229.92 L 161.00 237.46 L 161.00 245.00 L 151.97 245.00 C144.83,245.00 142.82,244.68 142.36,243.49 ZM 171.00 237.50 L 171.00 230.00 L 179.88 230.00 C190.03,230.00 189.96,229.94 189.99,239.75 L 190.00 245.00 L 180.50 245.00 L 171.00 245.00 L 171.00 237.50 ZM 198.64 241.25 C198.30,239.19 198.02,235.81 198.01,233.75 L 198.00 230.00 L 204.88 230.00 C209.44,230.00 212.13,230.46 212.88,231.35 C213.49,232.10 214.29,235.47 214.64,238.85 L 215.28 245.00 L 207.27 245.00 L 199.26 245.00 L 198.64 241.25 ZM 199.18 220.04 C196.22,219.56 195.55,218.80 192.99,213.00 C191.40,209.43 190.53,206.35 191.05,206.17 C191.57,205.98 193.46,206.75 195.25,207.86 C199.22,210.33 208.80,219.95 207.46,220.13 C204.29,220.55 202.13,220.53 199.18,220.04 ZM 125.00 219.19 C125.00,218.00 134.92,208.65 137.86,207.07 C139.13,206.39 140.43,206.10 140.75,206.41 C141.06,206.73 140.22,209.80 138.87,213.24 L 136.43 219.50 L 130.71 219.80 C127.57,219.96 125.00,219.69 125.00,219.19 ZM 146.56 215.83 C148.95,209.07 156.88,200.00 160.40,200.00 C160.73,200.00 161.00,204.50 161.00,210.00 L 161.00 220.00 L 153.04 220.00 L 145.09 220.00 L 146.56 215.83 ZM 171.00 210.00 C171.00,198.35 171.54,197.88 177.69,204.25 C181.08,207.76 187.00,217.44 187.00,219.47 C187.00,219.76 183.40,220.00 179.00,220.00 L 171.00 220.00 L 171.00 210.00 Z" fill="rgb(254,241,232)"/>
</g>
</svg>