<svg xmlns="http://www.w3.org/2000/svg" width="836" height="1254" viewBox="0 0 836 1254">
<g>
<path d="M 632.18 700.89 C620.12,703.92 610.67,702.04 602.67,695.01 L 598.98 691.78 L 593.74 693.85 C585.73,697.01 581.94,697.35 574.87,695.56 C568.35,693.91 559.37,688.55 556.06,684.35 C554.28,682.08 554.09,682.06 549.98,683.51 C537.68,687.85 522.96,682.21 513.87,669.67 L 511.01 665.71 L 502.57 665.92 C495.28,666.09 493.37,665.76 488.58,663.49 C481.60,660.19 474.92,653.57 471.50,646.58 C468.89,641.25 468.79,641.18 463.03,640.16 C448.20,637.55 438.70,627.80 434.37,610.75 C433.05,605.52 431.85,603.52 427.07,598.50 C423.92,595.20 420.55,591.28 419.58,589.78 L 417.81 587.06 L 414.03 591.78 C411.95,594.38 408.63,598.03 406.66,599.91 C403.92,602.51 402.80,604.64 401.92,608.91 C400.16,617.38 396.65,624.39 391.34,630.06 C385.69,636.11 381.59,638.39 373.28,640.10 C367.34,641.33 367.11,641.50 364.91,646.20 C362.05,652.29 352.63,661.37 346.32,664.10 C342.34,665.82 340.04,666.11 333.15,665.77 L 324.81 665.35 L 322.54 668.93 C319.62,673.57 313.22,679.32 307.80,682.18 C302.72,684.86 290.59,685.38 285.28,683.14 C282.14,681.82 281.93,681.89 277.28,686.03 C274.65,688.37 269.65,691.62 266.18,693.27 C260.59,695.91 259.08,696.20 253.18,695.78 C249.31,695.50 244.65,694.40 242.11,693.17 L 237.71 691.04 L 234.33 694.02 C228.44,699.19 223.16,701.29 214.84,701.79 C206.00,702.32 200.51,700.84 193.35,696.00 L 188.75 692.90 L 184.97 695.52 C173.19,703.68 157.16,701.55 146.44,690.39 L 141.36 685.11 L 136.93 686.65 C123.40,691.37 103.74,683.21 97.05,670.11 C95.15,666.38 94.94,666.27 88.66,665.77 C80.03,665.07 72.17,661.33 65.96,654.96 C61.84,650.73 60.58,648.53 58.78,642.41 C57.29,637.34 56.11,635.00 55.05,634.99 C52.30,634.97 43.20,629.13 40.59,625.71 C35.13,618.55 33.80,613.74 34.10,602.16 C34.30,594.73 33.83,588.92 32.57,583.00 C30.48,573.21 30.86,556.73 33.35,548.90 C35.59,541.85 39.68,534.36 43.73,529.88 C50.41,522.49 63.44,517.73 72.42,519.42 C82.72,521.35 88.94,535.06 84.30,545.63 C83.02,548.54 82.58,552.46 82.55,561.50 C82.51,573.21 82.58,573.65 85.86,579.94 C92.01,591.74 104.80,602.81 118.87,608.53 C131.29,613.57 141.28,615.38 157.00,615.41 C176.59,615.46 192.68,611.87 211.93,603.16 L 216.36 601.16 L 212.43 600.46 C210.27,600.07 206.39,598.87 203.81,597.78 L 199.11 595.80 L 193.31 598.58 C181.67,604.16 167.55,601.66 159.15,592.54 C155.34,588.41 155.13,588.32 149.87,588.76 C143.01,589.33 137.45,587.82 131.35,583.74 C125.91,580.09 120.52,572.04 119.50,566.03 C118.98,562.93 118.36,562.12 116.18,561.67 C111.10,560.62 104.10,555.20 100.44,549.47 C94.06,539.50 92.70,531.58 95.79,522.50 L 97.50 517.50 L 94.25 512.65 C86.22,500.67 86.52,488.22 95.15,474.77 C97.99,470.34 98.25,469.22 98.37,460.73 C98.55,448.34 100.62,444.13 112.06,432.92 C122.62,422.59 124.99,418.96 125.00,413.17 C125.00,409.72 124.41,408.26 122.08,405.92 C118.38,402.22 116.11,402.24 112.52,405.98 C108.27,410.42 102.28,412.42 97.30,411.08 C87.41,408.42 82.76,402.44 82.81,392.47 C82.90,376.81 95.51,362.68 113.09,358.54 C130.91,354.34 147.31,359.02 160.00,371.91 C178.46,390.67 180.95,416.09 167.74,450.98 C160.02,471.38 158.33,483.79 161.58,496.30 C168.10,521.46 189.65,533.98 217.57,528.84 L 223.88 527.68 L 216.10 524.54 C195.23,516.12 182.65,499.47 180.52,477.43 C177.53,446.60 205.12,420.50 232.32,428.41 C244.40,431.92 254.00,443.60 254.00,454.80 C254.00,464.54 249.17,471.67 240.89,474.15 C237.38,475.20 236.50,475.03 230.65,472.15 C227.13,470.42 223.97,469.00 223.63,469.00 C222.12,469.00 223.20,475.00 225.25,478.04 C232.43,488.69 252.69,489.31 263.34,479.20 C272.16,470.83 272.22,461.63 263.57,440.50 C250.40,408.30 247.65,396.67 247.73,373.50 C247.81,349.66 252.06,331.97 263.09,309.50 C284.28,266.35 323.67,235.27 371.33,224.07 C378.02,222.50 387.85,220.72 393.17,220.11 C406.35,218.60 434.33,218.77 446.50,220.43 C495.24,227.09 535.28,251.79 562.03,291.70 C576.85,313.81 584.67,335.86 587.04,362.17 C589.17,385.71 586.07,404.07 575.41,431.20 C566.91,452.85 565.00,458.90 565.00,464.21 C565.00,476.79 576.51,486.45 591.50,486.44 C599.71,486.44 605.39,483.98 609.44,478.66 C611.95,475.37 613.01,469.00 611.04,469.00 C610.52,469.00 608.51,470.07 606.58,471.38 C591.34,481.72 574.96,463.81 583.23,445.84 C586.79,438.08 590.28,434.48 597.79,430.78 C603.91,427.77 605.24,427.50 613.98,427.50 C622.48,427.50 624.14,427.81 629.50,430.44 C636.61,433.92 645.42,442.46 649.22,449.57 C663.83,476.91 649.25,513.67 619.50,524.51 C616.75,525.51 614.12,526.66 613.66,527.06 C612.13,528.37 626.61,530.29 634.13,529.76 C652.59,528.48 667.26,516.86 673.01,498.97 C674.98,492.83 675.21,490.52 674.74,481.21 C674.29,472.16 673.64,468.95 670.53,460.50 C660.38,432.91 659.00,427.27 659.00,413.59 C659.00,402.83 661.55,391.49 665.72,383.68 C669.81,376.01 679.35,366.86 687.56,362.72 C715.55,348.63 749.85,363.28 751.78,390.17 C752.57,401.14 747.61,408.37 737.15,411.50 C733.49,412.59 726.19,410.04 722.20,406.29 C718.22,402.53 715.54,402.46 711.97,406.03 C709.37,408.63 709.25,417.35 711.77,421.16 C712.74,422.63 717.59,427.80 722.56,432.66 C734.69,444.52 737.28,449.70 736.89,461.21 C736.61,469.20 736.74,469.75 739.84,474.27 C744.56,481.13 746.23,486.49 746.28,495.00 C746.33,502.74 744.29,508.44 739.12,514.96 C737.27,517.29 737.26,517.59 738.82,520.46 C739.97,522.57 740.47,525.95 740.47,531.50 C740.46,538.33 740.05,540.29 737.63,544.91 C736.08,547.89 732.64,552.43 730.00,555.00 C725.70,559.19 723.43,560.56 717.81,562.35 C716.79,562.68 715.84,564.42 715.44,566.70 C713.99,575.01 706.92,583.36 698.10,587.20 C694.41,588.81 692.10,589.10 686.41,588.69 C679.47,588.19 679.29,588.24 677.66,591.00 C675.33,594.95 667.76,599.69 661.58,601.07 C655.26,602.48 647.81,601.18 641.25,597.52 C636.96,595.12 636.92,595.11 633.72,596.99 C631.95,598.02 628.34,599.41 625.69,600.07 L 620.88 601.27 L 625.19 603.22 C644.19,611.86 659.42,615.29 679.00,615.37 C694.44,615.43 704.13,613.71 716.09,608.80 C743.69,597.47 758.75,573.79 752.54,551.50 C749.30,539.87 749.12,538.63 750.04,533.80 C751.95,523.70 759.50,518.36 770.59,519.26 C785.91,520.48 796.95,530.92 802.65,549.54 C805.09,557.52 805.09,578.66 802.65,587.90 C801.28,593.10 801.16,595.37 802.01,600.05 C803.05,605.80 802.45,611.02 799.97,617.62 C797.08,625.33 788.66,633.32 782.05,634.64 C779.98,635.05 779.00,635.84 779.00,637.09 C779.00,638.10 778.09,641.37 776.97,644.36 C772.52,656.25 760.59,664.80 747.08,665.76 C740.43,666.24 740.08,666.39 738.85,669.38 C736.77,674.41 730.03,680.95 723.54,684.24 C715.85,688.13 706.46,689.04 699.03,686.60 L 693.96 684.95 L 688.73 690.31 C677.56,701.75 660.63,703.25 647.99,693.93 C646.80,693.05 645.35,693.58 641.17,696.39 C638.25,698.35 634.20,700.38 632.18,700.89 ZM 179.30 672.00 C192.99,673.45 228.79,672.38 243.00,670.11 C273.59,665.22 293.95,658.60 322.00,644.43 C347.19,631.71 369.66,615.36 388.05,596.36 C399.52,584.52 403.32,579.35 409.30,567.50 C411.79,562.55 414.51,557.61 415.33,556.51 C416.82,554.53 416.82,554.53 419.02,556.51 C420.23,557.61 423.03,562.10 425.24,566.50 C434.20,584.35 442.00,593.93 460.46,609.74 C492.65,637.30 538.38,659.78 577.91,667.46 C601.61,672.06 615.42,673.27 636.50,672.60 C656.87,671.96 669.45,670.40 685.73,666.50 C723.45,657.46 762.26,633.44 778.44,609.09 C795.42,583.55 797.46,554.60 783.36,538.97 C777.03,531.95 767.88,528.99 763.83,532.65 C761.49,534.77 761.52,537.82 764.00,547.50 C771.43,576.56 756.72,603.03 724.84,617.95 C686.50,635.89 637.63,628.78 596.07,599.21 C583.98,590.61 565.64,573.01 557.59,562.28 C545.82,546.60 536.47,524.90 537.18,514.93 C537.70,507.67 539.79,508.74 547.50,520.22 C560.46,539.49 580.13,556.57 600.24,565.99 C626.10,578.11 656.58,577.47 682.43,564.28 C695.09,557.82 706.81,546.11 712.72,534.00 C718.02,523.16 719.93,515.91 720.68,503.79 C721.73,486.98 718.48,473.41 706.57,444.74 C697.66,423.32 696.77,420.41 696.69,412.50 C696.64,407.17 697.14,404.51 698.78,401.35 C703.04,393.17 711.98,388.21 720.48,389.32 C723.67,389.74 725.34,390.79 728.55,394.42 C732.87,399.30 735.23,400.01 738.17,397.35 C742.82,393.14 738.52,381.39 730.24,375.68 C723.47,371.00 719.01,369.62 710.50,369.58 C703.55,369.54 701.62,369.95 695.80,372.69 C676.95,381.57 668.35,402.49 673.49,426.94 C674.31,430.83 677.04,439.52 679.56,446.26 C685.82,462.99 687.98,472.59 687.99,483.70 C688.01,501.72 683.21,513.98 671.60,525.61 C652.52,544.73 625.65,548.18 598.42,535.02 C577.15,524.73 556.66,500.41 552.50,480.50 C549.37,465.53 551.05,455.60 560.96,430.50 C571.78,403.12 575.08,384.66 572.99,363.37 C569.65,329.48 555.98,301.01 531.05,276.00 C524.70,269.63 516.00,262.04 511.72,259.13 C495.34,247.99 472.54,238.60 451.50,234.33 C444.17,232.84 437.85,232.51 417.50,232.53 C395.41,232.56 391.28,232.83 382.00,234.82 C343.74,243.03 313.83,261.15 291.33,289.75 C267.58,319.92 257.23,356.42 262.50,391.37 C264.39,403.89 266.57,411.16 274.52,431.45 C278.05,440.43 281.71,451.74 282.66,456.57 C284.26,464.73 284.27,466.04 282.81,474.64 C280.12,490.41 271.30,505.71 257.05,519.33 C245.61,530.26 231.77,537.79 216.25,541.53 C207.12,543.72 193.12,543.12 184.83,540.18 C167.55,534.04 153.18,518.32 148.53,500.45 C146.58,492.97 146.57,476.68 148.52,467.50 C149.33,463.65 151.76,455.55 153.92,449.50 C156.08,443.45 158.79,435.37 159.95,431.55 C167.60,406.33 159.69,383.49 139.88,373.57 C128.00,367.63 116.64,367.87 105.89,374.30 C96.65,379.82 91.12,392.16 95.65,397.17 C97.80,399.55 102.85,399.59 103.68,397.25 C104.02,396.29 105.42,394.28 106.80,392.79 C114.43,384.52 132.73,391.61 136.49,404.29 C139.44,414.22 138.64,417.96 127.66,445.50 C117.34,471.40 114.96,480.42 114.30,496.00 C113.86,506.46 114.12,509.92 115.86,517.21 C121.27,539.82 134.20,556.02 154.50,565.60 C165.80,570.93 172.48,572.69 187.10,574.19 C197.24,575.22 200.08,575.15 209.54,573.61 C226.45,570.85 240.18,564.91 255.03,553.93 C268.92,543.66 283.62,527.39 291.34,513.77 C292.87,511.07 294.08,510.04 295.50,510.23 C297.24,510.46 297.49,511.22 297.40,516.05 C297.19,526.99 288.07,547.91 277.06,562.66 C270.05,572.06 252.47,589.32 241.75,597.32 C202.26,626.82 155.52,635.50 116.06,620.68 C103.42,615.93 96.70,611.66 87.49,602.50 C71.32,586.42 66.03,568.96 71.01,548.19 C73.41,538.16 73.51,534.65 71.43,532.57 C69.23,530.37 65.34,530.63 59.46,533.37 C42.14,541.43 37.35,569.94 48.99,595.64 C57.98,615.48 79.00,635.28 107.00,650.30 C128.34,661.74 153.47,669.28 179.30,672.00 ZM 199.74 943.10 C181.45,946.64 156.85,944.90 142.00,939.02 C102.63,923.41 80.88,890.24 79.25,843.33 C78.03,808.55 88.48,780.25 110.25,759.35 C128.22,742.11 150.33,733.74 178.00,733.71 C206.84,733.69 228.21,741.64 246.64,759.27 C260.58,772.61 269.71,788.76 275.24,809.85 C278.06,820.61 278.30,822.84 278.38,839.00 C278.44,852.51 278.04,858.44 276.62,865.00 C267.38,907.58 240.12,935.27 199.74,943.10 ZM 681.74 943.10 C648.93,949.46 614.28,939.77 591.99,918.00 C578.96,905.27 570.97,891.01 565.38,870.50 C562.84,861.17 562.65,859.13 562.61,840.00 C562.57,821.90 562.82,818.54 564.77,811.31 C572.47,782.78 584.30,764.31 603.24,751.26 C612.43,744.93 618.45,741.94 628.50,738.71 C661.73,728.03 697.93,733.84 723.00,753.88 C737.19,765.22 748.96,782.93 754.33,801.00 C758.92,816.45 759.48,820.68 759.43,840.00 C759.38,856.52 759.10,859.63 756.76,869.00 C751.31,890.85 744.14,904.01 730.06,918.00 C716.02,931.95 702.20,939.13 681.74,943.10 ZM 375.17 940.97 C369.81,942.46 348.26,942.19 343.74,940.57 C336.77,938.08 335.06,935.47 331.32,921.56 C329.97,916.58 328.20,910.03 327.38,907.00 C326.56,903.97 325.05,898.35 324.02,894.50 C322.99,890.65 319.85,878.95 317.02,868.50 C314.20,858.05 311.04,846.35 310.00,842.50 C306.36,829.01 297.86,797.45 296.53,792.50 C295.79,789.75 293.76,782.33 292.03,776.00 L 291.40 773.70 C284.82,749.75 283.48,744.85 285.33,742.18 C285.87,741.41 286.67,740.83 287.69,740.03 C290.05,738.17 291.71,738.00 307.18,738.00 C325.87,738.00 328.76,738.70 331.46,743.93 C332.82,746.56 334.88,754.58 346.99,804.50 C351.71,823.94 358.34,851.64 360.88,862.50 L 362.75 870.50 L 364.97 863.00 C367.56,854.26 370.88,842.61 373.80,832.00 C374.94,827.88 377.90,817.30 380.38,808.50 C393.81,760.75 398.25,745.39 399.11,743.79 C401.18,739.92 405.23,739.00 420.23,739.00 L 420.89 739.00 C429.85,739.00 434.49,739.00 437.49,741.22 C440.78,743.65 442.09,748.77 444.97,759.50 C446.74,766.10 448.78,773.53 449.51,776.00 C451.37,782.33 456.07,799.52 461.53,820.00 C464.10,829.62 467.00,840.42 467.98,844.00 C468.96,847.58 470.79,854.47 472.04,859.33 C473.38,864.51 474.62,867.61 475.04,866.83 C475.44,866.10 477.65,857.40 479.96,847.50 C482.27,837.60 486.80,818.70 490.01,805.50 C493.23,792.30 497.69,773.95 499.93,764.72 C502.17,755.49 504.66,746.36 505.46,744.43 C507.79,738.86 511.16,738.00 530.79,738.00 C547.12,738.00 547.72,738.07 549.83,740.31 C552.51,743.17 552.56,746.50 550.07,755.52 C548.00,763.00 547.46,765.01 537.00,804.00 C533.24,818.03 529.25,832.89 528.13,837.04 C525.44,847.06 521.24,862.84 518.97,871.50 C509.56,907.44 502.63,931.95 501.18,934.44 C497.63,940.52 494.26,941.50 477.00,941.50 C460.13,941.50 457.03,940.67 452.88,935.00 C451.87,933.62 448.38,923.05 445.12,911.50 C422.79,832.38 418.63,818.04 418.15,818.51 C417.72,818.94 395.86,894.31 390.60,913.50 C385.00,933.92 382.12,939.04 375.17,940.97 ZM 712.30 319.28 C686.87,344.25 684.86,346.00 681.50,346.00 C678.14,346.00 676.04,344.20 650.37,319.25 C617.07,286.90 615.39,284.95 611.02,273.50 C604.81,257.22 610.94,237.45 625.24,227.66 C633.20,222.20 638.13,220.76 649.00,220.71 C660.92,220.65 667.25,222.91 675.27,230.05 L 680.95 235.12 L 685.22 231.01 C696.19,220.48 714.18,217.37 730.00,223.26 C737.77,226.16 747.75,236.30 750.90,244.50 C755.30,255.98 754.48,268.20 748.51,279.99 C745.05,286.80 742.16,289.94 712.30,319.28 ZM 164.10 901.42 C171.88,903.51 187.11,903.40 195.06,901.19 C208.74,897.40 219.93,886.41 225.89,870.93 C230.08,860.02 231.37,850.35 230.77,834.24 C230.34,822.72 229.82,819.21 227.51,812.50 C220.10,790.91 207.01,778.88 187.67,775.91 C170.66,773.29 154.62,778.47 143.31,790.26 C136.54,797.30 133.30,803.03 129.85,814.03 C127.72,820.79 127.50,823.32 127.52,840.50 C127.54,859.09 127.61,859.68 130.58,868.04 C137.02,886.15 148.00,897.09 164.10,901.42 ZM 647.50 901.59 C654.23,903.26 670.33,903.29 676.50,901.64 C688.90,898.33 699.10,889.57 705.22,877.00 C710.66,865.80 712.11,859.28 712.71,843.26 C713.18,830.88 712.96,827.77 711.04,819.46 C705.15,793.98 691.04,779.15 669.64,775.96 C641.79,771.82 619.75,787.35 611.84,816.70 C608.96,827.37 608.71,849.00 611.33,860.50 C616.29,882.29 629.30,897.07 647.50,901.59 ZM 654.15 304.25 C668.52,318.41 680.72,330.00 681.26,330.00 C682.72,330.00 729.73,283.17 732.96,278.50 C737.58,271.82 740.36,262.81 739.72,256.61 C738.75,247.16 734.01,240.51 725.00,235.93 C719.24,233.01 709.50,232.73 702.84,235.30 C697.57,237.33 690.33,244.48 687.08,250.84 C683.27,258.30 678.17,257.51 673.19,248.68 C665.96,235.87 652.27,230.26 639.73,234.98 C632.64,237.66 628.78,240.81 625.23,246.86 C622.91,250.80 622.50,252.62 622.51,259.00 C622.52,272.44 623.96,274.51 654.15,304.25 ZM 512.69 421.46 C502.15,425.80 490.27,422.81 482.64,413.89 C469.80,398.89 476.50,372.79 494.79,366.55 C507.96,362.07 521.11,368.29 527.37,381.95 C530.37,388.49 530.25,399.68 527.11,406.73 C524.57,412.41 517.75,419.38 512.69,421.46 ZM 343.87 420.56 C334.24,425.44 320.19,422.77 313.48,414.79 C307.89,408.15 306.51,404.14 306.51,394.50 C306.51,387.09 306.91,384.76 308.76,381.28 C317.94,364.05 336.65,359.69 349.97,371.66 C356.58,377.61 359.43,384.33 359.45,394.00 C359.46,405.92 353.84,415.51 343.87,420.56 ZM 590.26 510.10 C596.05,512.90 597.14,513.09 605.50,512.74 C616.20,512.30 620.59,510.40 628.79,502.64 C644.47,487.81 646.03,463.10 632.20,448.63 C622.36,438.34 606.66,437.10 597.84,445.93 C592.26,451.51 591.43,458.55 596.07,461.03 C597.72,461.92 598.95,461.64 602.48,459.56 C610.20,455.04 619.23,456.70 622.64,463.27 C625.01,467.83 624.83,476.50 622.25,481.52 C618.76,488.34 611.20,494.55 603.52,496.92 C599.82,498.06 595.36,499.00 593.60,499.00 C589.58,499.00 579.94,496.51 574.27,494.00 L 569.92 492.08 L 571.87 494.82 C575.64,500.11 584.07,507.12 590.26,510.10 ZM 216.50 510.17 C221.93,512.82 223.31,513.07 231.00,512.80 C237.94,512.55 240.57,511.98 245.31,509.65 C251.17,506.77 260.61,498.47 262.90,494.18 C264.11,491.92 264.09,491.90 261.82,493.37 C258.65,495.43 245.37,499.00 240.88,499.00 C230.44,499.00 218.62,492.33 213.46,483.52 C208.34,474.79 209.78,462.81 216.47,458.43 C220.47,455.81 226.95,456.27 231.87,459.53 C235.79,462.13 236.08,462.18 238.49,460.60 C244.09,456.93 240.42,446.49 232.03,442.25 C226.76,439.59 217.80,439.22 212.47,441.45 C208.72,443.01 201.70,448.03 202.34,448.67 C202.56,448.89 201.52,450.37 200.03,451.97 C196.68,455.56 193.00,466.45 193.00,472.81 C193.00,479.02 195.49,488.46 198.46,493.50 C202.17,499.79 209.95,506.98 216.50,510.17 ZM 432.40 439.15 C424.20,442.78 409.15,442.24 401.22,438.04 C393.49,433.94 388.00,427.03 388.00,421.40 C388.00,415.36 394.57,414.34 397.46,419.92 C399.35,423.58 405.34,428.78 408.77,429.74 C410.27,430.16 414.42,430.49 418.00,430.48 C426.77,430.46 432.72,427.53 437.50,420.87 C441.58,415.19 444.41,414.68 446.91,419.15 C448.25,421.54 448.21,422.20 446.53,425.93 C444.27,430.95 438.28,436.55 432.40,439.15 ZM 315.33 333.62 C309.27,338.53 305.00,337.82 305.00,331.90 C305.00,328.24 314.52,319.50 320.30,317.85 C330.41,314.96 341.00,317.25 341.00,322.32 C341.00,325.97 339.07,327.00 332.25,327.00 C325.25,327.00 321.88,328.32 315.33,333.62 ZM 528.80 335.80 C526.67,337.93 523.10,337.08 519.14,333.51 C513.92,328.79 509.22,327.00 502.07,327.00 C497.06,327.00 495.89,326.66 494.98,324.96 C491.68,318.80 499.56,314.92 510.28,317.41 C516.39,318.83 524.90,323.79 528.02,327.75 C530.25,330.59 530.59,334.01 528.80,335.80 ZM 162.89 688.62 C164.87,689.33 167.18,689.93 168.00,689.95 C170.86,690.02 176.85,687.94 179.17,686.07 L 181.49 684.18 L 178.00 683.61 C168.59,682.06 156.20,679.89 153.64,679.34 C151.00,678.77 150.87,678.88 151.89,680.79 C153.31,683.44 158.26,686.97 162.89,688.62 ZM 658.37 687.61 C663.41,689.89 672.94,688.97 677.84,685.72 C680.08,684.24 682.43,682.06 683.07,680.88 C684.14,678.86 684.04,678.76 681.36,679.35 C679.79,679.69 674.00,680.70 668.50,681.60 C656.71,683.52 654.42,683.88 654.33,684.53 C654.31,684.69 654.42,684.87 654.55,685.08 L 654.58 685.13 C654.94,685.72 656.65,686.83 658.37,687.61 ZM 118.03 675.89 C121.73,677.36 131.33,677.21 133.48,675.64 C135.17,674.40 134.71,674.07 128.42,672.00 C124.61,670.75 118.63,668.44 115.11,666.86 C106.68,663.08 105.48,663.10 107.47,666.95 C109.12,670.12 114.04,674.30 118.03,675.89 ZM 615.68 690.55 C620.34,692.21 624.94,692.35 628.68,690.94 C631.74,689.79 637.98,685.81 637.99,685.00 C638.00,684.72 631.25,684.50 623.00,684.50 C614.75,684.50 608.00,684.77 608.00,685.10 C608.00,686.38 612.06,689.26 615.68,690.55 ZM 703.75 676.70 C708.67,677.88 716.22,676.64 720.58,673.95 C723.70,672.02 729.00,665.65 729.00,663.83 C729.00,663.45 725.74,664.62 721.75,666.45 C717.76,668.28 711.24,670.81 707.25,672.08 C703.26,673.35 700.00,674.71 700.00,675.10 C700.00,675.48 701.69,676.21 703.75,676.70 ZM 205.68 690.55 C210.94,692.42 215.77,692.29 220.50,690.14 C224.18,688.46 227.83,685.34 226.89,684.67 C226.68,684.52 220.04,684.64 212.14,684.95 C198.09,685.49 197.82,685.54 199.82,687.35 C200.95,688.36 203.58,689.80 205.68,690.55 ZM 331.15 655.11 C334.96,657.53 344.27,655.01 349.34,650.20 C351.82,647.84 356.00,641.14 356.00,639.51 C356.00,639.20 353.64,640.44 350.75,642.28 C347.86,644.12 341.97,647.56 337.65,649.94 C332.04,653.02 330.18,654.50 331.15,655.11 ZM 115.39 549.53 C119.22,551.15 119.81,549.95 117.08,546.11 C115.93,544.50 113.12,539.28 110.83,534.51 C106.84,526.18 106.61,525.92 105.37,528.16 C101.78,534.64 107.12,546.03 115.39,549.53 ZM 685.44 577.58 C687.97,579.43 690.36,579.37 694.30,577.38 C700.45,574.28 705.00,568.61 705.00,564.05 C705.00,561.31 703.85,561.47 700.92,564.59 C699.59,566.02 695.35,569.03 691.50,571.29 C687.65,573.54 684.28,575.56 684.00,575.77 C683.73,575.99 684.38,576.80 685.44,577.58 ZM 715.00 550.46 C715.00,550.68 716.46,550.45 718.25,549.95 C722.54,548.74 728.54,542.26 730.07,537.17 C731.03,533.94 731.03,532.48 730.02,530.05 C729.33,528.37 728.44,527.00 728.06,527.00 C727.68,527.00 726.35,529.47 725.10,532.48 C723.85,535.49 721.06,540.68 718.91,544.01 C716.76,547.34 715.00,550.25 715.00,550.46 ZM 492.50 654.34 C495.70,656.03 501.22,656.36 504.50,655.07 C506.17,654.42 505.26,653.66 499.00,650.51 C494.88,648.43 489.09,645.19 486.14,643.31 C483.19,641.43 480.57,640.09 480.32,640.35 C478.67,641.99 486.83,651.37 492.50,654.34 ZM 290.25 673.92 C297.75,676.19 307.59,672.25 312.34,665.06 C313.82,662.83 314.83,661.00 314.60,661.00 C314.36,661.00 311.02,662.51 307.17,664.35 C303.33,666.19 297.22,668.55 293.59,669.59 C289.97,670.63 287.00,671.81 287.00,672.21 C287.00,672.61 288.46,673.38 290.25,673.92 ZM 141.00 577.93 C143.73,579.06 149.79,578.61 151.24,577.16 C151.78,576.62 149.54,574.79 145.62,572.60 C142.03,570.60 137.14,567.46 134.75,565.64 C130.80,562.62 130.39,562.50 130.25,564.31 C129.94,568.43 135.69,575.72 141.00,577.93 ZM 533.50 673.51 C538.50,675.26 541.67,675.28 545.50,673.57 C547.68,672.61 548.09,672.08 547.00,671.66 C546.17,671.34 542.56,669.99 538.96,668.66 C535.37,667.34 530.04,665.04 527.12,663.56 C524.19,662.08 521.55,661.12 521.23,661.43 C520.92,661.74 521.22,662.00 521.89,662.00 C522.57,662.00 522.87,662.40 522.57,662.89 C521.59,664.48 529.39,672.07 533.50,673.51 ZM 321.22 386.44 C324.38,388.65 326.71,388.38 329.64,385.45 C331.63,383.46 332.04,382.31 331.52,380.21 C331.14,378.72 330.37,376.95 329.80,376.26 C328.33,374.49 322.45,374.69 320.57,376.57 C318.18,378.96 318.55,384.57 321.22,386.44 ZM 101.28 505.63 L 103.50 508.46 L 104.14 496.74 C104.49,490.29 105.06,483.88 105.41,482.51 C106.35,478.76 104.39,479.46 101.43,483.93 C96.99,490.64 96.92,500.08 101.28,505.63 ZM 173.09 589.69 C174.97,590.35 178.07,590.90 180.00,590.92 C183.91,590.96 192.43,587.50 191.62,586.20 C191.34,585.74 188.75,585.25 185.86,585.12 C182.98,584.99 177.44,584.28 173.56,583.54 C169.68,582.80 166.31,582.39 166.07,582.62 C165.03,583.61 169.99,588.61 173.09,589.69 ZM 649.50 589.84 C653.77,591.42 661.66,590.64 664.75,588.34 C667.58,586.23 669.70,583.36 668.96,582.65 C668.71,582.40 665.35,582.81 661.50,583.56 C657.65,584.31 652.14,584.94 649.25,584.96 C642.26,585.01 642.37,587.21 649.50,589.84 ZM 491.17 386.40 C494.15,388.49 497.32,388.43 499.19,386.25 C504.51,380.06 499.01,372.25 492.07,376.13 C488.45,378.15 487.93,384.14 491.17,386.40 ZM 573.00 684.41 C577.60,686.40 584.34,686.40 588.20,684.40 C590.59,683.16 590.97,682.60 589.90,681.91 C589.13,681.43 587.60,681.02 586.50,681.00 C585.40,680.99 579.89,679.94 574.25,678.66 C568.61,677.39 564.00,676.63 564.00,676.99 C564.00,678.31 569.63,682.95 573.00,684.41 ZM 731.13 500.75 C731.27,506.44 731.57,507.77 732.56,506.95 C734.93,504.99 737.00,499.20 737.00,494.55 C737.00,489.28 735.40,485.63 731.51,482.00 L 728.84 479.50 L 729.36 482.00 C730.31,486.50 730.96,493.37 731.13,500.75 ZM 80.68 653.55 C85.01,655.09 85.76,655.15 88.34,654.13 C89.88,653.53 89.29,652.81 84.74,649.79 C81.74,647.80 76.78,644.13 73.72,641.63 C68.32,637.24 68.17,637.18 68.64,639.78 C69.72,645.76 74.66,651.40 80.68,653.55 ZM 208.75 588.43 C212.86,590.66 220.61,590.40 224.64,587.91 C227.75,585.99 230.67,582.34 229.79,581.46 C229.59,581.26 227.19,581.71 224.46,582.47 C221.73,583.23 216.46,584.15 212.75,584.51 C209.04,584.87 206.00,585.56 206.00,586.05 C206.00,586.54 207.24,587.61 208.75,588.43 ZM 608.72 586.08 C612.58,589.68 613.38,590.00 618.56,590.00 C623.71,590.00 630.00,587.76 630.00,585.92 C630.00,585.57 626.64,584.97 622.53,584.60 C618.42,584.23 612.93,583.28 610.33,582.50 C607.72,581.71 605.35,581.32 605.05,581.61 C604.76,581.91 606.40,583.92 608.72,586.08 ZM 249.18 684.86 C253.69,686.16 254.46,686.17 259.44,684.91 C263.46,683.90 271.00,678.81 271.00,677.10 C271.00,675.93 246.66,681.51 246.24,682.78 C246.03,683.40 247.36,684.34 249.18,684.86 ZM 745.46 653.94 C746.24,655.20 751.23,654.93 754.80,653.44 C760.87,650.90 765.43,645.78 767.46,639.20 C768.00,637.42 766.33,638.39 759.97,643.52 C755.46,647.16 750.27,650.86 748.43,651.73 C746.59,652.61 745.26,653.60 745.46,653.94 ZM 108.00 458.95 C108.00,462.28 108.34,464.99 108.75,464.99 C109.16,464.98 111.49,459.92 113.93,453.74 C116.36,447.56 118.73,442.07 119.18,441.55 C119.63,441.03 120.00,440.15 120.00,439.59 C120.00,438.10 111.07,447.05 109.42,450.20 C108.64,451.69 108.00,455.62 108.00,458.95 ZM 721.01 454.53 C724.34,462.82 725.53,464.89 726.11,463.42 C727.39,460.14 727.07,454.95 725.36,451.34 C723.43,447.28 715.10,437.92 715.04,439.75 C715.02,440.44 715.38,441.00 715.83,441.00 C716.29,441.00 716.67,441.61 716.67,442.36 C716.67,443.11 718.62,448.58 721.01,454.53 ZM 369.00 629.59 C369.00,630.52 373.32,629.89 376.75,628.46 C381.48,626.48 383.64,624.53 387.15,619.05 C391.57,612.16 390.56,611.18 384.74,616.68 C381.85,619.42 377.12,623.35 374.24,625.42 C371.36,627.49 369.00,629.37 369.00,629.59 ZM 458.66 628.54 C465.31,630.92 467.43,629.88 462.25,626.79 C460.74,625.88 456.95,622.86 453.84,620.07 C447.05,613.99 445.23,613.59 447.88,618.75 C450.40,623.66 453.91,626.85 458.66,628.54 ZM 49.12 620.49 C54.14,625.02 56.11,625.03 52.13,620.50 C50.44,618.57 48.03,615.20 46.78,613.01 C43.87,607.92 42.94,607.91 44.23,612.99 C44.88,615.55 46.63,618.24 49.12,620.49 ZM 786.25 616.51 C780.64,624.73 780.88,626.12 786.87,620.13 C789.32,617.68 790.92,615.03 791.25,612.88 C791.53,611.02 791.67,609.39 791.56,609.26 C791.45,609.13 789.06,612.40 786.25,616.51 Z" fill="rgb(3,44,54)"/>
<path d="M 654.15 304.25 C623.96,274.51 622.52,272.44 622.51,259.00 C622.50,252.62 622.91,250.80 625.23,246.86 C628.78,240.81 632.64,237.66 639.73,234.98 C652.27,230.26 665.96,235.87 673.19,248.68 C678.17,257.51 683.27,258.30 687.08,250.84 C690.33,244.48 697.57,237.33 702.84,235.30 C709.50,232.73 719.24,233.01 725.00,235.93 C734.01,240.51 738.75,247.16 739.72,256.61 C740.36,262.81 737.58,271.82 732.96,278.50 C729.73,283.17 682.72,330.00 681.26,330.00 C680.72,330.00 668.52,318.41 654.15,304.25 ZM 162.89 688.62 C158.26,686.97 153.31,683.44 151.89,680.79 C150.87,678.88 151.00,678.77 153.64,679.34 C156.20,679.89 168.59,682.06 178.00,683.61 L 181.49 684.18 L 179.17 686.07 C176.85,687.94 170.86,690.02 168.00,689.95 C167.18,689.93 164.87,689.33 162.89,688.62 ZM 658.37 687.61 C656.65,686.83 654.94,685.72 654.58,685.13 L 654.55 685.08 C654.42,684.87 654.31,684.69 654.33,684.53 C654.42,683.88 656.71,683.52 668.50,681.60 C674.00,680.70 679.79,679.69 681.36,679.35 C684.04,678.76 684.14,678.86 683.07,680.88 C682.43,682.06 680.08,684.24 677.84,685.72 C672.94,688.97 663.41,689.89 658.37,687.61 ZM 118.03 675.89 C114.04,674.30 109.12,670.12 107.47,666.95 C105.48,663.10 106.68,663.08 115.11,666.86 C118.63,668.44 124.61,670.75 128.42,672.00 C134.71,674.07 135.17,674.40 133.48,675.64 C131.33,677.21 121.73,677.36 118.03,675.89 ZM 615.68 690.55 C612.06,689.26 608.00,686.38 608.00,685.10 C608.00,684.77 614.75,684.50 623.00,684.50 C631.25,684.50 638.00,684.72 637.99,685.00 C637.98,685.81 631.74,689.79 628.68,690.94 C624.94,692.35 620.34,692.21 615.68,690.55 ZM 703.75 676.70 C701.69,676.21 700.00,675.48 700.00,675.10 C700.00,674.71 703.26,673.35 707.25,672.08 C711.24,670.81 717.76,668.28 721.75,666.45 C725.74,664.62 729.00,663.45 729.00,663.83 C729.00,665.65 723.70,672.02 720.58,673.95 C716.22,676.64 708.67,677.88 703.75,676.70 ZM 205.68 690.55 C203.58,689.80 200.95,688.36 199.82,687.35 C197.82,685.54 198.09,685.49 212.14,684.95 C220.04,684.64 226.68,684.52 226.89,684.67 C227.83,685.34 224.18,688.46 220.50,690.14 C215.77,692.29 210.94,692.42 205.68,690.55 ZM 331.15 655.11 C330.18,654.50 332.04,653.02 337.65,649.94 C341.97,647.56 347.86,644.12 350.75,642.28 C353.64,640.44 356.00,639.20 356.00,639.51 C356.00,641.14 351.82,647.84 349.34,650.20 C344.27,655.01 334.96,657.53 331.15,655.11 ZM 115.39 549.53 C107.12,546.03 101.78,534.64 105.37,528.16 C106.61,525.92 106.84,526.18 110.83,534.51 C113.12,539.28 115.93,544.50 117.08,546.11 C119.81,549.95 119.22,551.15 115.39,549.53 ZM 685.44 577.58 C684.38,576.80 683.73,575.99 684.00,575.77 C684.28,575.56 687.65,573.54 691.50,571.29 C695.35,569.03 699.59,566.02 700.92,564.59 C703.85,561.47 705.00,561.31 705.00,564.05 C705.00,568.61 700.45,574.28 694.30,577.38 C690.36,579.37 687.97,579.43 685.44,577.58 ZM 715.00 550.46 C715.00,550.25 716.76,547.34 718.91,544.01 C721.06,540.68 723.85,535.49 725.10,532.48 C726.35,529.47 727.68,527.00 728.06,527.00 C728.44,527.00 729.33,528.37 730.02,530.05 C731.03,532.48 731.03,533.94 730.07,537.17 C728.54,542.26 722.54,548.74 718.25,549.95 C716.46,550.45 715.00,550.68 715.00,550.46 ZM 492.50 654.34 C486.83,651.37 478.67,641.99 480.32,640.35 C480.57,640.09 483.19,641.43 486.14,643.31 C489.09,645.19 494.88,648.43 499.00,650.51 C505.26,653.66 506.17,654.42 504.50,655.07 C501.22,656.36 495.70,656.03 492.50,654.34 ZM 290.25 673.92 C288.46,673.38 287.00,672.61 287.00,672.21 C287.00,671.81 289.97,670.63 293.59,669.59 C297.22,668.55 303.33,666.19 307.17,664.35 C311.02,662.51 314.36,661.00 314.60,661.00 C314.83,661.00 313.82,662.83 312.34,665.06 C307.59,672.25 297.75,676.19 290.25,673.92 ZM 141.00 577.93 C135.69,575.72 129.94,568.43 130.25,564.31 C130.39,562.50 130.80,562.62 134.75,565.64 C137.14,567.46 142.03,570.60 145.62,572.60 C149.54,574.79 151.78,576.62 151.24,577.16 C149.79,578.61 143.73,579.06 141.00,577.93 ZM 533.50 673.51 C529.39,672.07 521.59,664.48 522.57,662.89 C522.87,662.40 522.57,662.00 521.89,662.00 C521.22,662.00 520.92,661.74 521.23,661.43 C521.55,661.12 524.19,662.08 527.12,663.56 C530.04,665.04 535.37,667.34 538.96,668.66 C542.56,669.99 546.17,671.34 547.00,671.66 C548.09,672.08 547.68,672.61 545.50,673.57 C541.67,675.28 538.50,675.26 533.50,673.51 ZM 101.28 505.63 C96.92,500.08 96.99,490.64 101.43,483.93 C104.39,479.46 106.35,478.76 105.41,482.51 C105.06,483.88 104.49,490.29 104.14,496.74 L 103.50 508.46 ZM 173.09 589.69 C169.99,588.61 165.03,583.61 166.07,582.62 C166.31,582.39 169.68,582.80 173.56,583.54 C177.44,584.28 182.98,584.99 185.86,585.12 C188.75,585.25 191.34,585.74 191.62,586.20 C192.43,587.50 183.91,590.96 180.00,590.92 C178.07,590.90 174.97,590.35 173.09,589.69 ZM 649.50 589.84 C642.37,587.21 642.26,585.01 649.25,584.96 C652.14,584.94 657.65,584.31 661.50,583.56 C665.35,582.81 668.71,582.40 668.96,582.65 C669.70,583.36 667.58,586.23 664.75,588.34 C661.66,590.64 653.77,591.42 649.50,589.84 ZM 573.00 684.41 C569.63,682.95 564.00,678.31 564.00,676.99 C564.00,676.63 568.61,677.39 574.25,678.66 C579.89,679.94 585.40,680.99 586.50,681.00 C587.60,681.02 589.13,681.43 589.90,681.91 C590.97,682.60 590.59,683.16 588.20,684.40 C584.34,686.40 577.60,686.40 573.00,684.41 ZM 731.13 500.75 C730.96,493.37 730.31,486.50 729.36,482.00 L 728.84 479.50 L 731.51 482.00 C735.40,485.63 737.00,489.28 737.00,494.55 C737.00,499.20 734.93,504.99 732.56,506.95 C731.57,507.77 731.27,506.44 731.13,500.75 ZM 80.68 653.55 C74.66,651.40 69.72,645.76 68.64,639.78 C68.17,637.18 68.32,637.24 73.72,641.63 C76.78,644.13 81.74,647.80 84.74,649.79 C89.29,652.81 89.88,653.53 88.34,654.13 C85.76,655.15 85.01,655.09 80.68,653.55 ZM 208.75 588.43 C207.24,587.61 206.00,586.54 206.00,586.05 C206.00,585.56 209.04,584.87 212.75,584.51 C216.46,584.15 221.73,583.23 224.46,582.47 C227.19,581.71 229.59,581.26 229.79,581.46 C230.67,582.34 227.75,585.99 224.64,587.91 C220.61,590.40 212.86,590.66 208.75,588.43 ZM 608.72 586.08 C606.40,583.92 604.76,581.91 605.05,581.61 C605.35,581.32 607.72,581.71 610.33,582.50 C612.93,583.28 618.42,584.23 622.53,584.60 C626.64,584.97 630.00,585.57 630.00,585.92 C630.00,587.76 623.71,590.00 618.56,590.00 C613.38,590.00 612.58,589.68 608.72,586.08 ZM 249.18 684.86 C247.36,684.34 246.03,683.40 246.24,682.78 C246.66,681.51 271.00,675.93 271.00,677.10 C271.00,678.81 263.46,683.90 259.44,684.91 C254.46,686.17 253.69,686.16 249.18,684.86 ZM 745.46 653.94 C745.26,653.60 746.59,652.61 748.43,651.73 C750.27,650.86 755.46,647.16 759.97,643.52 C766.33,638.39 768.00,637.42 767.46,639.20 C765.43,645.78 760.87,650.90 754.80,653.44 C751.23,654.93 746.24,655.20 745.46,653.94 ZM 108.00 458.95 C108.00,455.62 108.64,451.69 109.42,450.20 C111.07,447.05 120.00,438.10 120.00,439.59 C120.00,440.15 119.63,441.03 119.18,441.55 C118.73,442.07 116.36,447.56 113.93,453.74 C111.49,459.92 109.16,464.98 108.75,464.99 C108.34,464.99 108.00,462.28 108.00,458.95 ZM 721.01 454.53 C718.62,448.58 716.67,443.11 716.67,442.36 C716.67,441.61 716.29,441.00 715.83,441.00 C715.38,441.00 715.02,440.44 715.04,439.75 C715.10,437.92 723.43,447.28 725.36,451.34 C727.07,454.95 727.39,460.14 726.11,463.42 C725.53,464.89 724.34,462.82 721.01,454.53 ZM 369.00 629.59 C369.00,629.37 371.36,627.49 374.24,625.42 C377.12,623.35 381.85,619.42 384.74,616.68 C390.56,611.18 391.57,612.16 387.15,619.05 C383.64,624.53 381.48,626.48 376.75,628.46 C373.32,629.89 369.00,630.52 369.00,629.59 ZM 458.66 628.54 C453.91,626.85 450.40,623.66 447.88,618.75 C445.23,613.59 447.05,613.99 453.84,620.07 C456.95,622.86 460.74,625.88 462.25,626.79 C467.43,629.88 465.31,630.92 458.66,628.54 ZM 49.12 620.49 C46.63,618.24 44.88,615.55 44.23,612.99 C42.94,607.91 43.87,607.92 46.78,613.01 C48.03,615.20 50.44,618.57 52.13,620.50 C56.11,625.03 54.14,625.02 49.12,620.49 ZM 786.25 616.51 C789.06,612.40 791.45,609.13 791.56,609.26 C791.67,609.39 791.53,611.02 791.25,612.88 C790.92,615.03 789.32,617.68 786.87,620.13 C780.88,626.12 780.64,624.73 786.25,616.51 Z" fill="rgb(201,121,113)"/>
<path d="M 179.30 672.00 C153.47,669.28 128.34,661.74 107.00,650.30 C79.00,635.28 57.98,615.48 48.99,595.64 C37.35,569.94 42.14,541.43 59.46,533.37 C65.34,530.63 69.23,530.37 71.43,532.57 C73.51,534.65 73.41,538.16 71.01,548.19 C66.03,568.96 71.32,586.42 87.49,602.50 C96.70,611.66 103.42,615.93 116.06,620.68 C155.52,635.50 202.26,626.82 241.75,597.32 C252.47,589.32 270.05,572.06 277.06,562.66 C288.07,547.91 297.19,526.99 297.40,516.05 C297.49,511.22 297.24,510.46 295.50,510.23 C294.08,510.04 292.87,511.07 291.34,513.77 C283.62,527.39 268.92,543.66 255.03,553.93 C240.18,564.91 226.45,570.85 209.54,573.61 C200.08,575.15 197.24,575.22 187.10,574.19 C172.48,572.69 165.80,570.93 154.50,565.60 C134.20,556.02 121.27,539.82 115.86,517.21 C114.12,509.92 113.86,506.46 114.30,496.00 C114.96,480.42 117.34,471.40 127.66,445.50 C138.64,417.96 139.44,414.22 136.49,404.29 C132.73,391.61 114.43,384.52 106.80,392.79 C105.42,394.28 104.02,396.29 103.68,397.25 C102.85,399.59 97.80,399.55 95.65,397.17 C91.12,392.16 96.65,379.82 105.89,374.30 C116.64,367.87 128.00,367.63 139.88,373.57 C159.69,383.49 167.60,406.33 159.95,431.55 C158.79,435.37 156.08,443.45 153.92,449.50 C151.76,455.55 149.33,463.65 148.52,467.50 C146.57,476.68 146.58,492.97 148.53,500.45 C153.18,518.32 167.55,534.04 184.83,540.18 C193.12,543.12 207.12,543.72 216.25,541.53 C231.77,537.79 245.61,530.26 257.05,519.33 C271.30,505.71 280.12,490.41 282.81,474.64 C284.27,466.04 284.26,464.73 282.66,456.57 C281.71,451.74 278.05,440.43 274.52,431.45 C266.57,411.16 264.39,403.89 262.50,391.37 C257.23,356.42 267.58,319.92 291.33,289.75 C313.83,261.15 343.74,243.03 382.00,234.82 C391.28,232.83 395.41,232.56 417.50,232.53 C437.85,232.51 444.17,232.84 451.50,234.33 C472.54,238.60 495.34,247.99 511.72,259.13 C516.00,262.04 524.70,269.63 531.05,276.00 C555.98,301.01 569.65,329.48 572.99,363.37 C575.08,384.66 571.78,403.12 560.96,430.50 C551.05,455.60 549.37,465.53 552.50,480.50 C556.66,500.41 577.15,524.73 598.42,535.02 C625.65,548.18 652.52,544.73 671.60,525.61 C683.21,513.98 688.01,501.72 687.99,483.70 C687.98,472.59 685.82,462.99 679.56,446.26 C677.04,439.52 674.31,430.83 673.49,426.94 C668.35,402.49 676.95,381.57 695.80,372.69 C701.62,369.95 703.55,369.54 710.50,369.58 C719.01,369.62 723.47,371.00 730.24,375.68 C738.52,381.39 742.82,393.14 738.17,397.35 C735.23,400.01 732.87,399.30 728.55,394.42 C725.34,390.79 723.67,389.74 720.48,389.32 C711.98,388.21 703.04,393.17 698.78,401.35 C697.14,404.51 696.64,407.17 696.69,412.50 C696.77,420.41 697.66,423.32 706.57,444.74 C718.48,473.41 721.73,486.98 720.68,503.79 C719.93,515.91 718.02,523.16 712.72,534.00 C706.81,546.11 695.09,557.82 682.43,564.28 C656.58,577.47 626.10,578.11 600.24,565.99 C580.13,556.57 560.46,539.49 547.50,520.22 C539.79,508.74 537.70,507.67 537.18,514.93 C536.47,524.90 545.82,546.60 557.59,562.28 C565.64,573.01 583.98,590.61 596.07,599.21 C637.63,628.78 686.50,635.89 724.84,617.95 C756.72,603.03 771.43,576.56 764.00,547.50 C761.52,537.82 761.49,534.77 763.83,532.65 C767.88,528.99 777.03,531.95 783.36,538.97 C797.46,554.60 795.42,583.55 778.44,609.09 C762.26,633.44 723.45,657.46 685.73,666.50 C669.45,670.40 656.87,671.96 636.50,672.60 C615.42,673.27 601.61,672.06 577.91,667.46 C538.38,659.78 492.65,637.30 460.46,609.74 C442.00,593.93 434.20,584.35 425.24,566.50 C423.03,562.10 420.23,557.61 419.02,556.51 C416.82,554.53 416.82,554.53 415.33,556.51 C414.51,557.61 411.79,562.55 409.30,567.50 C403.32,579.35 399.52,584.52 388.05,596.36 C369.66,615.36 347.19,631.71 322.00,644.43 C293.95,658.60 273.59,665.22 243.00,670.11 C228.79,672.38 192.99,673.45 179.30,672.00 ZM 161.21 346.07 C134.35,352.94 103.77,339.17 90.75,314.32 C85.41,304.15 83.62,296.37 83.64,283.50 C83.66,274.17 84.08,271.29 86.39,264.50 C92.93,245.36 108.75,229.82 127.00,224.61 C147.38,218.78 166.20,221.49 183.23,232.69 C216.81,254.80 219.18,307.72 187.72,333.07 C180.50,338.89 170.90,343.60 161.21,346.07 ZM 512.69 421.46 C517.75,419.38 524.57,412.41 527.11,406.73 C530.25,399.68 530.37,388.49 527.37,381.95 C521.11,368.29 507.96,362.07 494.79,366.55 C476.50,372.79 469.80,398.89 482.64,413.89 C490.27,422.81 502.15,425.80 512.69,421.46 ZM 343.87 420.56 C353.84,415.51 359.46,405.92 359.45,394.00 C359.43,384.33 356.58,377.61 349.97,371.66 C336.65,359.69 317.94,364.05 308.76,381.28 C306.91,384.76 306.51,387.09 306.51,394.50 C306.51,404.14 307.89,408.15 313.48,414.79 C320.19,422.77 334.24,425.44 343.87,420.56 ZM 590.26 510.10 C584.07,507.12 575.64,500.11 571.87,494.82 L 569.92 492.08 L 574.27 494.00 C579.94,496.51 589.58,499.00 593.60,499.00 C595.36,499.00 599.82,498.06 603.52,496.92 C611.20,494.55 618.76,488.34 622.25,481.52 C624.83,476.50 625.01,467.83 622.64,463.27 C619.23,456.70 610.20,455.04 602.48,459.56 C598.95,461.64 597.72,461.92 596.07,461.03 C591.43,458.55 592.26,451.51 597.84,445.93 C606.66,437.10 622.36,438.34 632.20,448.63 C646.03,463.10 644.47,487.81 628.79,502.64 C620.59,510.40 616.20,512.30 605.50,512.74 C597.14,513.09 596.05,512.90 590.26,510.10 ZM 216.50 510.17 C209.95,506.98 202.17,499.79 198.46,493.50 C195.49,488.46 193.00,479.02 193.00,472.81 C193.00,466.45 196.68,455.56 200.03,451.97 C201.52,450.37 202.56,448.89 202.34,448.67 C201.70,448.03 208.72,443.01 212.47,441.45 C217.80,439.22 226.76,439.59 232.03,442.25 C240.42,446.49 244.09,456.93 238.49,460.60 C236.08,462.18 235.79,462.13 231.87,459.53 C226.95,456.27 220.47,455.81 216.47,458.43 C209.78,462.81 208.34,474.79 213.46,483.52 C218.62,492.33 230.44,499.00 240.88,499.00 C245.37,499.00 258.65,495.43 261.82,493.37 C264.09,491.90 264.11,491.92 262.90,494.18 C260.61,498.47 251.17,506.77 245.31,509.65 C240.57,511.98 237.94,512.55 231.00,512.80 C223.31,513.07 221.93,512.82 216.50,510.17 ZM 432.40 439.15 C438.28,436.55 444.27,430.95 446.53,425.93 C448.21,422.20 448.25,421.54 446.91,419.15 C444.41,414.68 441.58,415.19 437.50,420.87 C432.72,427.53 426.77,430.46 418.00,430.48 C414.42,430.49 410.27,430.16 408.77,429.74 C405.34,428.78 399.35,423.58 397.46,419.92 C394.57,414.34 388.00,415.36 388.00,421.40 C388.00,427.03 393.49,433.94 401.22,438.04 C409.15,442.24 424.20,442.78 432.40,439.15 ZM 315.33 333.62 C321.88,328.32 325.25,327.00 332.25,327.00 C339.07,327.00 341.00,325.97 341.00,322.32 C341.00,317.25 330.41,314.96 320.30,317.85 C314.52,319.50 305.00,328.24 305.00,331.90 C305.00,337.82 309.27,338.53 315.33,333.62 ZM 528.80 335.80 C530.59,334.01 530.25,330.59 528.02,327.75 C524.90,323.79 516.39,318.83 510.28,317.41 C499.56,314.92 491.68,318.80 494.98,324.96 C495.89,326.66 497.06,327.00 502.07,327.00 C509.22,327.00 513.92,328.79 519.14,333.51 C523.10,337.08 526.67,337.93 528.80,335.80 ZM 150.00 262.00 L 150.00 281.00 L 170.25 281.00 L 169.82 272.71 C169.58,268.15 169.04,263.88 168.63,263.21 C168.13,262.41 164.87,262.00 158.94,262.00 ZM 150.48 303.75 L 151.09 307.00 L 159.93 307.00 C160.19,307.00 160.44,307.00 160.69,307.00 C165.08,307.00 167.39,307.01 168.61,305.85 C169.97,304.57 169.98,301.85 169.99,296.10 C169.99,295.81 169.99,295.52 169.99,295.21 L 170.00 287.93 L 160.25 288.21 L 150.50 288.50 L 150.19 294.50 C150.02,297.80 150.15,301.96 150.48,303.75 ZM 124.63 305.47 C125.09,306.68 127.06,307.00 134.14,307.00 L 143.08 307.00 L 142.79 297.75 L 142.50 288.50 L 132.60 288.21 L 122.71 287.92 L 123.37 295.94 C123.74,300.34 124.31,304.63 124.63,305.47 ZM 123.44 273.25 L 122.77 281.00 L 143.08 281.00 L 142.79 271.75 L 142.50 262.50 L 133.83 262.21 C133.24,262.19 132.69,262.17 132.17,262.15 C128.54,262.01 126.61,261.94 125.50,262.86 C124.08,264.04 124.01,266.85 123.44,273.25 ZM 178.64 278.25 L 179.16 281.00 L 198.12 281.00 L 197.48 276.25 C197.13,273.64 196.16,269.36 195.34,266.75 L 193.84 262.00 L 176.84 262.00 L 177.48 268.75 C177.83,272.46 178.36,276.74 178.64,278.25 ZM 95.52 276.75 L 94.82 281.00 L 114.71 281.00 L 115.35 274.25 C115.70,270.54 115.99,266.24 115.99,264.71 L 116.00 261.92 L 99.50 262.50 L 97.86 267.50 C96.96,270.25 95.91,274.41 95.52,276.75 ZM 99.66 306.25 C99.91,306.66 103.96,307.00 108.67,307.00 C115.92,307.00 117.13,306.77 116.63,305.47 C116.31,304.63 115.74,300.36 115.38,295.97 L 114.71 288.00 L 96.00 288.00 L 96.00 291.32 C96.00,294.25 98.45,304.25 99.66,306.25 ZM 177.50 300.75 L 176.90 307.00 L 193.94 307.00 L 195.42 301.75 C196.23,298.86 197.03,294.70 197.19,292.50 L 197.50 288.50 L 188.30 288.21 L 179.10 287.93 L 178.60 291.21 C178.32,293.02 177.83,297.31 177.50,300.75 ZM 150.00 243.50 L 150.00 255.00 L 166.95 255.00 L 166.02 252.56 C162.61,243.59 154.23,232.00 151.15,232.00 C150.35,232.00 150.00,235.47 150.00,243.50 ZM 137.27 332.75 C139.55,335.09 141.77,337.00 142.21,337.00 C142.64,337.00 143.00,331.83 143.00,325.50 L 143.00 314.00 L 134.93 314.00 C127.03,314.00 126.88,314.05 127.54,316.25 C129.14,321.54 133.42,328.80 137.27,332.75 ZM 127.00 253.76 C127.00,254.77 128.85,255.01 134.75,254.79 L 142.50 254.50 L 142.15 243.50 C141.96,237.45 141.62,232.31 141.39,232.07 C141.16,231.83 139.35,233.18 137.36,235.07 C133.97,238.30 127.00,250.87 127.00,253.76 ZM 151.00 314.00 L 151.00 337.42 L 155.55 332.96 C159.80,328.78 166.00,318.34 166.00,315.34 C166.00,314.34 164.10,314.00 158.50,314.00 ZM 171.19 324.25 C169.11,328.51 167.56,332.00 167.74,332.00 C170.80,332.00 185.81,320.08 188.07,315.87 C189.00,314.13 188.59,314.00 182.04,314.00 C177.08,314.00 175.00,314.37 174.99,315.25 C174.99,315.94 173.28,319.99 171.19,324.25 ZM 175.00 253.90 C175.00,254.60 177.59,255.00 182.04,255.00 C188.59,255.00 189.00,254.87 188.07,253.13 C186.52,250.23 176.78,241.73 172.30,239.37 L 168.26 237.24 L 171.63 245.02 C173.48,249.30 175.00,253.30 175.00,253.90 ZM 121.00 329.43 L 121.50 329.71 C124.26,331.27 125.45,331.95 125.63,331.74 C125.77,331.58 125.34,330.91 124.57,329.74 C124.51,329.65 124.45,329.56 124.38,329.46 C123.47,328.07 121.71,324.13 120.48,320.71 L 118.23 314.50 L 111.61 314.20 C107.98,314.04 105.00,314.28 105.00,314.74 C105.00,316.31 116.52,326.89 121.00,329.43 ZM 105.00 254.22 C105.00,254.65 107.83,255.00 111.28,255.00 L 117.57 255.00 L 121.08 246.12 L 124.59 237.23 L 120.54 239.73 C116.30,242.35 105.00,252.88 105.00,254.22 Z" fill="rgb(98,201,213)"/>
<path d="M 0.00 627.00 L 0.00 0.00 L 418.00 0.00 L 836.00 0.00 L 836.00 627.00 L 836.00 1254.00 L 418.00 1254.00 L 0.00 1254.00 L 0.00 627.00 ZM 199.74 943.10 C240.12,935.27 267.38,907.58 276.62,865.00 C278.04,858.44 278.44,852.51 278.38,839.00 C278.30,822.84 278.06,820.61 275.24,809.85 C269.71,788.76 260.58,772.61 246.64,759.27 C228.21,741.64 206.84,733.69 178.00,733.71 C150.33,733.74 128.22,742.11 110.25,759.35 C88.48,780.25 78.03,808.55 79.25,843.33 C80.88,890.24 102.63,923.41 142.00,939.02 C156.85,944.90 181.45,946.64 199.74,943.10 ZM 681.74 943.10 C702.20,939.13 716.02,931.95 730.06,918.00 C744.14,904.01 751.31,890.85 756.76,869.00 C759.10,859.63 759.38,856.52 759.43,840.00 C759.48,820.68 758.92,816.45 754.33,801.00 C748.96,782.93 737.19,765.22 723.00,753.88 C697.93,733.84 661.73,728.03 628.50,738.71 C618.45,741.94 612.43,744.93 603.24,751.26 C584.30,764.31 572.47,782.78 564.77,811.31 C562.82,818.54 562.57,821.90 562.61,840.00 C562.65,859.13 562.84,861.17 565.38,870.50 C570.97,891.01 578.96,905.27 591.99,918.00 C614.28,939.77 648.93,949.46 681.74,943.10 ZM 375.17 940.97 C382.12,939.04 385.00,933.92 390.60,913.50 C395.86,894.31 417.72,818.94 418.15,818.51 C418.63,818.04 422.79,832.38 445.12,911.50 C448.38,923.05 451.87,933.62 452.88,935.00 C457.03,940.67 460.13,941.50 477.00,941.50 C494.26,941.50 497.63,940.52 501.18,934.44 C502.63,931.95 509.56,907.44 518.97,871.50 C521.24,862.84 525.44,847.06 528.13,837.04 C529.25,832.89 533.24,818.03 537.00,804.00 C547.46,765.01 548.00,763.00 550.07,755.52 C552.56,746.50 552.51,743.17 549.83,740.31 C547.72,738.07 547.12,738.00 530.79,738.00 C511.16,738.00 507.79,738.86 505.46,744.43 C504.66,746.36 502.17,755.49 499.93,764.72 C497.69,773.95 493.23,792.30 490.01,805.50 C486.80,818.70 482.27,837.60 479.96,847.50 C477.65,857.40 475.44,866.10 475.04,866.83 C474.62,867.61 473.38,864.51 472.04,859.33 C470.79,854.47 468.96,847.58 467.98,844.00 C467.00,840.42 464.10,829.62 461.53,820.00 C456.07,799.52 451.37,782.33 449.51,776.00 C448.78,773.53 446.74,766.10 444.97,759.50 C439.41,738.76 439.70,739.00 420.23,739.00 C405.23,739.00 401.18,739.92 399.11,743.79 C398.25,745.39 393.81,760.75 380.38,808.50 C377.90,817.30 374.94,827.88 373.80,832.00 C370.88,842.61 367.56,854.26 364.97,863.00 L 362.75 870.50 L 360.88 862.50 C358.34,851.64 351.71,823.94 346.99,804.50 C334.88,754.58 332.82,746.56 331.46,743.93 C328.76,738.70 325.87,738.00 307.18,738.00 C291.71,738.00 290.05,738.17 287.69,740.03 C283.02,743.70 282.92,742.81 292.03,776.00 C293.76,782.33 295.79,789.75 296.53,792.50 C297.86,797.45 306.36,829.01 310.00,842.50 C311.04,846.35 314.20,858.05 317.02,868.50 C319.85,878.95 322.99,890.65 324.02,894.50 C325.05,898.35 326.56,903.97 327.38,907.00 C328.20,910.03 329.97,916.58 331.32,921.56 C335.06,935.47 336.77,938.08 343.74,940.57 C348.26,942.19 369.81,942.46 375.17,940.97 ZM 632.18 700.89 C634.20,700.38 638.25,698.35 641.17,696.39 C645.35,693.58 646.80,693.05 647.99,693.93 C660.63,703.25 677.56,701.75 688.73,690.31 L 693.96 684.95 L 699.03 686.60 C706.46,689.04 715.85,688.13 723.54,684.24 C730.03,680.95 736.77,674.41 738.85,669.38 C740.08,666.39 740.43,666.24 747.08,665.76 C760.59,664.80 772.52,656.25 776.97,644.36 C778.09,641.37 779.00,638.10 779.00,637.09 C779.00,635.84 779.98,635.05 782.05,634.64 C788.66,633.32 797.08,625.33 799.97,617.62 C802.45,611.02 803.05,605.80 802.01,600.05 C801.16,595.37 801.28,593.10 802.65,587.90 C805.09,578.66 805.09,557.52 802.65,549.54 C796.95,530.92 785.91,520.48 770.59,519.26 C759.50,518.36 751.95,523.70 750.04,533.80 C749.12,538.63 749.30,539.87 752.54,551.50 C758.75,573.79 743.69,597.47 716.09,608.80 C704.13,613.71 694.44,615.43 679.00,615.37 C659.42,615.29 644.19,611.86 625.19,603.22 L 620.88 601.27 L 625.69 600.07 C628.34,599.41 631.95,598.02 633.72,596.99 C636.92,595.11 636.96,595.12 641.25,597.52 C647.81,601.18 655.26,602.48 661.58,601.07 C667.76,599.69 675.33,594.95 677.66,591.00 C679.29,588.24 679.47,588.19 686.41,588.69 C692.10,589.10 694.41,588.81 698.10,587.20 C706.92,583.36 713.99,575.01 715.44,566.70 C715.84,564.42 716.79,562.68 717.81,562.35 C723.43,560.56 725.70,559.19 730.00,555.00 C732.64,552.43 736.08,547.89 737.63,544.91 C740.05,540.29 740.46,538.33 740.47,531.50 C740.47,525.95 739.97,522.57 738.82,520.46 C737.26,517.59 737.27,517.29 739.12,514.96 C744.29,508.44 746.33,502.74 746.28,495.00 C746.23,486.49 744.56,481.13 739.84,474.27 C736.74,469.75 736.61,469.20 736.89,461.21 C737.28,449.70 734.69,444.52 722.56,432.66 C717.59,427.80 712.74,422.63 711.77,421.16 C709.25,417.35 709.37,408.63 711.97,406.03 C715.54,402.46 718.22,402.53 722.20,406.29 C726.19,410.04 733.49,412.59 737.15,411.50 C747.61,408.37 752.57,401.14 751.78,390.17 C749.85,363.28 715.55,348.63 687.56,362.72 C679.35,366.86 669.81,376.01 665.72,383.68 C661.55,391.49 659.00,402.83 659.00,413.59 C659.00,427.27 660.38,432.91 670.53,460.50 C673.64,468.95 674.29,472.16 674.74,481.21 C675.21,490.52 674.98,492.83 673.01,498.97 C667.26,516.86 652.59,528.48 634.13,529.76 C626.61,530.29 612.13,528.37 613.66,527.06 C614.12,526.66 616.75,525.51 619.50,524.51 C649.25,513.67 663.83,476.91 649.22,449.57 C645.42,442.46 636.61,433.92 629.50,430.44 C624.14,427.81 622.48,427.50 613.98,427.50 C605.24,427.50 603.91,427.77 597.79,430.78 C590.28,434.48 586.79,438.08 583.23,445.84 C574.96,463.81 591.34,481.72 606.58,471.38 C608.51,470.07 610.52,469.00 611.04,469.00 C613.01,469.00 611.95,475.37 609.44,478.66 C605.39,483.98 599.71,486.44 591.50,486.44 C576.51,486.45 565.00,476.79 565.00,464.21 C565.00,458.90 566.91,452.85 575.41,431.20 C586.07,404.07 589.17,385.71 587.04,362.17 C584.67,335.86 576.85,313.81 562.03,291.70 C535.28,251.79 495.24,227.09 446.50,220.43 C434.33,218.77 406.35,218.60 393.17,220.11 C387.85,220.72 378.02,222.50 371.33,224.07 C323.67,235.27 284.28,266.35 263.09,309.50 C252.06,331.97 247.81,349.66 247.73,373.50 C247.65,396.67 250.40,408.30 263.57,440.50 C272.22,461.63 272.16,470.83 263.34,479.20 C252.69,489.31 232.43,488.69 225.25,478.04 C223.20,475.00 222.12,469.00 223.63,469.00 C223.97,469.00 227.13,470.42 230.65,472.15 C236.50,475.03 237.38,475.20 240.89,474.15 C249.17,471.67 254.00,464.54 254.00,454.80 C254.00,443.60 244.40,431.92 232.32,428.41 C205.12,420.50 177.53,446.60 180.52,477.43 C182.65,499.47 195.23,516.12 216.10,524.54 L 223.88 527.68 L 217.57 528.84 C189.65,533.98 168.10,521.46 161.58,496.30 C158.33,483.79 160.02,471.38 167.74,450.98 C180.95,416.09 178.46,390.67 160.00,371.91 C147.31,359.02 130.91,354.34 113.09,358.54 C95.51,362.68 82.90,376.81 82.81,392.47 C82.76,402.44 87.41,408.42 97.30,411.08 C102.28,412.42 108.27,410.42 112.52,405.98 C116.11,402.24 118.38,402.22 122.08,405.92 C124.41,408.26 125.00,409.72 125.00,413.17 C124.99,418.96 122.62,422.59 112.06,432.92 C100.62,444.13 98.55,448.34 98.37,460.73 C98.25,469.22 97.99,470.34 95.15,474.77 C86.52,488.22 86.22,500.67 94.25,512.65 L 97.50 517.50 L 95.79 522.50 C92.70,531.58 94.06,539.50 100.44,549.47 C104.10,555.20 111.10,560.62 116.18,561.67 C118.36,562.12 118.98,562.93 119.50,566.03 C120.52,572.04 125.91,580.09 131.35,583.74 C137.45,587.82 143.01,589.33 149.87,588.76 C155.13,588.32 155.34,588.41 159.15,592.54 C167.55,601.66 181.67,604.16 193.31,598.58 L 199.11 595.80 L 203.81 597.78 C206.39,598.87 210.27,600.07 212.43,600.46 L 216.36 601.16 L 211.93 603.16 C192.68,611.87 176.59,615.46 157.00,615.41 C141.28,615.38 131.29,613.57 118.87,608.53 C104.80,602.81 92.01,591.74 85.86,579.94 C82.58,573.65 82.51,573.21 82.55,561.50 C82.58,552.46 83.02,548.54 84.30,545.63 C88.94,535.06 82.72,521.35 72.42,519.42 C63.44,517.73 50.41,522.49 43.73,529.88 C39.68,534.36 35.59,541.85 33.35,548.90 C30.86,556.73 30.48,573.21 32.57,583.00 C33.83,588.92 34.30,594.73 34.10,602.16 C33.80,613.74 35.13,618.55 40.59,625.71 C43.20,629.13 52.30,634.97 55.05,634.99 C56.11,635.00 57.29,637.34 58.78,642.41 C60.58,648.53 61.84,650.73 65.96,654.96 C72.17,661.33 80.03,665.07 88.66,665.77 C94.94,666.27 95.15,666.38 97.05,670.11 C103.74,683.21 123.40,691.37 136.93,686.65 L 141.36 685.11 L 146.44 690.39 C157.16,701.55 173.19,703.68 184.97,695.52 L 188.75 692.90 L 193.35 696.00 C200.51,700.84 206.00,702.32 214.84,701.79 C223.16,701.29 228.44,699.19 234.33,694.02 L 237.71 691.04 L 242.11 693.17 C244.65,694.40 249.31,695.50 253.18,695.78 C259.08,696.20 260.59,695.91 266.18,693.27 C269.65,691.62 274.65,688.37 277.28,686.03 C281.93,681.89 282.14,681.82 285.28,683.14 C290.59,685.38 302.72,684.86 307.80,682.18 C313.22,679.32 319.62,673.57 322.54,668.93 L 324.81 665.35 L 333.15 665.77 C340.04,666.11 342.34,665.82 346.32,664.10 C352.63,661.37 362.05,652.29 364.91,646.20 C367.11,641.50 367.34,641.33 373.28,640.10 C381.59,638.39 385.69,636.11 391.34,630.06 C396.65,624.39 400.16,617.38 401.92,608.91 C402.80,604.64 403.92,602.51 406.66,599.91 C408.63,598.03 411.95,594.38 414.03,591.78 L 417.81 587.06 L 419.58 589.78 C420.55,591.28 423.92,595.20 427.07,598.50 C431.85,603.52 433.05,605.52 434.37,610.75 C438.70,627.80 448.20,637.55 463.03,640.16 C468.79,641.18 468.89,641.25 471.50,646.58 C474.92,653.57 481.60,660.19 488.58,663.49 C493.37,665.76 495.28,666.09 502.57,665.92 L 511.01 665.71 L 513.87 669.67 C522.96,682.21 537.68,687.85 549.98,683.51 C554.09,682.06 554.28,682.08 556.06,684.35 C559.37,688.55 568.35,693.91 574.87,695.56 C581.94,697.35 585.73,697.01 593.74,693.85 L 598.98 691.78 L 602.67 695.01 C610.67,702.04 620.12,703.92 632.18,700.89 ZM 161.21 346.07 C170.90,343.60 180.50,338.89 187.72,333.07 C219.18,307.72 216.81,254.80 183.23,232.69 C166.20,221.49 147.38,218.78 127.00,224.61 C108.75,229.82 92.93,245.36 86.39,264.50 C84.08,271.29 83.66,274.17 83.64,283.50 C83.62,296.37 85.41,304.15 90.75,314.32 C103.77,339.17 134.35,352.94 161.21,346.07 ZM 712.30 319.28 C742.16,289.94 745.05,286.80 748.51,279.99 C754.48,268.20 755.30,255.98 750.90,244.50 C747.75,236.30 737.77,226.16 730.00,223.26 C714.18,217.37 696.19,220.48 685.22,231.01 L 680.95 235.12 L 675.27 230.05 C667.25,222.91 660.92,220.65 649.00,220.71 C638.13,220.76 633.20,222.20 625.24,227.66 C610.94,237.45 604.81,257.22 611.02,273.50 C615.39,284.95 617.07,286.90 650.37,319.25 C676.04,344.20 678.14,346.00 681.50,346.00 C684.86,346.00 686.87,344.25 712.30,319.28 ZM 164.10 901.42 C148.00,897.09 137.02,886.15 130.58,868.04 C127.61,859.68 127.54,859.09 127.52,840.50 C127.50,823.32 127.72,820.79 129.85,814.03 C133.30,803.03 136.54,797.30 143.31,790.26 C154.62,778.47 170.66,773.29 187.67,775.91 C207.01,778.88 220.10,790.91 227.51,812.50 C229.82,819.21 230.34,822.72 230.77,834.24 C231.37,850.35 230.08,860.02 225.89,870.93 C219.93,886.41 208.74,897.40 195.06,901.19 C187.11,903.40 171.88,903.51 164.10,901.42 ZM 647.50 901.59 C629.30,897.07 616.29,882.29 611.33,860.50 C608.71,849.00 608.96,827.37 611.84,816.70 C619.75,787.35 641.79,771.82 669.64,775.96 C691.04,779.15 705.15,793.98 711.04,819.46 C712.96,827.77 713.18,830.88 712.71,843.26 C712.11,859.28 710.66,865.80 705.22,877.00 C699.10,889.57 688.90,898.33 676.50,901.64 C670.33,903.29 654.23,903.26 647.50,901.59 ZM 321.22 386.44 C318.55,384.57 318.18,378.96 320.57,376.57 C322.45,374.69 328.33,374.49 329.80,376.26 C330.37,376.95 331.14,378.72 331.52,380.21 C332.04,382.31 331.63,383.46 329.64,385.45 C326.71,388.38 324.38,388.65 321.22,386.44 ZM 491.17 386.40 C487.93,384.14 488.45,378.15 492.07,376.13 C499.01,372.25 504.51,380.06 499.19,386.25 C497.32,388.43 494.15,388.49 491.17,386.40 ZM 137.27 332.75 C133.42,328.80 129.14,321.54 127.54,316.25 C126.88,314.05 127.03,314.00 134.93,314.00 L 143.00 314.00 L 143.00 325.50 C143.00,331.83 142.64,337.00 142.21,337.00 C141.77,337.00 139.55,335.09 137.27,332.75 ZM 151.00 325.71 L 151.00 314.00 L 158.50 314.00 C164.10,314.00 166.00,314.34 166.00,315.34 C166.00,318.34 159.80,328.78 155.55,332.96 L 151.00 337.42 L 151.00 325.71 ZM 121.00 329.43 C116.52,326.89 105.00,316.31 105.00,314.74 C105.00,314.28 107.98,314.04 111.61,314.20 L 118.23 314.50 L 120.48 320.71 C121.71,324.13 123.47,328.07 124.38,329.46 C126.41,332.55 126.52,332.55 121.00,329.43 ZM 171.19 324.25 C173.28,319.99 174.99,315.94 174.99,315.25 C175.00,314.37 177.08,314.00 182.04,314.00 C188.59,314.00 189.00,314.13 188.07,315.87 C185.81,320.08 170.80,332.00 167.74,332.00 C167.56,332.00 169.11,328.51 171.19,324.25 ZM 99.66 306.25 C98.45,304.25 96.00,294.25 96.00,291.32 L 96.00 288.00 L 105.36 288.00 L 114.71 288.00 L 115.38 295.97 C115.74,300.36 116.31,304.63 116.63,305.47 C117.13,306.77 115.92,307.00 108.67,307.00 C103.96,307.00 99.91,306.66 99.66,306.25 ZM 124.63 305.47 C124.31,304.63 123.74,300.34 123.37,295.94 L 122.71 287.92 L 132.60 288.21 L 142.50 288.50 L 142.79 297.75 L 143.08 307.00 L 134.14 307.00 C127.06,307.00 125.09,306.68 124.63,305.47 ZM 150.48 303.75 C150.15,301.96 150.02,297.80 150.19,294.50 L 150.50 288.50 L 160.25 288.21 L 170.00 287.93 L 169.99 295.21 C169.96,307.31 170.23,307.00 159.93,307.00 L 151.09 307.00 L 150.48 303.75 ZM 177.50 300.75 C177.83,297.31 178.32,293.02 178.60,291.21 L 179.10 287.93 L 188.30 288.21 L 197.50 288.50 L 197.19 292.50 C197.03,294.70 196.23,298.86 195.42,301.75 L 193.94 307.00 L 185.42 307.00 L 176.90 307.00 L 177.50 300.75 ZM 95.52 276.75 C95.91,274.41 96.96,270.25 97.86,267.50 L 99.50 262.50 L 107.75 262.21 L 116.00 261.92 L 115.99 264.71 C115.99,266.24 115.70,270.54 115.35,274.25 L 114.71 281.00 L 104.77 281.00 L 94.82 281.00 L 95.52 276.75 ZM 123.44 273.25 C124.51,261.15 123.82,261.88 133.83,262.21 L 142.50 262.50 L 142.79 271.75 L 143.08 281.00 L 132.92 281.00 L 122.77 281.00 L 123.44 273.25 ZM 150.00 271.50 L 150.00 262.00 L 158.94 262.00 C164.87,262.00 168.13,262.41 168.63,263.21 C169.04,263.88 169.58,268.15 169.82,272.71 L 170.25 281.00 L 160.13 281.00 L 150.00 281.00 L 150.00 271.50 ZM 178.64 278.25 C178.36,276.74 177.83,272.46 177.48,268.75 L 176.84 262.00 L 185.34 262.00 L 193.84 262.00 L 195.34 266.75 C196.16,269.36 197.13,273.64 197.48,276.25 L 198.12 281.00 L 188.64 281.00 L 179.16 281.00 L 178.64 278.25 ZM 105.00 254.22 C105.00,252.88 116.30,242.35 120.54,239.73 L 124.59 237.23 L 121.08 246.12 L 117.57 255.00 L 111.28 255.00 C107.83,255.00 105.00,254.65 105.00,254.22 ZM 127.00 253.76 C127.00,250.87 133.97,238.30 137.36,235.07 C139.35,233.18 141.16,231.83 141.39,232.07 C141.62,232.31 141.96,237.45 142.15,243.50 L 142.50 254.50 L 134.75 254.79 C128.85,255.01 127.00,254.77 127.00,253.76 ZM 150.00 243.50 C150.00,235.47 150.35,232.00 151.15,232.00 C154.23,232.00 162.61,243.59 166.02,252.56 L 166.95 255.00 L 158.48 255.00 L 150.00 255.00 L 150.00 243.50 ZM 175.00 253.90 C175.00,253.30 173.48,249.30 171.63,245.02 L 168.26 237.24 L 172.30 239.37 C176.78,241.73 186.52,250.23 188.07,253.13 C189.00,254.87 188.59,255.00 182.04,255.00 C177.59,255.00 175.00,254.60 175.00,253.90 Z" fill="rgb(253,245,233)"/>
</g>
</svg>